<?xml version="1.0" encoding="utf-8"?>
<!-- Generator: Adobe Illustrator 25.2.3, SVG Export Plug-In . SVG Version: 6.00 Build 0)  -->
<svg version="1.1" id="Calque_1" xmlns="http://www.w3.org/2000/svg" xmlns:xlink="http://www.w3.org/1999/xlink" x="0px" y="0px"
	 viewBox="0 0 255.12 141.73" style="enable-background:new 0 0 255.12 141.73;" xml:space="preserve">
<style type="text/css">
	.st0{fill:none;}
	.st1{font-family:'ArialRoundedMTBold';}
	.st2{font-size:35px;}
</style>
<g>
	<rect x="21.16" y="10.73" class="st0" width="264" height="78"/>
	<text transform="matrix(1.0536 0 0 1 21.1626 36.2115)" class="st1 st2">def.i.ni.tion</text>
</g>
<g>
	<g>
		<g>
			<path d="M8.44,58.55c-0.4-0.34-0.6-0.85-0.6-1.53c0-0.65,0.18-1.14,0.55-1.47c0.37-0.33,0.92-0.49,1.67-0.49h1.87l0.09,1.04
				h-1.96c-0.34,0-0.59,0.08-0.76,0.23c-0.17,0.15-0.25,0.38-0.25,0.69c0,0.33,0.11,0.58,0.33,0.74C9.61,57.92,9.94,58,10.4,58
				c0.5,0,0.86-0.05,1.11-0.16s0.37-0.27,0.37-0.5L12,58.28c-0.12,0.18-0.26,0.32-0.42,0.44s-0.36,0.2-0.58,0.26
				c-0.22,0.06-0.47,0.09-0.74,0.09C9.44,59.06,8.84,58.89,8.44,58.55z M11.87,54.78c0-0.43-0.12-0.77-0.35-1.01
				c-0.23-0.24-0.56-0.36-0.98-0.36c-0.26,0-0.52,0.04-0.77,0.12S9.3,53.73,9.1,53.88l-0.95-0.65c0.25-0.3,0.58-0.53,0.99-0.7
				c0.41-0.17,0.86-0.25,1.36-0.25c0.54,0,1.01,0.1,1.4,0.29c0.39,0.19,0.69,0.47,0.89,0.84c0.2,0.37,0.3,0.81,0.3,1.32v4.23h-1.23
				V54.78z"/>
			<path d="M15.07,52.37h1.29v6.59h-1.29V52.37z M18.26,53.62c-0.17-0.07-0.38-0.11-0.6-0.11c-0.41,0-0.73,0.11-0.96,0.34
				c-0.23,0.23-0.34,0.54-0.34,0.94l-0.13-1.27c0.2-0.39,0.46-0.7,0.79-0.92c0.32-0.22,0.68-0.33,1.07-0.33
				c0.3,0,0.57,0.04,0.82,0.13c0.24,0.09,0.46,0.21,0.64,0.38l-0.84,1.14C18.58,53.79,18.44,53.69,18.26,53.62z"/>
			<path d="M20.62,49.73h1.29v9.23h-1.29V49.73z M22.5,58.76c-0.3-0.2-0.53-0.47-0.67-0.83l0.09-1.38c0,0.28,0.05,0.52,0.15,0.72
				s0.25,0.35,0.44,0.46s0.43,0.16,0.7,0.16c0.43,0,0.76-0.13,0.99-0.39c0.24-0.26,0.35-0.63,0.35-1.1v-1.43
				c0-0.48-0.12-0.86-0.35-1.12c-0.23-0.27-0.57-0.4-0.99-0.4c-0.28,0-0.51,0.05-0.7,0.15s-0.34,0.25-0.44,0.45
				c-0.1,0.2-0.15,0.43-0.15,0.71l-0.13-1.27c0.2-0.39,0.46-0.68,0.78-0.89c0.32-0.21,0.68-0.31,1.07-0.31c0.46,0,0.86,0.1,1.2,0.31
				c0.33,0.21,0.58,0.52,0.76,0.92c0.17,0.4,0.26,0.89,0.26,1.45v1.43c0,0.56-0.09,1.04-0.27,1.43s-0.44,0.7-0.78,0.91
				c-0.34,0.21-0.75,0.31-1.23,0.31C23.16,59.06,22.8,58.96,22.5,58.76z"/>
			<path d="M27.69,52.37h1.29v6.59h-1.29V52.37z M30.88,53.62c-0.17-0.07-0.38-0.11-0.6-0.11c-0.41,0-0.73,0.11-0.96,0.34
				c-0.23,0.23-0.34,0.54-0.34,0.94l-0.13-1.27c0.2-0.39,0.46-0.7,0.79-0.92c0.32-0.22,0.68-0.33,1.07-0.33
				c0.3,0,0.57,0.04,0.82,0.13c0.24,0.09,0.46,0.21,0.64,0.38l-0.84,1.14C31.2,53.79,31.05,53.69,30.88,53.62z"/>
			<path d="M34.37,58.71c-0.43-0.23-0.76-0.56-0.99-1.01c-0.23-0.44-0.34-0.98-0.34-1.6v-0.74c0-0.65,0.11-1.21,0.33-1.67
				s0.53-0.81,0.95-1.05c0.41-0.24,0.91-0.36,1.5-0.36c0.55,0,1.02,0.14,1.41,0.41c0.39,0.27,0.69,0.67,0.89,1.19
				s0.31,1.14,0.31,1.87v0.43h-4.44v-1.04h3.21c-0.04-0.54-0.18-0.96-0.42-1.25c-0.24-0.3-0.56-0.45-0.96-0.45
				c-0.49,0-0.87,0.16-1.14,0.48s-0.4,0.78-0.4,1.36v0.84c0,0.55,0.14,0.96,0.43,1.26s0.7,0.44,1.22,0.44
				c0.26,0,0.52-0.05,0.78-0.16s0.49-0.25,0.69-0.44l0.85,0.85c-0.33,0.31-0.69,0.56-1.1,0.73c-0.41,0.17-0.81,0.26-1.23,0.26
				C35.32,59.06,34.8,58.94,34.37,58.71z"/>
			<path d="M44.98,58.55c-0.4-0.34-0.6-0.85-0.6-1.53c0-0.65,0.18-1.14,0.55-1.47c0.37-0.33,0.92-0.49,1.67-0.49h1.87l0.09,1.04
				h-1.96c-0.34,0-0.59,0.08-0.76,0.23c-0.17,0.15-0.25,0.38-0.25,0.69c0,0.33,0.11,0.58,0.33,0.74c0.22,0.16,0.56,0.24,1.01,0.24
				c0.5,0,0.86-0.05,1.11-0.16s0.37-0.27,0.37-0.5l0.13,0.93c-0.12,0.18-0.26,0.32-0.42,0.44s-0.36,0.2-0.58,0.26
				c-0.22,0.06-0.47,0.09-0.74,0.09C45.99,59.06,45.38,58.89,44.98,58.55z M48.42,54.78c0-0.43-0.12-0.77-0.35-1.01
				c-0.23-0.24-0.56-0.36-0.98-0.36c-0.26,0-0.52,0.04-0.77,0.12s-0.48,0.19-0.67,0.34l-0.95-0.65c0.25-0.3,0.58-0.53,0.99-0.7
				c0.41-0.17,0.86-0.25,1.36-0.25c0.54,0,1.01,0.1,1.4,0.29c0.39,0.19,0.69,0.47,0.89,0.84c0.2,0.37,0.3,0.81,0.3,1.32v4.23h-1.23
				V54.78z M45.02,48.97l0.93-0.77l1.82,2.25l-0.81,0.65L45.02,48.97z"/>
			<path d="M57.23,58.72c-0.42-0.22-0.75-0.55-0.97-0.98c-0.22-0.43-0.34-0.94-0.34-1.55v-1.09c0-0.6,0.11-1.11,0.34-1.53
				c0.22-0.42,0.55-0.75,0.97-0.97c0.43-0.22,0.94-0.33,1.54-0.33c0.34,0,0.67,0.04,0.97,0.12c0.3,0.08,0.57,0.2,0.82,0.36
				s0.44,0.35,0.6,0.57l-0.93,0.84c-0.19-0.21-0.4-0.37-0.65-0.49c-0.25-0.11-0.51-0.17-0.78-0.17c-0.5,0-0.89,0.14-1.16,0.42
				c-0.28,0.28-0.41,0.67-0.41,1.18v1.09c0,0.52,0.14,0.92,0.41,1.21c0.27,0.28,0.66,0.43,1.17,0.43c0.28,0,0.54-0.06,0.79-0.18
				s0.47-0.3,0.65-0.52l0.93,0.9c-0.17,0.22-0.37,0.41-0.61,0.56c-0.24,0.15-0.51,0.27-0.82,0.35s-0.62,0.12-0.96,0.12
				C58.17,59.06,57.65,58.94,57.23,58.72z"/>
			<path d="M62.58,49.73h1.29v9.23h-1.29V49.73z M66.58,54.97c0-0.47-0.12-0.83-0.36-1.08c-0.24-0.25-0.58-0.38-1.02-0.38
				c-0.42,0-0.75,0.11-0.98,0.33s-0.35,0.53-0.35,0.93l-0.13-1.27c0.2-0.39,0.47-0.69,0.8-0.9c0.33-0.21,0.69-0.32,1.09-0.32
				c0.71,0,1.27,0.23,1.66,0.7c0.39,0.47,0.59,1.13,0.59,1.98v4h-1.29V54.97z"/>
			<path d="M70.13,58.55c-0.4-0.34-0.6-0.85-0.6-1.53c0-0.65,0.18-1.14,0.55-1.47c0.37-0.33,0.92-0.49,1.67-0.49h1.87l0.09,1.04
				h-1.96c-0.34,0-0.59,0.08-0.76,0.23c-0.17,0.15-0.25,0.38-0.25,0.69c0,0.33,0.11,0.58,0.33,0.74C71.3,57.92,71.64,58,72.09,58
				c0.5,0,0.86-0.05,1.11-0.16s0.37-0.27,0.37-0.5l0.13,0.93c-0.12,0.18-0.26,0.32-0.42,0.44s-0.36,0.2-0.58,0.26
				c-0.22,0.06-0.47,0.09-0.74,0.09C71.14,59.06,70.53,58.89,70.13,58.55z M73.56,54.78c0-0.43-0.12-0.77-0.35-1.01
				c-0.23-0.24-0.56-0.36-0.98-0.36c-0.26,0-0.52,0.04-0.77,0.12s-0.48,0.19-0.67,0.34l-0.95-0.65c0.25-0.3,0.58-0.53,0.99-0.7
				c0.41-0.17,0.86-0.25,1.36-0.25c0.54,0,1.01,0.1,1.4,0.29c0.39,0.19,0.69,0.47,0.89,0.84c0.2,0.37,0.3,0.81,0.3,1.32v4.23h-1.23
				V54.78z"/>
			<path d="M76.26,52.37h2.97v1.17h-2.97V52.37z M77.31,58.55c-0.25-0.29-0.37-0.73-0.37-1.3v-6.79h1.29v6.8
				c0,0.16,0.03,0.28,0.09,0.37c0.06,0.09,0.16,0.13,0.28,0.13h0.62v1.23h-0.75C77.94,58.99,77.55,58.85,77.31,58.55z"/>
			<path d="M82.24,58.94c-0.34-0.08-0.66-0.19-0.96-0.34s-0.57-0.34-0.82-0.57l0.77-0.95c0.36,0.27,0.71,0.47,1.06,0.61
				c0.35,0.14,0.7,0.2,1.04,0.2c0.51,0,0.9-0.08,1.15-0.24c0.26-0.16,0.38-0.4,0.38-0.71c0-0.21-0.07-0.37-0.21-0.48
				s-0.31-0.18-0.52-0.21c-0.21-0.04-0.5-0.07-0.88-0.1c-0.03,0-0.07,0-0.11,0c-0.04,0-0.07-0.01-0.11-0.01c-0.02,0-0.03,0-0.05,0
				c-0.02,0-0.03,0-0.05,0c-0.43-0.03-0.79-0.1-1.08-0.19c-0.3-0.09-0.54-0.26-0.74-0.51c-0.2-0.25-0.29-0.61-0.29-1.07
				s0.1-0.85,0.29-1.16c0.19-0.31,0.47-0.54,0.85-0.69c0.38-0.15,0.85-0.23,1.42-0.23c0.34,0,0.67,0.03,0.98,0.1
				c0.31,0.06,0.61,0.16,0.89,0.28c0.28,0.12,0.56,0.28,0.82,0.47l-0.78,0.95c-0.33-0.21-0.66-0.37-0.97-0.48s-0.63-0.16-0.94-0.16
				c-0.44,0-0.77,0.08-0.99,0.23c-0.22,0.15-0.33,0.38-0.33,0.68c0,0.18,0.06,0.31,0.19,0.4s0.28,0.15,0.47,0.18
				s0.46,0.06,0.81,0.08c0.03,0,0.05,0.01,0.08,0.01s0.06,0,0.09,0.01c0.01,0,0.03,0,0.04,0s0.03,0,0.04,0.01
				c0.46,0.03,0.85,0.09,1.18,0.18c0.32,0.09,0.6,0.28,0.82,0.55s0.33,0.67,0.33,1.19c0,0.47-0.1,0.87-0.3,1.18
				c-0.2,0.31-0.51,0.54-0.92,0.7s-0.92,0.23-1.54,0.23C82.94,59.06,82.58,59.02,82.24,58.94z"/>
			<path d="M92.01,52.31h1.36v1.36h-1.36V52.31z M92.01,57.6h1.36v1.36h-1.36V57.6z"/>
			<path d="M99.96,58.55c-0.4-0.34-0.6-0.85-0.6-1.53c0-0.65,0.18-1.14,0.55-1.47c0.37-0.33,0.92-0.49,1.67-0.49h1.87l0.09,1.04
				h-1.96c-0.34,0-0.59,0.08-0.76,0.23c-0.17,0.15-0.25,0.38-0.25,0.69c0,0.33,0.11,0.58,0.33,0.74c0.22,0.16,0.56,0.24,1.01,0.24
				c0.5,0,0.86-0.05,1.11-0.16s0.37-0.27,0.37-0.5l0.13,0.93c-0.12,0.18-0.26,0.32-0.42,0.44s-0.36,0.2-0.58,0.26
				c-0.22,0.06-0.47,0.09-0.74,0.09C100.97,59.06,100.36,58.89,99.96,58.55z M103.39,54.78c0-0.43-0.12-0.77-0.35-1.01
				c-0.23-0.24-0.56-0.36-0.98-0.36c-0.26,0-0.52,0.04-0.77,0.12s-0.48,0.19-0.67,0.34l-0.95-0.65c0.25-0.3,0.58-0.53,0.99-0.7
				c0.41-0.17,0.86-0.25,1.36-0.25c0.54,0,1.01,0.1,1.4,0.29c0.39,0.19,0.69,0.47,0.89,0.84c0.2,0.37,0.3,0.81,0.3,1.32v4.23h-1.23
				V54.78z"/>
			<path d="M107.71,58.72c-0.42-0.22-0.75-0.55-0.97-0.98c-0.22-0.43-0.34-0.94-0.34-1.55v-1.09c0-0.6,0.11-1.11,0.34-1.53
				c0.22-0.42,0.55-0.75,0.97-0.97c0.43-0.22,0.94-0.33,1.54-0.33c0.34,0,0.67,0.04,0.97,0.12c0.3,0.08,0.57,0.2,0.82,0.36
				s0.44,0.35,0.6,0.57l-0.93,0.84c-0.19-0.21-0.4-0.37-0.65-0.49c-0.25-0.11-0.51-0.17-0.78-0.17c-0.5,0-0.89,0.14-1.16,0.42
				c-0.28,0.28-0.41,0.67-0.41,1.18v1.09c0,0.52,0.14,0.92,0.41,1.21c0.27,0.28,0.66,0.43,1.17,0.43c0.28,0,0.54-0.06,0.79-0.18
				s0.47-0.3,0.65-0.52l0.93,0.9c-0.17,0.22-0.37,0.41-0.61,0.56c-0.24,0.15-0.51,0.27-0.82,0.35s-0.62,0.12-0.96,0.12
				C108.65,59.06,108.14,58.94,107.71,58.72z"/>
			<path d="M114.19,58.72c-0.42-0.22-0.75-0.55-0.97-0.98c-0.22-0.43-0.34-0.94-0.34-1.55v-1.09c0-0.6,0.11-1.11,0.34-1.53
				c0.22-0.42,0.55-0.75,0.97-0.97c0.43-0.22,0.94-0.33,1.54-0.33c0.34,0,0.67,0.04,0.97,0.12c0.3,0.08,0.57,0.2,0.82,0.36
				s0.44,0.35,0.6,0.57l-0.93,0.84c-0.19-0.21-0.4-0.37-0.65-0.49c-0.25-0.11-0.51-0.17-0.78-0.17c-0.5,0-0.89,0.14-1.16,0.42
				c-0.28,0.28-0.41,0.67-0.41,1.18v1.09c0,0.52,0.14,0.92,0.41,1.21c0.27,0.28,0.66,0.43,1.17,0.43c0.28,0,0.54-0.06,0.79-0.18
				s0.47-0.3,0.65-0.52l0.93,0.9c-0.17,0.22-0.37,0.41-0.61,0.56c-0.24,0.15-0.51,0.27-0.82,0.35s-0.62,0.12-0.96,0.12
				C115.13,59.06,114.61,58.94,114.19,58.72z"/>
			<path d="M120.68,58.71c-0.43-0.23-0.76-0.56-0.99-1.01c-0.23-0.44-0.34-0.98-0.34-1.6v-0.74c0-0.65,0.11-1.21,0.33-1.67
				s0.53-0.81,0.95-1.05c0.41-0.24,0.91-0.36,1.5-0.36c0.55,0,1.02,0.14,1.41,0.41c0.39,0.27,0.69,0.67,0.89,1.19
				s0.31,1.14,0.31,1.87v0.43h-4.44v-1.04h3.21c-0.04-0.54-0.18-0.96-0.42-1.25c-0.24-0.3-0.56-0.45-0.96-0.45
				c-0.49,0-0.87,0.16-1.14,0.48s-0.4,0.78-0.4,1.36v0.84c0,0.55,0.14,0.96,0.43,1.26s0.7,0.44,1.22,0.44
				c0.26,0,0.52-0.05,0.78-0.16s0.49-0.25,0.69-0.44l0.85,0.85c-0.33,0.31-0.69,0.56-1.1,0.73c-0.41,0.17-0.81,0.26-1.23,0.26
				C121.63,59.06,121.11,58.94,120.68,58.71z"/>
			<path d="M127.75,58.94c-0.34-0.08-0.66-0.19-0.96-0.34s-0.57-0.34-0.82-0.57l0.77-0.95c0.36,0.27,0.71,0.47,1.06,0.61
				c0.35,0.14,0.7,0.2,1.04,0.2c0.51,0,0.9-0.08,1.15-0.24c0.26-0.16,0.38-0.4,0.38-0.71c0-0.21-0.07-0.37-0.21-0.48
				s-0.31-0.18-0.52-0.21c-0.21-0.04-0.5-0.07-0.88-0.1c-0.03,0-0.07,0-0.11,0c-0.04,0-0.07-0.01-0.11-0.01c-0.02,0-0.03,0-0.05,0
				c-0.02,0-0.03,0-0.05,0c-0.43-0.03-0.79-0.1-1.08-0.19c-0.3-0.09-0.54-0.26-0.74-0.51c-0.2-0.25-0.29-0.61-0.29-1.07
				s0.1-0.85,0.29-1.16c0.19-0.31,0.47-0.54,0.85-0.69c0.38-0.15,0.85-0.23,1.42-0.23c0.34,0,0.67,0.03,0.98,0.1
				c0.31,0.06,0.61,0.16,0.89,0.28c0.28,0.12,0.56,0.28,0.82,0.47l-0.78,0.95c-0.33-0.21-0.66-0.37-0.97-0.48s-0.63-0.16-0.94-0.16
				c-0.44,0-0.77,0.08-0.99,0.23c-0.22,0.15-0.33,0.38-0.33,0.68c0,0.18,0.06,0.31,0.19,0.4s0.28,0.15,0.47,0.18
				s0.46,0.06,0.81,0.08c0.03,0,0.05,0.01,0.08,0.01s0.06,0,0.09,0.01c0.01,0,0.03,0,0.04,0s0.03,0,0.04,0.01
				c0.46,0.03,0.85,0.09,1.18,0.18c0.32,0.09,0.6,0.28,0.82,0.55s0.33,0.67,0.33,1.19c0,0.47-0.1,0.87-0.3,1.18
				c-0.2,0.31-0.51,0.54-0.92,0.7s-0.92,0.23-1.54,0.23C128.45,59.06,128.09,59.02,127.75,58.94z"/>
			<path d="M134.49,58.94c-0.34-0.08-0.66-0.19-0.96-0.34s-0.57-0.34-0.82-0.57l0.77-0.95c0.36,0.27,0.71,0.47,1.06,0.61
				c0.35,0.14,0.7,0.2,1.04,0.2c0.51,0,0.9-0.08,1.15-0.24c0.26-0.16,0.38-0.4,0.38-0.71c0-0.21-0.07-0.37-0.21-0.48
				s-0.31-0.18-0.52-0.21c-0.21-0.04-0.5-0.07-0.88-0.1c-0.03,0-0.07,0-0.11,0c-0.04,0-0.07-0.01-0.11-0.01c-0.02,0-0.03,0-0.05,0
				c-0.02,0-0.03,0-0.05,0c-0.43-0.03-0.79-0.1-1.08-0.19c-0.3-0.09-0.54-0.26-0.74-0.51c-0.2-0.25-0.29-0.61-0.29-1.07
				s0.1-0.85,0.29-1.16c0.19-0.31,0.47-0.54,0.85-0.69c0.38-0.15,0.85-0.23,1.42-0.23c0.34,0,0.67,0.03,0.98,0.1
				c0.31,0.06,0.61,0.16,0.89,0.28c0.28,0.12,0.56,0.28,0.82,0.47l-0.78,0.95c-0.33-0.21-0.66-0.37-0.97-0.48s-0.63-0.16-0.94-0.16
				c-0.44,0-0.77,0.08-0.99,0.23c-0.22,0.15-0.33,0.38-0.33,0.68c0,0.18,0.06,0.31,0.19,0.4s0.28,0.15,0.47,0.18
				s0.46,0.06,0.81,0.08c0.03,0,0.05,0.01,0.08,0.01s0.06,0,0.09,0.01c0.01,0,0.03,0,0.04,0s0.03,0,0.04,0.01
				c0.46,0.03,0.85,0.09,1.18,0.18c0.32,0.09,0.6,0.28,0.82,0.55s0.33,0.67,0.33,1.19c0,0.47-0.1,0.87-0.3,1.18
				c-0.2,0.31-0.51,0.54-0.92,0.7s-0.92,0.23-1.54,0.23C135.19,59.06,134.83,59.02,134.49,58.94z"/>
			<path d="M141.05,58.72c-0.41-0.22-0.72-0.55-0.93-0.98c-0.21-0.43-0.32-0.95-0.32-1.55v-1.07c0-0.6,0.11-1.11,0.32-1.53
				c0.21-0.42,0.52-0.75,0.93-0.97c0.41-0.22,0.89-0.33,1.47-0.33s1.06,0.11,1.47,0.33c0.41,0.22,0.72,0.55,0.93,0.97
				c0.21,0.43,0.32,0.94,0.32,1.53v1.09c0,0.6-0.11,1.11-0.32,1.54c-0.21,0.43-0.52,0.75-0.93,0.97s-0.89,0.34-1.47,0.34
				S141.46,58.94,141.05,58.72z M143.57,57.4c0.25-0.28,0.37-0.68,0.37-1.19v-1.09c0-0.51-0.12-0.91-0.37-1.19
				c-0.25-0.28-0.6-0.42-1.05-0.42s-0.8,0.14-1.05,0.42c-0.25,0.28-0.37,0.67-0.37,1.19v1.09c0,0.51,0.12,0.91,0.37,1.19
				c0.25,0.28,0.6,0.43,1.05,0.43S143.32,57.68,143.57,57.4z"/>
			<path d="M147.08,49.73h1.29v1.29h-1.29V49.73z M147.08,52.37h1.29v6.59h-1.29V52.37z"/>
			<path d="M150.34,52.37h1.29v6.59h-1.29V52.37z M153.53,53.62c-0.17-0.07-0.38-0.11-0.6-0.11c-0.41,0-0.73,0.11-0.96,0.34
				c-0.23,0.23-0.34,0.54-0.34,0.94l-0.13-1.27c0.2-0.39,0.46-0.7,0.79-0.92c0.32-0.22,0.68-0.33,1.07-0.33
				c0.3,0,0.57,0.04,0.82,0.13c0.24,0.09,0.46,0.21,0.64,0.38l-0.84,1.14C153.85,53.79,153.71,53.69,153.53,53.62z"/>
			<path d="M157.02,58.71c-0.43-0.23-0.76-0.56-0.99-1.01c-0.23-0.44-0.34-0.98-0.34-1.6v-0.74c0-0.65,0.11-1.21,0.33-1.67
				s0.53-0.81,0.95-1.05c0.41-0.24,0.91-0.36,1.5-0.36c0.55,0,1.02,0.14,1.41,0.41c0.39,0.27,0.69,0.67,0.89,1.19
				s0.31,1.14,0.31,1.87v0.43h-4.44v-1.04h3.21c-0.04-0.54-0.18-0.96-0.42-1.25c-0.24-0.3-0.56-0.45-0.96-0.45
				c-0.49,0-0.87,0.16-1.14,0.48s-0.4,0.78-0.4,1.36v0.84c0,0.55,0.14,0.96,0.43,1.26s0.7,0.44,1.22,0.44
				c0.26,0,0.52-0.05,0.78-0.16s0.49-0.25,0.69-0.44l0.85,0.85c-0.33,0.31-0.69,0.56-1.1,0.73c-0.41,0.17-0.81,0.26-1.23,0.26
				C157.98,59.06,157.46,58.94,157.02,58.71z"/>
			<path d="M167.63,58.55c-0.4-0.34-0.6-0.85-0.6-1.53c0-0.65,0.18-1.14,0.55-1.47c0.37-0.33,0.92-0.49,1.67-0.49h1.87l0.09,1.04
				h-1.96c-0.34,0-0.59,0.08-0.76,0.23c-0.17,0.15-0.25,0.38-0.25,0.69c0,0.33,0.11,0.58,0.33,0.74c0.22,0.16,0.56,0.24,1.01,0.24
				c0.5,0,0.86-0.05,1.11-0.16s0.37-0.27,0.37-0.5l0.13,0.93c-0.12,0.18-0.26,0.32-0.42,0.44s-0.36,0.2-0.58,0.26
				c-0.22,0.06-0.47,0.09-0.74,0.09C168.64,59.06,168.04,58.89,167.63,58.55z M171.07,54.78c0-0.43-0.12-0.77-0.35-1.01
				c-0.23-0.24-0.56-0.36-0.98-0.36c-0.26,0-0.52,0.04-0.77,0.12s-0.48,0.19-0.67,0.34l-0.95-0.65c0.25-0.3,0.58-0.53,0.99-0.7
				c0.41-0.17,0.86-0.25,1.36-0.25c0.54,0,1.01,0.1,1.4,0.29c0.39,0.19,0.69,0.47,0.89,0.84c0.2,0.37,0.3,0.81,0.3,1.32v4.23h-1.23
				V54.78z M167.67,48.97l0.93-0.77l1.82,2.25l-0.81,0.65L167.67,48.97z"/>
			<path d="M180.05,57.26c0,0.16,0.04,0.28,0.1,0.37c0.07,0.09,0.17,0.13,0.3,0.13h0.61v1.23h-0.76c-0.49,0-0.87-0.15-1.14-0.46
				s-0.4-0.73-0.4-1.29v-7.52h1.29V57.26z"/>
			<path d="M182.81,58.55c-0.4-0.34-0.6-0.85-0.6-1.53c0-0.65,0.18-1.14,0.55-1.47c0.37-0.33,0.92-0.49,1.67-0.49h1.87l0.09,1.04
				h-1.96c-0.34,0-0.59,0.08-0.76,0.23c-0.17,0.15-0.25,0.38-0.25,0.69c0,0.33,0.11,0.58,0.33,0.74c0.22,0.16,0.56,0.24,1.01,0.24
				c0.5,0,0.86-0.05,1.11-0.16s0.37-0.27,0.37-0.5l0.13,0.93c-0.12,0.18-0.26,0.32-0.42,0.44s-0.36,0.2-0.58,0.26
				c-0.22,0.06-0.47,0.09-0.74,0.09C183.82,59.06,183.21,58.89,182.81,58.55z M186.24,54.78c0-0.43-0.12-0.77-0.35-1.01
				c-0.23-0.24-0.56-0.36-0.98-0.36c-0.26,0-0.52,0.04-0.77,0.12s-0.48,0.19-0.67,0.34l-0.95-0.65c0.25-0.3,0.58-0.53,0.99-0.7
				c0.41-0.17,0.86-0.25,1.36-0.25c0.54,0,1.01,0.1,1.4,0.29c0.39,0.19,0.69,0.47,0.89,0.84c0.2,0.37,0.3,0.81,0.3,1.32v4.23h-1.23
				V54.78z"/>
			<path d="M193.43,52.37h3.29v1.1h-3.29V52.37z M194.12,51.48c0-0.58,0.13-1.02,0.4-1.31c0.27-0.29,0.68-0.43,1.24-0.43h0.95v1.23
				h-0.93c-0.12,0-0.21,0.05-0.28,0.14c-0.06,0.09-0.09,0.21-0.09,0.36v7.5h-1.29V51.48z"/>
			<path d="M199.11,58.72c-0.41-0.22-0.72-0.55-0.93-0.98c-0.21-0.43-0.32-0.95-0.32-1.55v-1.07c0-0.6,0.11-1.11,0.32-1.53
				c0.21-0.42,0.52-0.75,0.93-0.97c0.41-0.22,0.89-0.33,1.47-0.33s1.06,0.11,1.47,0.33c0.41,0.22,0.72,0.55,0.93,0.97
				c0.21,0.43,0.32,0.94,0.32,1.53v1.09c0,0.6-0.11,1.11-0.32,1.54c-0.21,0.43-0.52,0.75-0.93,0.97s-0.89,0.34-1.47,0.34
				S199.52,58.94,199.11,58.72z M201.63,57.4c0.25-0.28,0.37-0.68,0.37-1.19v-1.09c0-0.51-0.12-0.91-0.37-1.19
				c-0.25-0.28-0.6-0.42-1.05-0.42s-0.8,0.14-1.05,0.42c-0.25,0.28-0.37,0.67-0.37,1.19v1.09c0,0.51,0.12,0.91,0.37,1.19
				c0.25,0.28,0.6,0.43,1.05,0.43S201.38,57.68,201.63,57.4z"/>
			<path d="M205.14,49.73h1.29v1.29h-1.29V49.73z M205.14,52.37h1.29v6.59h-1.29V52.37z"/>
			<path d="M209.63,58.94c-0.34-0.08-0.66-0.19-0.96-0.34s-0.57-0.34-0.82-0.57l0.77-0.95c0.36,0.27,0.71,0.47,1.06,0.61
				c0.35,0.14,0.7,0.2,1.04,0.2c0.51,0,0.9-0.08,1.15-0.24c0.26-0.16,0.38-0.4,0.38-0.71c0-0.21-0.07-0.37-0.21-0.48
				s-0.31-0.18-0.52-0.21c-0.21-0.04-0.5-0.07-0.88-0.1c-0.03,0-0.07,0-0.11,0c-0.04,0-0.07-0.01-0.11-0.01c-0.02,0-0.03,0-0.05,0
				c-0.02,0-0.03,0-0.05,0c-0.43-0.03-0.79-0.1-1.08-0.19c-0.3-0.09-0.54-0.26-0.74-0.51c-0.2-0.25-0.29-0.61-0.29-1.07
				s0.1-0.85,0.29-1.16c0.19-0.31,0.47-0.54,0.85-0.69c0.38-0.15,0.85-0.23,1.42-0.23c0.34,0,0.67,0.03,0.98,0.1
				c0.31,0.06,0.61,0.16,0.89,0.28c0.28,0.12,0.56,0.28,0.82,0.47l-0.78,0.95c-0.33-0.21-0.66-0.37-0.97-0.48s-0.63-0.16-0.94-0.16
				c-0.44,0-0.77,0.08-0.99,0.23c-0.22,0.15-0.33,0.38-0.33,0.68c0,0.18,0.06,0.31,0.19,0.4s0.28,0.15,0.47,0.18
				s0.46,0.06,0.81,0.08c0.03,0,0.05,0.01,0.08,0.01s0.06,0,0.09,0.01c0.01,0,0.03,0,0.04,0s0.03,0,0.04,0.01
				c0.46,0.03,0.85,0.09,1.18,0.18c0.32,0.09,0.6,0.28,0.82,0.55s0.33,0.67,0.33,1.19c0,0.47-0.1,0.87-0.3,1.18
				c-0.2,0.31-0.51,0.54-0.92,0.7s-0.92,0.23-1.54,0.23C210.34,59.06,209.97,59.02,209.63,58.94z"/>
			<path d="M219.92,58.55c-0.4-0.34-0.6-0.85-0.6-1.53c0-0.65,0.18-1.14,0.55-1.47c0.37-0.33,0.92-0.49,1.67-0.49h1.87l0.09,1.04
				h-1.96c-0.34,0-0.59,0.08-0.76,0.23c-0.17,0.15-0.25,0.38-0.25,0.69c0,0.33,0.11,0.58,0.33,0.74c0.22,0.16,0.56,0.24,1.01,0.24
				c0.5,0,0.86-0.05,1.11-0.16s0.37-0.27,0.37-0.5l0.13,0.93c-0.12,0.18-0.26,0.32-0.42,0.44s-0.36,0.2-0.58,0.26
				c-0.22,0.06-0.47,0.09-0.74,0.09C220.93,59.06,220.32,58.89,219.92,58.55z M223.35,54.78c0-0.43-0.12-0.77-0.35-1.01
				c-0.23-0.24-0.56-0.36-0.98-0.36c-0.26,0-0.52,0.04-0.77,0.12s-0.48,0.19-0.67,0.34l-0.95-0.65c0.25-0.3,0.58-0.53,0.99-0.7
				c0.41-0.17,0.86-0.25,1.36-0.25c0.54,0,1.01,0.1,1.4,0.29c0.39,0.19,0.69,0.47,0.89,0.84c0.2,0.37,0.3,0.81,0.3,1.32v4.23h-1.23
				V54.78z"/>
			<path d="M226.55,52.37h1.29v6.59h-1.29V52.37z M230.49,54.97c0-0.47-0.11-0.83-0.34-1.08s-0.55-0.38-0.97-0.38
				c-0.42,0-0.75,0.11-0.98,0.34s-0.35,0.54-0.35,0.95l-0.13-1.27c0.2-0.4,0.47-0.7,0.8-0.92s0.69-0.32,1.09-0.32
				c0.46,0,0.85,0.1,1.18,0.31c0.33,0.21,0.57,0.52,0.75,0.92c0.17,0.4,0.26,0.89,0.26,1.45v4h-1.29V54.97z M234.42,54.97
				c0-0.47-0.12-0.83-0.36-1.08c-0.24-0.25-0.58-0.38-1.02-0.38c-0.4,0-0.71,0.12-0.93,0.37s-0.33,0.59-0.33,1.04l-0.26-1.27
				c0.21-0.44,0.48-0.77,0.82-1.01c0.34-0.24,0.72-0.36,1.13-0.36c0.47,0,0.88,0.1,1.22,0.31c0.34,0.21,0.59,0.52,0.77,0.92
				s0.26,0.89,0.26,1.45v4h-1.29V54.97z"/>
			<path d="M238.98,56.38c0,0.46,0.12,0.82,0.35,1.07c0.23,0.25,0.57,0.38,0.99,0.38c0.42,0,0.75-0.11,0.98-0.34
				c0.23-0.22,0.35-0.54,0.35-0.96l0.09,1.38c-0.14,0.33-0.36,0.6-0.66,0.82s-0.68,0.33-1.12,0.33c-0.73,0-1.29-0.23-1.69-0.7
				c-0.4-0.47-0.59-1.13-0.59-1.98v-4.01h1.29V56.38z M241.66,52.37h1.29v6.59h-1.29V52.37z"/>
			<path d="M249.18,55.04v1.23h-4.27v-1.23H249.18z"/>
			<path d="M9.38,74.54c-0.34-0.08-0.66-0.19-0.96-0.34s-0.57-0.34-0.82-0.57l0.77-0.95c0.36,0.27,0.71,0.47,1.06,0.61
				c0.35,0.13,0.7,0.2,1.04,0.2c0.51,0,0.9-0.08,1.15-0.24c0.26-0.16,0.38-0.4,0.38-0.71c0-0.21-0.07-0.37-0.21-0.48
				c-0.14-0.11-0.31-0.18-0.52-0.21c-0.21-0.04-0.5-0.07-0.88-0.1c-0.03,0-0.07,0-0.11,0c-0.04,0-0.07-0.01-0.11-0.01
				c-0.02,0-0.03,0-0.05,0c-0.02,0-0.03,0-0.05,0c-0.43-0.03-0.79-0.1-1.08-0.19c-0.3-0.09-0.54-0.26-0.74-0.51
				c-0.2-0.25-0.29-0.61-0.29-1.07s0.1-0.85,0.29-1.16c0.19-0.31,0.47-0.54,0.85-0.69c0.38-0.15,0.85-0.23,1.42-0.23
				c0.34,0,0.67,0.03,0.98,0.1c0.31,0.06,0.61,0.16,0.89,0.28c0.28,0.12,0.56,0.28,0.82,0.47l-0.78,0.95
				c-0.33-0.21-0.66-0.37-0.97-0.48s-0.63-0.16-0.94-0.16c-0.44,0-0.77,0.08-0.99,0.23c-0.22,0.15-0.33,0.38-0.33,0.68
				c0,0.18,0.06,0.31,0.19,0.4s0.28,0.15,0.47,0.18s0.46,0.06,0.81,0.08c0.03,0,0.05,0.01,0.08,0.01s0.06,0,0.09,0.01
				c0.01,0,0.03,0,0.04,0s0.03,0,0.04,0.01c0.46,0.03,0.85,0.09,1.18,0.18c0.32,0.09,0.6,0.28,0.82,0.55s0.33,0.67,0.33,1.19
				c0,0.47-0.1,0.87-0.3,1.18c-0.2,0.31-0.51,0.54-0.92,0.7c-0.41,0.16-0.92,0.23-1.54,0.23C10.09,74.66,9.73,74.62,9.38,74.54z"/>
			<path d="M15.18,74.15c-0.4-0.34-0.6-0.85-0.6-1.53c0-0.65,0.18-1.14,0.55-1.47c0.37-0.33,0.92-0.49,1.67-0.49h1.87l0.09,1.04
				H16.8c-0.34,0-0.59,0.08-0.76,0.23c-0.17,0.15-0.25,0.38-0.25,0.69c0,0.33,0.11,0.58,0.33,0.74c0.22,0.16,0.56,0.24,1.01,0.24
				c0.5,0,0.86-0.05,1.11-0.16c0.24-0.11,0.37-0.27,0.37-0.5l0.13,0.93c-0.12,0.18-0.26,0.32-0.42,0.44s-0.36,0.2-0.58,0.26
				c-0.22,0.06-0.47,0.08-0.74,0.08C16.19,74.66,15.58,74.49,15.18,74.15z M18.61,70.38c0-0.43-0.12-0.77-0.35-1.01
				c-0.23-0.24-0.56-0.36-0.98-0.36c-0.26,0-0.52,0.04-0.77,0.12s-0.48,0.19-0.67,0.34l-0.95-0.65c0.25-0.3,0.58-0.53,0.99-0.7
				c0.41-0.17,0.86-0.25,1.36-0.25c0.54,0,1.01,0.1,1.4,0.29c0.39,0.19,0.69,0.47,0.89,0.84c0.2,0.37,0.3,0.81,0.3,1.32v4.23h-1.23
				V70.38z"/>
			<path d="M21.81,67.97h1.29v6.59h-1.29V67.97z M25.81,70.57c0-0.47-0.12-0.83-0.36-1.08c-0.24-0.25-0.58-0.38-1.02-0.38
				c-0.42,0-0.75,0.11-0.98,0.34s-0.35,0.54-0.35,0.95l-0.13-1.27c0.2-0.4,0.47-0.7,0.8-0.92s0.69-0.32,1.09-0.32
				c0.71,0,1.27,0.23,1.66,0.7c0.39,0.47,0.59,1.13,0.59,1.98v4h-1.29V70.57z"/>
			<path d="M28.56,67.97h2.97v1.17h-2.97V67.97z M29.61,74.15c-0.25-0.29-0.37-0.73-0.37-1.3v-6.79h1.29v6.81
				c0,0.16,0.03,0.28,0.09,0.37s0.16,0.13,0.28,0.13h0.62v1.23h-0.75C30.25,74.59,29.86,74.45,29.61,74.15z"/>
			<path d="M39.78,74.31c-0.43-0.23-0.76-0.56-0.99-1.01s-0.34-0.98-0.34-1.6v-0.74c0-0.65,0.11-1.21,0.33-1.67s0.53-0.81,0.95-1.05
				c0.41-0.24,0.91-0.36,1.5-0.36c0.55,0,1.02,0.14,1.41,0.41c0.39,0.27,0.69,0.67,0.89,1.19s0.31,1.14,0.31,1.87v0.43h-4.44v-1.04
				h3.21c-0.04-0.54-0.18-0.96-0.42-1.25c-0.24-0.3-0.56-0.45-0.96-0.45c-0.49,0-0.87,0.16-1.14,0.48s-0.4,0.78-0.4,1.36v0.84
				c0,0.55,0.14,0.97,0.43,1.26s0.7,0.44,1.22,0.44c0.26,0,0.52-0.05,0.78-0.16c0.26-0.11,0.49-0.25,0.69-0.44l0.85,0.85
				c-0.33,0.31-0.69,0.56-1.1,0.73c-0.41,0.17-0.81,0.26-1.23,0.26C40.73,74.66,40.21,74.54,39.78,74.31z"/>
			<path d="M45.1,67.97h2.97v1.17H45.1V67.97z M46.16,74.15c-0.25-0.29-0.37-0.73-0.37-1.3v-6.79h1.29v6.81
				c0,0.16,0.03,0.28,0.09,0.37s0.16,0.13,0.28,0.13h0.62v1.23h-0.75C46.79,74.59,46.4,74.45,46.16,74.15z"/>
			<path d="M56.48,71.98c0,0.46,0.12,0.82,0.35,1.07c0.23,0.25,0.57,0.38,0.99,0.38c0.42,0,0.75-0.11,0.98-0.34
				c0.23-0.22,0.35-0.54,0.35-0.96l0.09,1.38c-0.14,0.33-0.36,0.6-0.66,0.82c-0.3,0.22-0.68,0.33-1.12,0.33
				c-0.73,0-1.29-0.23-1.69-0.7s-0.59-1.13-0.59-1.98v-4.01h1.29V71.98z M59.16,67.97h1.29v6.59h-1.29V67.97z"/>
			<path d="M61.91,67.97h2.97v1.17h-2.97V67.97z M62.96,74.15c-0.25-0.29-0.37-0.73-0.37-1.3v-6.79h1.29v6.81
				c0,0.16,0.03,0.28,0.09,0.37s0.16,0.13,0.28,0.13h0.62v1.23h-0.75C63.59,74.59,63.2,74.45,62.96,74.15z"/>
			<path d="M66.65,65.33h1.29v1.29h-1.29V65.33z M66.65,67.97h1.29v6.59h-1.29V67.97z"/>
			<path d="M71.21,72.86c0,0.16,0.04,0.28,0.1,0.37c0.07,0.09,0.17,0.13,0.3,0.13h0.61v1.23h-0.76c-0.49,0-0.87-0.15-1.14-0.46
				s-0.4-0.73-0.4-1.29v-7.52h1.29V72.86z"/>
			<path d="M74.82,74.31c-0.43-0.23-0.76-0.56-0.99-1.01s-0.34-0.98-0.34-1.6v-0.74c0-0.65,0.11-1.21,0.33-1.67s0.53-0.81,0.95-1.05
				c0.41-0.24,0.91-0.36,1.5-0.36c0.55,0,1.02,0.14,1.41,0.41c0.39,0.27,0.69,0.67,0.89,1.19s0.31,1.14,0.31,1.87v0.43h-4.44v-1.04
				h3.21c-0.04-0.54-0.18-0.96-0.42-1.25c-0.24-0.3-0.56-0.45-0.96-0.45c-0.49,0-0.87,0.16-1.14,0.48s-0.4,0.78-0.4,1.36v0.84
				c0,0.55,0.14,0.97,0.43,1.26s0.7,0.44,1.22,0.44c0.26,0,0.52-0.05,0.78-0.16c0.26-0.11,0.49-0.25,0.69-0.44l0.85,0.85
				c-0.33,0.31-0.69,0.56-1.1,0.73c-0.41,0.17-0.81,0.26-1.23,0.26C75.77,74.66,75.25,74.54,74.82,74.31z"/>
			<path d="M80.43,73.2h1.36v2.06l-1.36,1.41V73.2z"/>
			<path d="M89.78,74.36c-0.34-0.21-0.6-0.52-0.78-0.92c-0.18-0.4-0.27-0.88-0.27-1.45v-1.45c0-0.57,0.09-1.05,0.26-1.45
				c0.17-0.4,0.43-0.71,0.76-0.92c0.33-0.21,0.73-0.31,1.2-0.31c0.39,0,0.75,0.1,1.07,0.3c0.32,0.2,0.58,0.49,0.78,0.86l-0.13,1.35
				c0-0.28-0.05-0.52-0.15-0.72s-0.25-0.35-0.44-0.45c-0.19-0.1-0.43-0.16-0.7-0.16c-0.43,0-0.76,0.13-0.99,0.4
				c-0.24,0.27-0.35,0.64-0.35,1.12V72c0,0.48,0.12,0.85,0.35,1.11c0.23,0.26,0.57,0.39,0.99,0.39c0.28,0,0.51-0.05,0.7-0.16
				c0.19-0.11,0.34-0.26,0.44-0.47s0.15-0.45,0.15-0.73l0.09,1.39c-0.13,0.33-0.35,0.6-0.64,0.82c-0.3,0.22-0.67,0.33-1.1,0.33
				C90.53,74.68,90.12,74.57,89.78,74.36z M92.67,67.97h1.29v9.27h-1.29V67.97z"/>
			<path d="M97.23,71.98c0,0.46,0.12,0.82,0.35,1.07c0.23,0.25,0.57,0.38,0.99,0.38c0.42,0,0.75-0.11,0.98-0.34
				c0.23-0.22,0.35-0.54,0.35-0.96l0.09,1.38c-0.14,0.33-0.36,0.6-0.66,0.82c-0.3,0.22-0.68,0.33-1.12,0.33
				c-0.73,0-1.29-0.23-1.69-0.7s-0.59-1.13-0.59-1.98v-4.01h1.29V71.98z M99.91,67.97h1.29v6.59h-1.29V67.97z"/>
			<path d="M103.17,65.33h1.29v1.29h-1.29V65.33z M103.17,67.97h1.29v6.59h-1.29V67.97z"/>
			<path d="M111.76,67.97h1.29v9.27h-1.29V67.97z M113.64,74.36c-0.3-0.2-0.53-0.47-0.67-0.83l0.09-1.38c0,0.28,0.05,0.52,0.15,0.72
				c0.1,0.2,0.25,0.35,0.44,0.46c0.19,0.11,0.43,0.16,0.7,0.16c0.43,0,0.76-0.13,0.99-0.39c0.24-0.26,0.35-0.63,0.35-1.1v-1.43
				c0-0.48-0.12-0.86-0.35-1.12c-0.23-0.27-0.57-0.4-0.99-0.4c-0.28,0-0.51,0.05-0.7,0.15s-0.34,0.25-0.44,0.45
				c-0.1,0.2-0.15,0.43-0.15,0.71l-0.13-1.27c0.2-0.39,0.46-0.68,0.78-0.89c0.32-0.21,0.68-0.31,1.07-0.31c0.46,0,0.86,0.1,1.2,0.31
				c0.33,0.21,0.58,0.52,0.76,0.92c0.17,0.4,0.26,0.89,0.26,1.45V72c0,0.56-0.09,1.04-0.27,1.44c-0.18,0.4-0.44,0.7-0.78,0.91
				c-0.34,0.21-0.75,0.31-1.23,0.31C114.3,74.66,113.94,74.56,113.64,74.36z"/>
			<path d="M119.97,74.31c-0.43-0.23-0.76-0.56-0.99-1.01s-0.34-0.98-0.34-1.6v-0.74c0-0.65,0.11-1.21,0.33-1.67
				s0.53-0.81,0.95-1.05c0.41-0.24,0.91-0.36,1.5-0.36c0.55,0,1.02,0.14,1.41,0.41c0.39,0.27,0.69,0.67,0.89,1.19
				s0.31,1.14,0.31,1.87v0.43h-4.44v-1.04h3.21c-0.04-0.54-0.18-0.96-0.42-1.25c-0.24-0.3-0.56-0.45-0.96-0.45
				c-0.49,0-0.87,0.16-1.14,0.48s-0.4,0.78-0.4,1.36v0.84c0,0.55,0.14,0.97,0.43,1.26s0.7,0.44,1.22,0.44
				c0.26,0,0.52-0.05,0.78-0.16c0.26-0.11,0.49-0.25,0.69-0.44l0.85,0.85c-0.33,0.31-0.69,0.56-1.1,0.73
				c-0.41,0.17-0.81,0.26-1.23,0.26C120.92,74.66,120.4,74.54,119.97,74.31z"/>
			<path d="M125.8,67.97h1.29v6.59h-1.29V67.97z M128.99,69.22c-0.17-0.07-0.38-0.11-0.6-0.11c-0.41,0-0.73,0.11-0.96,0.34
				c-0.23,0.23-0.34,0.54-0.34,0.94l-0.13-1.27c0.2-0.39,0.46-0.7,0.79-0.92c0.32-0.22,0.68-0.33,1.07-0.33
				c0.3,0,0.57,0.04,0.81,0.13c0.24,0.09,0.46,0.21,0.64,0.38l-0.84,1.14C129.31,69.39,129.17,69.29,128.99,69.22z"/>
			<path d="M131.35,67.97h1.29v6.59h-1.29V67.97z M135.28,70.57c0-0.47-0.11-0.83-0.34-1.08s-0.55-0.38-0.97-0.38
				c-0.42,0-0.75,0.11-0.98,0.34s-0.35,0.54-0.35,0.95l-0.13-1.27c0.2-0.4,0.47-0.7,0.8-0.92s0.69-0.32,1.09-0.32
				c0.46,0,0.85,0.1,1.18,0.31c0.33,0.21,0.57,0.52,0.75,0.92c0.17,0.4,0.26,0.89,0.26,1.45v4h-1.29V70.57z M139.22,70.57
				c0-0.47-0.12-0.83-0.36-1.08c-0.24-0.25-0.58-0.38-1.02-0.38c-0.4,0-0.71,0.12-0.93,0.37s-0.33,0.59-0.33,1.04l-0.26-1.27
				c0.21-0.44,0.48-0.77,0.82-1.01c0.34-0.24,0.72-0.36,1.13-0.36c0.47,0,0.88,0.1,1.22,0.31c0.34,0.21,0.59,0.52,0.77,0.92
				s0.26,0.89,0.26,1.45v4h-1.29V70.57z"/>
			<path d="M143.62,74.31c-0.43-0.23-0.76-0.56-0.99-1.01s-0.34-0.98-0.34-1.6v-0.74c0-0.65,0.11-1.21,0.33-1.67
				s0.53-0.81,0.95-1.05c0.41-0.24,0.91-0.36,1.5-0.36c0.55,0,1.02,0.14,1.41,0.41c0.39,0.27,0.69,0.67,0.89,1.19
				s0.31,1.14,0.31,1.87v0.43h-4.44v-1.04h3.21c-0.04-0.54-0.18-0.96-0.42-1.25c-0.24-0.3-0.56-0.45-0.96-0.45
				c-0.49,0-0.87,0.16-1.14,0.48s-0.4,0.78-0.4,1.36v0.84c0,0.55,0.14,0.97,0.43,1.26s0.7,0.44,1.22,0.44
				c0.26,0,0.52-0.05,0.78-0.16c0.26-0.11,0.49-0.25,0.69-0.44l0.85,0.85c-0.33,0.31-0.69,0.56-1.1,0.73
				c-0.41,0.17-0.81,0.26-1.23,0.26C144.57,74.66,144.05,74.54,143.62,74.31z"/>
			<path d="M148.94,67.97h2.97v1.17h-2.97V67.97z M149.99,74.15c-0.25-0.29-0.37-0.73-0.37-1.3v-6.79h1.29v6.81
				c0,0.16,0.03,0.28,0.09,0.37s0.16,0.13,0.28,0.13h0.62v1.23h-0.75C150.63,74.59,150.24,74.45,149.99,74.15z"/>
			<path d="M159.31,74.15c-0.4-0.34-0.6-0.85-0.6-1.53c0-0.65,0.18-1.14,0.55-1.47c0.37-0.33,0.92-0.49,1.67-0.49h1.87l0.09,1.04
				h-1.96c-0.34,0-0.59,0.08-0.76,0.23c-0.17,0.15-0.25,0.38-0.25,0.69c0,0.33,0.11,0.58,0.33,0.74c0.22,0.16,0.56,0.24,1.01,0.24
				c0.5,0,0.86-0.05,1.11-0.16c0.24-0.11,0.37-0.27,0.37-0.5l0.13,0.93c-0.12,0.18-0.26,0.32-0.42,0.44s-0.36,0.2-0.58,0.26
				c-0.22,0.06-0.47,0.08-0.74,0.08C160.32,74.66,159.71,74.49,159.31,74.15z M162.74,70.38c0-0.43-0.12-0.77-0.35-1.01
				c-0.23-0.24-0.56-0.36-0.98-0.36c-0.26,0-0.52,0.04-0.77,0.12s-0.48,0.19-0.67,0.34l-0.95-0.65c0.25-0.3,0.58-0.53,0.99-0.7
				c0.41-0.17,0.86-0.25,1.36-0.25c0.54,0,1.01,0.1,1.4,0.29c0.39,0.19,0.69,0.47,0.89,0.84c0.2,0.37,0.3,0.81,0.3,1.32v4.23h-1.23
				V70.38z M159.35,64.57l0.93-0.77l1.82,2.25l-0.81,0.65L159.35,64.57z"/>
			<path d="M175.15,67.97h1.35l-2.48,6.59h-0.98l-2.48-6.59h1.35l1.61,4.7L175.15,67.97z"/>
			<path d="M178.83,74.32c-0.41-0.22-0.72-0.55-0.93-0.98c-0.21-0.43-0.32-0.95-0.32-1.55v-1.07c0-0.6,0.11-1.11,0.32-1.53
				c0.21-0.42,0.52-0.75,0.93-0.97c0.41-0.22,0.89-0.33,1.47-0.33s1.06,0.11,1.47,0.33c0.41,0.22,0.72,0.55,0.93,0.97
				c0.21,0.43,0.32,0.94,0.32,1.53v1.09c0,0.6-0.11,1.11-0.32,1.54c-0.21,0.43-0.52,0.75-0.93,0.97c-0.41,0.22-0.89,0.34-1.47,0.34
				S179.24,74.54,178.83,74.32z M181.35,73c0.25-0.28,0.37-0.68,0.37-1.19v-1.09c0-0.51-0.12-0.91-0.37-1.19
				c-0.25-0.28-0.6-0.42-1.05-0.42s-0.8,0.14-1.05,0.42c-0.25,0.28-0.37,0.67-0.37,1.19v1.09c0,0.51,0.12,0.91,0.37,1.19
				c0.25,0.28,0.6,0.42,1.05,0.42S181.1,73.28,181.35,73z"/>
			<path d="M184.35,67.97h2.97v1.17h-2.97V67.97z M185.4,74.15c-0.25-0.29-0.37-0.73-0.37-1.3v-6.79h1.29v6.81
				c0,0.16,0.03,0.28,0.09,0.37s0.16,0.13,0.28,0.13h0.62v1.23h-0.75C186.04,74.59,185.65,74.45,185.4,74.15z"/>
			<path d="M189.1,67.97h1.29v6.59h-1.29V67.97z M192.29,69.22c-0.17-0.07-0.38-0.11-0.6-0.11c-0.41,0-0.73,0.11-0.96,0.34
				c-0.23,0.23-0.34,0.54-0.34,0.94l-0.13-1.27c0.2-0.39,0.46-0.7,0.79-0.92c0.32-0.22,0.68-0.33,1.07-0.33
				c0.3,0,0.57,0.04,0.82,0.13c0.24,0.09,0.46,0.21,0.64,0.38l-0.84,1.14C192.61,69.39,192.46,69.29,192.29,69.22z"/>
			<path d="M195.78,74.31c-0.43-0.23-0.76-0.56-0.99-1.01s-0.34-0.98-0.34-1.6v-0.74c0-0.65,0.11-1.21,0.33-1.67
				s0.53-0.81,0.95-1.05c0.41-0.24,0.91-0.36,1.5-0.36c0.55,0,1.02,0.14,1.41,0.41c0.39,0.27,0.69,0.67,0.89,1.19
				s0.31,1.14,0.31,1.87v0.43h-4.44v-1.04h3.21c-0.04-0.54-0.18-0.96-0.42-1.25c-0.24-0.3-0.56-0.45-0.96-0.45
				c-0.49,0-0.87,0.16-1.14,0.48s-0.4,0.78-0.4,1.36v0.84c0,0.55,0.14,0.97,0.43,1.26s0.7,0.44,1.22,0.44
				c0.26,0,0.52-0.05,0.78-0.16c0.26-0.11,0.49-0.25,0.69-0.44l0.85,0.85c-0.33,0.31-0.69,0.56-1.1,0.73
				c-0.41,0.17-0.81,0.26-1.23,0.26C196.73,74.66,196.21,74.54,195.78,74.31z"/>
			<path d="M208.07,74.32c-0.42-0.22-0.75-0.55-0.97-0.98c-0.22-0.43-0.34-0.94-0.34-1.55v-1.09c0-0.6,0.11-1.11,0.34-1.53
				c0.22-0.42,0.55-0.75,0.97-0.97c0.43-0.22,0.94-0.33,1.54-0.33c0.34,0,0.67,0.04,0.97,0.12c0.3,0.08,0.57,0.2,0.82,0.36
				s0.44,0.35,0.6,0.57l-0.93,0.84c-0.19-0.21-0.4-0.37-0.65-0.49c-0.25-0.11-0.51-0.17-0.78-0.17c-0.5,0-0.89,0.14-1.16,0.42
				c-0.28,0.28-0.41,0.67-0.41,1.18v1.09c0,0.52,0.14,0.92,0.41,1.21c0.27,0.28,0.66,0.42,1.17,0.42c0.28,0,0.54-0.06,0.79-0.18
				c0.25-0.12,0.47-0.3,0.65-0.52l0.93,0.9c-0.17,0.22-0.37,0.41-0.61,0.56c-0.24,0.15-0.51,0.27-0.82,0.35
				c-0.3,0.08-0.62,0.12-0.96,0.12C209,74.66,208.49,74.54,208.07,74.32z"/>
			<path d="M213.42,65.33h1.29v9.23h-1.29V65.33z M217.42,70.57c0-0.47-0.12-0.83-0.36-1.08c-0.24-0.25-0.58-0.38-1.02-0.38
				c-0.42,0-0.75,0.11-0.98,0.33s-0.35,0.53-0.35,0.93l-0.13-1.27c0.2-0.39,0.47-0.69,0.8-0.9c0.33-0.21,0.69-0.32,1.09-0.32
				c0.71,0,1.27,0.23,1.66,0.7c0.39,0.47,0.59,1.13,0.59,1.98v4h-1.29V70.57z"/>
			<path d="M220.97,74.15c-0.4-0.34-0.6-0.85-0.6-1.53c0-0.65,0.18-1.14,0.55-1.47c0.37-0.33,0.92-0.49,1.67-0.49h1.87l0.09,1.04
				h-1.96c-0.34,0-0.59,0.08-0.76,0.23c-0.17,0.15-0.25,0.38-0.25,0.69c0,0.33,0.11,0.58,0.33,0.74c0.22,0.16,0.56,0.24,1.01,0.24
				c0.5,0,0.86-0.05,1.11-0.16c0.24-0.11,0.37-0.27,0.37-0.5l0.13,0.93c-0.12,0.18-0.26,0.32-0.42,0.44s-0.36,0.2-0.58,0.26
				c-0.22,0.06-0.47,0.08-0.74,0.08C221.98,74.66,221.37,74.49,220.97,74.15z M224.4,70.38c0-0.43-0.12-0.77-0.35-1.01
				c-0.23-0.24-0.56-0.36-0.98-0.36c-0.26,0-0.52,0.04-0.77,0.12s-0.48,0.19-0.67,0.34l-0.95-0.65c0.25-0.3,0.58-0.53,0.99-0.7
				c0.41-0.17,0.86-0.25,1.36-0.25c0.54,0,1.01,0.1,1.4,0.29c0.39,0.19,0.69,0.47,0.89,0.84c0.2,0.37,0.3,0.81,0.3,1.32v4.23h-1.23
				V70.38z"/>
			<path d="M227.09,67.97h2.97v1.17h-2.97V67.97z M228.14,74.15c-0.25-0.29-0.37-0.73-0.37-1.3v-6.79h1.29v6.81
				c0,0.16,0.03,0.28,0.09,0.37s0.16,0.13,0.28,0.13h0.62v1.23h-0.75C228.78,74.59,228.39,74.45,228.14,74.15z"/>
			<path d="M238.03,74.36c-0.34-0.21-0.6-0.52-0.78-0.92c-0.18-0.4-0.27-0.88-0.27-1.45v-1.45c0-0.57,0.09-1.05,0.26-1.45
				c0.17-0.4,0.43-0.71,0.76-0.92c0.33-0.21,0.73-0.31,1.2-0.31c0.39,0,0.75,0.1,1.07,0.3c0.32,0.2,0.58,0.49,0.78,0.86l-0.13,1.35
				c0-0.28-0.05-0.52-0.15-0.72s-0.25-0.35-0.44-0.45c-0.19-0.1-0.43-0.16-0.7-0.16c-0.43,0-0.76,0.13-0.99,0.4
				c-0.24,0.27-0.35,0.64-0.35,1.12V72c0,0.48,0.12,0.85,0.35,1.11c0.23,0.26,0.57,0.39,0.99,0.39c0.28,0,0.51-0.05,0.7-0.16
				c0.19-0.11,0.34-0.26,0.44-0.47s0.15-0.45,0.15-0.73l0.09,1.39c-0.13,0.33-0.35,0.6-0.64,0.82c-0.3,0.22-0.67,0.33-1.1,0.33
				C238.78,74.68,238.37,74.57,238.03,74.36z M240.92,65.33h1.29v9.23h-1.29V65.33z"/>
			<path d="M245.32,74.31c-0.43-0.23-0.76-0.56-0.99-1.01s-0.34-0.98-0.34-1.6v-0.74c0-0.65,0.11-1.21,0.33-1.67
				s0.53-0.81,0.95-1.05c0.41-0.24,0.91-0.36,1.5-0.36c0.55,0,1.02,0.14,1.41,0.41c0.39,0.27,0.69,0.67,0.89,1.19
				s0.31,1.14,0.31,1.87v0.43h-4.44v-1.04h3.21c-0.04-0.54-0.18-0.96-0.42-1.25c-0.24-0.3-0.56-0.45-0.96-0.45
				c-0.49,0-0.87,0.16-1.14,0.48s-0.4,0.78-0.4,1.36v0.84c0,0.55,0.14,0.97,0.43,1.26s0.7,0.44,1.22,0.44
				c0.26,0,0.52-0.05,0.78-0.16c0.26-0.11,0.49-0.25,0.69-0.44l0.85,0.85c-0.33,0.31-0.69,0.56-1.1,0.73
				c-0.41,0.17-0.81,0.26-1.23,0.26C246.27,74.66,245.75,74.54,245.32,74.31z"/>
			<path d="M7.64,83.57h3.29v1.1H7.64V83.57z M8.34,82.68c0-0.58,0.13-1.02,0.4-1.31c0.27-0.29,0.68-0.43,1.24-0.43h0.95v1.23h-0.93
				c-0.12,0-0.21,0.05-0.28,0.14c-0.06,0.09-0.09,0.21-0.09,0.36v7.5H8.34V82.68z"/>
			<path d="M12.55,89.75c-0.4-0.34-0.6-0.85-0.6-1.53c0-0.65,0.18-1.14,0.55-1.47c0.37-0.33,0.92-0.49,1.67-0.49h1.87l0.09,1.04
				h-1.96c-0.34,0-0.59,0.08-0.76,0.23s-0.25,0.38-0.25,0.69c0,0.33,0.11,0.58,0.33,0.74c0.22,0.16,0.56,0.24,1.01,0.24
				c0.5,0,0.86-0.05,1.11-0.16c0.24-0.11,0.37-0.27,0.37-0.5l0.13,0.93c-0.12,0.18-0.26,0.32-0.42,0.44s-0.36,0.2-0.58,0.26
				c-0.22,0.06-0.47,0.09-0.74,0.09C13.56,90.26,12.96,90.09,12.55,89.75z M15.99,85.98c0-0.43-0.12-0.77-0.35-1.01
				s-0.56-0.36-0.98-0.36c-0.26,0-0.52,0.04-0.77,0.12c-0.25,0.08-0.48,0.19-0.67,0.34l-0.95-0.65c0.25-0.3,0.58-0.53,0.99-0.7
				c0.41-0.17,0.86-0.25,1.36-0.25c0.54,0,1.01,0.1,1.4,0.29c0.39,0.19,0.69,0.47,0.89,0.84c0.2,0.37,0.3,0.81,0.3,1.32v4.23h-1.23
				V85.98z"/>
			<path d="M19.19,80.93h1.29v1.29h-1.29V80.93z M19.19,83.57h1.29v6.59h-1.29V83.57z"/>
			<path d="M22.45,83.57h1.29v6.59h-1.29V83.57z M25.64,84.82c-0.17-0.07-0.38-0.11-0.6-0.11c-0.41,0-0.73,0.11-0.96,0.34
				c-0.23,0.23-0.34,0.54-0.34,0.94l-0.13-1.27c0.2-0.39,0.46-0.7,0.79-0.92c0.32-0.22,0.68-0.33,1.07-0.33
				c0.3,0,0.57,0.04,0.82,0.13s0.46,0.21,0.64,0.38l-0.84,1.14C25.96,84.99,25.82,84.89,25.64,84.82z"/>
			<path d="M29.14,89.91c-0.43-0.23-0.76-0.56-0.99-1.01c-0.23-0.44-0.34-0.98-0.34-1.6v-0.74c0-0.65,0.11-1.21,0.33-1.67
				c0.22-0.46,0.53-0.81,0.95-1.05c0.41-0.24,0.91-0.36,1.5-0.36c0.55,0,1.02,0.14,1.41,0.41c0.39,0.28,0.69,0.67,0.89,1.19
				s0.31,1.14,0.31,1.87v0.43h-4.44v-1.04h3.21c-0.04-0.54-0.18-0.96-0.42-1.25c-0.24-0.3-0.56-0.45-0.96-0.45
				c-0.49,0-0.87,0.16-1.14,0.48c-0.27,0.32-0.4,0.78-0.4,1.36v0.84c0,0.55,0.14,0.96,0.43,1.26s0.7,0.44,1.22,0.44
				c0.26,0,0.52-0.05,0.78-0.16c0.26-0.11,0.49-0.25,0.69-0.44l0.85,0.85c-0.33,0.31-0.69,0.56-1.1,0.73
				c-0.41,0.17-0.81,0.26-1.23,0.26C30.09,90.26,29.57,90.14,29.14,89.91z"/>
			<path d="M39.17,90.14c-0.34-0.08-0.66-0.19-0.96-0.34s-0.57-0.34-0.82-0.57l0.77-0.95c0.36,0.27,0.71,0.47,1.06,0.61
				c0.35,0.14,0.7,0.2,1.04,0.2c0.51,0,0.9-0.08,1.15-0.24c0.26-0.16,0.38-0.4,0.38-0.71c0-0.21-0.07-0.37-0.21-0.48
				c-0.14-0.11-0.31-0.18-0.52-0.21s-0.5-0.07-0.88-0.1c-0.03,0-0.07,0-0.11,0c-0.04,0-0.07,0-0.11-0.01c-0.02,0-0.03,0-0.05,0
				s-0.03,0-0.05,0c-0.43-0.03-0.79-0.1-1.08-0.19c-0.3-0.09-0.54-0.26-0.74-0.51c-0.2-0.25-0.29-0.61-0.29-1.07
				c0-0.46,0.1-0.85,0.29-1.16c0.19-0.31,0.47-0.54,0.85-0.7c0.38-0.15,0.85-0.23,1.42-0.23c0.34,0,0.67,0.03,0.98,0.09
				c0.31,0.06,0.61,0.16,0.89,0.28c0.28,0.12,0.56,0.28,0.82,0.47l-0.78,0.95c-0.33-0.21-0.66-0.37-0.97-0.48
				c-0.32-0.11-0.63-0.16-0.94-0.16c-0.44,0-0.77,0.08-0.99,0.23s-0.33,0.38-0.33,0.68c0,0.18,0.06,0.31,0.19,0.4
				s0.28,0.15,0.47,0.18c0.19,0.03,0.46,0.05,0.81,0.08c0.03,0,0.05,0.01,0.08,0.01s0.06,0,0.09,0.01c0.01,0,0.03,0,0.04,0
				s0.03,0,0.04,0.01c0.46,0.03,0.85,0.09,1.18,0.18c0.32,0.09,0.6,0.28,0.82,0.55c0.22,0.28,0.33,0.67,0.33,1.19
				c0,0.47-0.1,0.87-0.3,1.18c-0.2,0.31-0.51,0.54-0.92,0.7c-0.41,0.16-0.92,0.24-1.54,0.24C39.88,90.26,39.51,90.22,39.17,90.14z"
				/>
			<path d="M45.82,89.91c-0.43-0.23-0.76-0.56-0.99-1.01c-0.23-0.44-0.34-0.98-0.34-1.6v-0.74c0-0.65,0.11-1.21,0.33-1.67
				c0.22-0.46,0.53-0.81,0.95-1.05c0.41-0.24,0.91-0.36,1.5-0.36c0.55,0,1.02,0.14,1.41,0.41c0.39,0.28,0.69,0.67,0.89,1.19
				s0.31,1.14,0.31,1.87v0.43h-4.44v-1.04h3.21c-0.04-0.54-0.18-0.96-0.42-1.25c-0.24-0.3-0.56-0.45-0.96-0.45
				c-0.49,0-0.87,0.16-1.14,0.48c-0.27,0.32-0.4,0.78-0.4,1.36v0.84c0,0.55,0.14,0.96,0.43,1.26s0.7,0.44,1.22,0.44
				c0.26,0,0.52-0.05,0.78-0.16c0.26-0.11,0.49-0.25,0.69-0.44l0.85,0.85c-0.33,0.31-0.69,0.56-1.1,0.73
				c-0.41,0.17-0.81,0.26-1.23,0.26C46.77,90.26,46.25,90.14,45.82,89.91z"/>
			<path d="M52.88,90.14c-0.34-0.08-0.66-0.19-0.96-0.34s-0.57-0.34-0.82-0.57l0.77-0.95c0.36,0.27,0.71,0.47,1.06,0.61
				c0.35,0.14,0.7,0.2,1.04,0.2c0.51,0,0.9-0.08,1.15-0.24c0.26-0.16,0.38-0.4,0.38-0.71c0-0.21-0.07-0.37-0.21-0.48
				c-0.14-0.11-0.31-0.18-0.52-0.21s-0.5-0.07-0.88-0.1c-0.03,0-0.07,0-0.11,0c-0.04,0-0.07,0-0.11-0.01c-0.02,0-0.03,0-0.05,0
				s-0.03,0-0.05,0c-0.43-0.03-0.79-0.1-1.08-0.19c-0.3-0.09-0.54-0.26-0.74-0.51c-0.2-0.25-0.29-0.61-0.29-1.07
				c0-0.46,0.1-0.85,0.29-1.16c0.19-0.31,0.47-0.54,0.85-0.7c0.38-0.15,0.85-0.23,1.42-0.23c0.34,0,0.67,0.03,0.98,0.09
				c0.31,0.06,0.61,0.16,0.89,0.28c0.28,0.12,0.56,0.28,0.82,0.47l-0.78,0.95c-0.33-0.21-0.66-0.37-0.97-0.48
				c-0.32-0.11-0.63-0.16-0.94-0.16c-0.44,0-0.77,0.08-0.99,0.23s-0.33,0.38-0.33,0.68c0,0.18,0.06,0.31,0.19,0.4
				s0.28,0.15,0.47,0.18c0.19,0.03,0.46,0.05,0.81,0.08c0.03,0,0.05,0.01,0.08,0.01s0.06,0,0.09,0.01c0.01,0,0.03,0,0.04,0
				s0.03,0,0.04,0.01c0.46,0.03,0.85,0.09,1.18,0.18c0.32,0.09,0.6,0.28,0.82,0.55c0.22,0.28,0.33,0.67,0.33,1.19
				c0,0.47-0.1,0.87-0.3,1.18c-0.2,0.31-0.51,0.54-0.92,0.7c-0.41,0.16-0.92,0.24-1.54,0.24C53.59,90.26,53.22,90.22,52.88,90.14z"
				/>
			<path d="M62.21,89.96c-0.34-0.21-0.6-0.51-0.78-0.92c-0.18-0.4-0.27-0.88-0.27-1.45v-1.45c0-0.57,0.09-1.05,0.26-1.45
				c0.17-0.4,0.43-0.71,0.76-0.92c0.33-0.21,0.73-0.31,1.2-0.31c0.39,0,0.75,0.1,1.07,0.3c0.32,0.2,0.58,0.49,0.78,0.86l-0.13,1.35
				c0-0.28-0.05-0.52-0.15-0.72c-0.1-0.2-0.25-0.35-0.44-0.45c-0.19-0.1-0.43-0.16-0.7-0.16c-0.43,0-0.76,0.13-0.99,0.4
				c-0.24,0.27-0.35,0.64-0.35,1.12v1.43c0,0.48,0.12,0.85,0.35,1.11c0.23,0.26,0.57,0.39,0.99,0.39c0.28,0,0.51-0.05,0.7-0.16
				c0.19-0.11,0.34-0.26,0.44-0.47s0.15-0.45,0.15-0.73l0.09,1.39c-0.13,0.33-0.35,0.6-0.64,0.82c-0.3,0.22-0.67,0.33-1.1,0.33
				C62.97,90.28,62.55,90.17,62.21,89.96z M62.24,92.56c-0.39-0.18-0.7-0.44-0.91-0.78l0.88-0.79c0.17,0.23,0.37,0.41,0.61,0.54
				c0.24,0.13,0.48,0.19,0.74,0.19c0.5,0,0.88-0.14,1.15-0.41c0.27-0.27,0.41-0.66,0.41-1.16v-6.58h1.29v6.39
				c0,0.6-0.11,1.12-0.33,1.55c-0.22,0.43-0.54,0.76-0.97,0.98c-0.42,0.22-0.93,0.34-1.53,0.34C63.07,92.84,62.63,92.75,62.24,92.56
				z"/>
			<path d="M68.37,83.57h1.29v6.59h-1.29V83.57z M71.56,84.82c-0.17-0.07-0.38-0.11-0.6-0.11c-0.41,0-0.73,0.11-0.96,0.34
				c-0.23,0.23-0.34,0.54-0.34,0.94l-0.13-1.27c0.2-0.39,0.46-0.7,0.79-0.92c0.32-0.22,0.68-0.33,1.07-0.33
				c0.3,0,0.57,0.04,0.82,0.13s0.46,0.21,0.64,0.38l-0.84,1.14C71.88,84.99,71.73,84.89,71.56,84.82z"/>
			<path d="M73.92,80.93h1.29v1.29h-1.29V80.93z M73.92,83.57h1.29v6.59h-1.29V83.57z"/>
			<path d="M76.67,83.57h3.29v1.1h-3.29V83.57z M77.37,82.68c0-0.58,0.13-1.02,0.4-1.31c0.27-0.29,0.68-0.43,1.24-0.43h0.95v1.23
				h-0.93c-0.12,0-0.21,0.05-0.28,0.14c-0.06,0.09-0.09,0.21-0.09,0.36v7.5h-1.29V82.68z"/>
			<path d="M80.79,83.57h3.29v1.1h-3.29V83.57z M81.49,82.68c0-0.58,0.13-1.02,0.4-1.31c0.27-0.29,0.68-0.43,1.24-0.43h0.95v1.23
				h-0.93c-0.12,0-0.21,0.05-0.28,0.14c-0.06,0.09-0.09,0.21-0.09,0.36v7.5h-1.29V82.68z"/>
			<path d="M86.55,89.91c-0.43-0.23-0.76-0.56-0.99-1.01c-0.23-0.44-0.34-0.98-0.34-1.6v-0.74c0-0.65,0.11-1.21,0.33-1.67
				c0.22-0.46,0.53-0.81,0.95-1.05c0.41-0.24,0.91-0.36,1.5-0.36c0.55,0,1.02,0.14,1.41,0.41c0.39,0.28,0.69,0.67,0.89,1.19
				s0.31,1.14,0.31,1.87v0.43h-4.44v-1.04h3.21c-0.04-0.54-0.18-0.96-0.42-1.25c-0.24-0.3-0.56-0.45-0.96-0.45
				c-0.49,0-0.87,0.16-1.14,0.48c-0.27,0.32-0.4,0.78-0.4,1.36v0.84c0,0.55,0.14,0.96,0.43,1.26s0.7,0.44,1.22,0.44
				c0.26,0,0.52-0.05,0.78-0.16c0.26-0.11,0.49-0.25,0.69-0.44l0.85,0.85c-0.33,0.31-0.69,0.56-1.1,0.73
				c-0.41,0.17-0.81,0.26-1.23,0.26C87.51,90.26,86.99,90.14,86.55,89.91z"/>
			<path d="M93.62,90.14c-0.34-0.08-0.66-0.19-0.96-0.34s-0.57-0.34-0.82-0.57l0.77-0.95c0.36,0.27,0.71,0.47,1.06,0.61
				c0.35,0.14,0.7,0.2,1.04,0.2c0.51,0,0.9-0.08,1.15-0.24c0.26-0.16,0.38-0.4,0.38-0.71c0-0.21-0.07-0.37-0.21-0.48
				c-0.14-0.11-0.31-0.18-0.52-0.21s-0.5-0.07-0.88-0.1c-0.03,0-0.07,0-0.11,0c-0.04,0-0.07,0-0.11-0.01c-0.02,0-0.03,0-0.05,0
				s-0.03,0-0.05,0c-0.43-0.03-0.79-0.1-1.08-0.19c-0.3-0.09-0.54-0.26-0.74-0.51c-0.2-0.25-0.29-0.61-0.29-1.07
				c0-0.46,0.1-0.85,0.29-1.16c0.19-0.31,0.47-0.54,0.85-0.7c0.38-0.15,0.85-0.23,1.42-0.23c0.34,0,0.67,0.03,0.98,0.09
				c0.31,0.06,0.61,0.16,0.89,0.28c0.28,0.12,0.56,0.28,0.82,0.47l-0.78,0.95c-0.33-0.21-0.66-0.37-0.97-0.48
				c-0.32-0.11-0.63-0.16-0.94-0.16c-0.44,0-0.77,0.08-0.99,0.23s-0.33,0.38-0.33,0.68c0,0.18,0.06,0.31,0.19,0.4
				s0.28,0.15,0.47,0.18c0.19,0.03,0.46,0.05,0.81,0.08c0.03,0,0.05,0.01,0.08,0.01s0.06,0,0.09,0.01c0.01,0,0.03,0,0.04,0
				s0.03,0,0.04,0.01c0.46,0.03,0.85,0.09,1.18,0.18c0.32,0.09,0.6,0.28,0.82,0.55c0.22,0.28,0.33,0.67,0.33,1.19
				c0,0.47-0.1,0.87-0.3,1.18c-0.2,0.31-0.51,0.54-0.92,0.7c-0.41,0.16-0.92,0.24-1.54,0.24C94.33,90.26,93.96,90.22,93.62,90.14z"
				/>
			<path d="M98.91,88.8h1.36v2.06l-1.36,1.41V88.8z"/>
			<path d="M105.9,89.96c-0.34-0.21-0.6-0.51-0.78-0.92c-0.18-0.4-0.27-0.88-0.27-1.45v-1.45c0-0.57,0.09-1.05,0.26-1.45
				c0.17-0.4,0.43-0.71,0.76-0.92c0.33-0.21,0.73-0.31,1.2-0.31c0.39,0,0.75,0.1,1.07,0.3c0.32,0.2,0.58,0.49,0.78,0.86l-0.13,1.35
				c0-0.28-0.05-0.52-0.15-0.72c-0.1-0.2-0.25-0.35-0.44-0.45c-0.19-0.1-0.43-0.16-0.7-0.16c-0.43,0-0.76,0.13-0.99,0.4
				c-0.24,0.27-0.35,0.64-0.35,1.12v1.43c0,0.48,0.12,0.85,0.35,1.11c0.23,0.26,0.57,0.39,0.99,0.39c0.28,0,0.51-0.05,0.7-0.16
				c0.19-0.11,0.34-0.26,0.44-0.47s0.15-0.45,0.15-0.73l0.09,1.39c-0.13,0.33-0.35,0.6-0.64,0.82c-0.3,0.22-0.67,0.33-1.1,0.33
				C106.65,90.28,106.24,90.17,105.9,89.96z M108.79,80.93h1.29v9.23h-1.29V80.93z"/>
			<path d="M113.19,89.91c-0.43-0.23-0.76-0.56-0.99-1.01c-0.23-0.44-0.34-0.98-0.34-1.6v-0.74c0-0.65,0.11-1.21,0.33-1.67
				c0.22-0.46,0.53-0.81,0.95-1.05c0.41-0.24,0.91-0.36,1.5-0.36c0.55,0,1.02,0.14,1.41,0.41c0.39,0.28,0.69,0.67,0.89,1.19
				s0.31,1.14,0.31,1.87v0.43h-4.44v-1.04h3.21c-0.04-0.54-0.18-0.96-0.42-1.25c-0.24-0.3-0.56-0.45-0.96-0.45
				c-0.49,0-0.87,0.16-1.14,0.48c-0.27,0.32-0.4,0.78-0.4,1.36v0.84c0,0.55,0.14,0.96,0.43,1.26s0.7,0.44,1.22,0.44
				c0.26,0,0.52-0.05,0.78-0.16c0.26-0.11,0.49-0.25,0.69-0.44l0.85,0.85c-0.33,0.31-0.69,0.56-1.1,0.73
				c-0.41,0.17-0.81,0.26-1.23,0.26C114.14,90.26,113.62,90.14,113.19,89.91z"/>
			<path d="M122.84,89.96c-0.34-0.21-0.6-0.51-0.78-0.92c-0.18-0.4-0.27-0.88-0.27-1.45v-1.45c0-0.57,0.09-1.05,0.26-1.45
				c0.17-0.4,0.43-0.71,0.76-0.92c0.33-0.21,0.73-0.31,1.2-0.31c0.39,0,0.75,0.1,1.07,0.3c0.32,0.2,0.58,0.49,0.78,0.86l-0.13,1.35
				c0-0.28-0.05-0.52-0.15-0.72c-0.1-0.2-0.25-0.35-0.44-0.45c-0.19-0.1-0.43-0.16-0.7-0.16c-0.43,0-0.76,0.13-0.99,0.4
				c-0.24,0.27-0.35,0.64-0.35,1.12v1.43c0,0.48,0.12,0.85,0.35,1.11c0.23,0.26,0.57,0.39,0.99,0.39c0.28,0,0.51-0.05,0.7-0.16
				c0.19-0.11,0.34-0.26,0.44-0.47s0.15-0.45,0.15-0.73l0.09,1.39c-0.13,0.33-0.35,0.6-0.64,0.82c-0.3,0.22-0.67,0.33-1.1,0.33
				C123.6,90.28,123.19,90.17,122.84,89.96z M122.87,92.56c-0.39-0.18-0.7-0.44-0.91-0.78l0.88-0.79c0.17,0.23,0.37,0.41,0.61,0.54
				c0.24,0.13,0.48,0.19,0.74,0.19c0.5,0,0.88-0.14,1.15-0.41c0.27-0.27,0.41-0.66,0.41-1.16v-6.58h1.29v6.39
				c0,0.6-0.11,1.12-0.33,1.55c-0.22,0.43-0.54,0.76-0.97,0.98c-0.42,0.22-0.93,0.34-1.53,0.34
				C123.7,92.84,123.26,92.75,122.87,92.56z"/>
			<path d="M129,83.57h1.29v6.59H129V83.57z M132.19,84.82c-0.17-0.07-0.38-0.11-0.6-0.11c-0.41,0-0.73,0.11-0.96,0.34
				c-0.23,0.23-0.34,0.54-0.34,0.94l-0.13-1.27c0.2-0.39,0.46-0.7,0.79-0.92c0.32-0.22,0.68-0.33,1.07-0.33
				c0.3,0,0.57,0.04,0.82,0.13s0.46,0.21,0.64,0.38l-0.84,1.14C132.51,84.99,132.36,84.89,132.19,84.82z"/>
			<path d="M134.55,80.93h1.29v1.29h-1.29V80.93z M134.55,83.57h1.29v6.59h-1.29V83.57z"/>
			<path d="M137.81,83.57h1.29v6.59h-1.29V83.57z M141.74,86.17c0-0.47-0.11-0.83-0.34-1.08s-0.55-0.38-0.97-0.38
				c-0.42,0-0.75,0.11-0.98,0.34c-0.23,0.22-0.35,0.54-0.35,0.95l-0.13-1.27c0.2-0.4,0.47-0.71,0.8-0.92s0.69-0.32,1.09-0.32
				c0.46,0,0.85,0.1,1.18,0.31c0.33,0.21,0.57,0.52,0.75,0.92c0.17,0.4,0.26,0.89,0.26,1.45v4h-1.29V86.17z M145.68,86.17
				c0-0.47-0.12-0.83-0.36-1.08c-0.24-0.25-0.58-0.38-1.02-0.38c-0.4,0-0.71,0.12-0.93,0.37c-0.22,0.25-0.33,0.59-0.33,1.04
				l-0.26-1.27c0.21-0.44,0.48-0.77,0.82-1.01s0.72-0.36,1.13-0.36c0.47,0,0.88,0.1,1.22,0.31c0.34,0.21,0.59,0.52,0.77,0.92
				c0.18,0.4,0.26,0.89,0.26,1.45v4h-1.29V86.17z"/>
			<path d="M148.94,83.57h1.29v9.27h-1.29V83.57z M150.82,89.96c-0.3-0.2-0.53-0.47-0.67-0.83l0.09-1.38c0,0.28,0.05,0.53,0.15,0.72
				c0.1,0.2,0.25,0.35,0.44,0.46c0.19,0.11,0.43,0.16,0.7,0.16c0.43,0,0.76-0.13,0.99-0.39c0.24-0.26,0.35-0.63,0.35-1.1v-1.43
				c0-0.48-0.12-0.86-0.35-1.12c-0.23-0.27-0.57-0.4-0.99-0.4c-0.28,0-0.51,0.05-0.7,0.15s-0.34,0.25-0.44,0.45
				c-0.1,0.2-0.15,0.43-0.15,0.71l-0.13-1.27c0.2-0.39,0.46-0.68,0.78-0.89c0.32-0.21,0.68-0.31,1.07-0.31c0.46,0,0.86,0.1,1.2,0.31
				c0.33,0.21,0.58,0.52,0.76,0.92c0.17,0.4,0.26,0.89,0.26,1.45v1.43c0,0.56-0.09,1.04-0.27,1.43c-0.18,0.4-0.44,0.7-0.78,0.91
				c-0.34,0.21-0.75,0.31-1.23,0.31C151.48,90.26,151.13,90.16,150.82,89.96z"/>
			<path d="M157.15,89.91c-0.43-0.23-0.76-0.56-0.99-1.01c-0.23-0.44-0.34-0.98-0.34-1.6v-0.74c0-0.65,0.11-1.21,0.33-1.67
				c0.22-0.46,0.53-0.81,0.95-1.05c0.41-0.24,0.91-0.36,1.5-0.36c0.55,0,1.02,0.14,1.41,0.41c0.39,0.28,0.69,0.67,0.89,1.19
				s0.31,1.14,0.31,1.87v0.43h-4.44v-1.04h3.21c-0.04-0.54-0.18-0.96-0.42-1.25c-0.24-0.3-0.56-0.45-0.96-0.45
				c-0.49,0-0.87,0.16-1.14,0.48c-0.27,0.32-0.4,0.78-0.4,1.36v0.84c0,0.55,0.14,0.96,0.43,1.26s0.7,0.44,1.22,0.44
				c0.26,0,0.52-0.05,0.78-0.16c0.26-0.11,0.49-0.25,0.69-0.44l0.85,0.85c-0.33,0.31-0.69,0.56-1.1,0.73
				c-0.41,0.17-0.81,0.26-1.23,0.26C158.1,90.26,157.58,90.14,157.15,89.91z"/>
			<path d="M162.98,83.57h1.29v6.59h-1.29V83.57z M166.18,84.82c-0.17-0.07-0.38-0.11-0.6-0.11c-0.41,0-0.73,0.11-0.96,0.34
				c-0.23,0.23-0.34,0.54-0.34,0.94l-0.13-1.27c0.2-0.39,0.46-0.7,0.79-0.92c0.32-0.22,0.68-0.33,1.07-0.33
				c0.3,0,0.57,0.04,0.82,0.13s0.46,0.21,0.64,0.38l-0.84,1.14C166.49,84.99,166.35,84.89,166.18,84.82z"/>
			<path d="M172.64,89.91c-0.43-0.23-0.76-0.56-0.99-1.01c-0.23-0.44-0.34-0.98-0.34-1.6v-0.74c0-0.65,0.11-1.21,0.33-1.67
				c0.22-0.46,0.53-0.81,0.95-1.05c0.41-0.24,0.91-0.36,1.5-0.36c0.55,0,1.02,0.14,1.41,0.41c0.39,0.28,0.69,0.67,0.89,1.19
				s0.31,1.14,0.31,1.87v0.43h-4.44v-1.04h3.21c-0.04-0.54-0.18-0.96-0.42-1.25c-0.24-0.3-0.56-0.45-0.96-0.45
				c-0.49,0-0.87,0.16-1.14,0.48c-0.27,0.32-0.4,0.78-0.4,1.36v0.84c0,0.55,0.14,0.96,0.43,1.26s0.7,0.44,1.22,0.44
				c0.26,0,0.52-0.05,0.78-0.16c0.26-0.11,0.49-0.25,0.69-0.44l0.85,0.85c-0.33,0.31-0.69,0.56-1.1,0.73
				c-0.41,0.17-0.81,0.26-1.23,0.26C173.59,90.26,173.07,90.14,172.64,89.91z"/>
			<path d="M177.96,83.57h2.97v1.17h-2.97V83.57z M179.01,89.75c-0.25-0.29-0.37-0.73-0.37-1.3v-6.79h1.29v6.8
				c0,0.16,0.03,0.29,0.09,0.37c0.06,0.09,0.16,0.13,0.28,0.13h0.62v1.23h-0.75C179.65,90.19,179.26,90.05,179.01,89.75z"/>
			<path d="M186.92,90.14c-0.34-0.08-0.66-0.19-0.96-0.34s-0.57-0.34-0.82-0.57l0.77-0.95c0.36,0.27,0.71,0.47,1.06,0.61
				c0.35,0.14,0.7,0.2,1.04,0.2c0.51,0,0.9-0.08,1.15-0.24c0.26-0.16,0.38-0.4,0.38-0.71c0-0.21-0.07-0.37-0.21-0.48
				c-0.14-0.11-0.31-0.18-0.52-0.21s-0.5-0.07-0.88-0.1c-0.03,0-0.07,0-0.11,0c-0.04,0-0.07,0-0.11-0.01c-0.02,0-0.03,0-0.05,0
				s-0.03,0-0.05,0c-0.43-0.03-0.79-0.1-1.08-0.19c-0.3-0.09-0.54-0.26-0.74-0.51c-0.2-0.25-0.29-0.61-0.29-1.07
				c0-0.46,0.1-0.85,0.29-1.16c0.19-0.31,0.47-0.54,0.85-0.7c0.38-0.15,0.85-0.23,1.42-0.23c0.34,0,0.67,0.03,0.98,0.09
				c0.31,0.06,0.61,0.16,0.89,0.28c0.28,0.12,0.56,0.28,0.82,0.47l-0.78,0.95c-0.33-0.21-0.66-0.37-0.97-0.48
				c-0.32-0.11-0.63-0.16-0.94-0.16c-0.44,0-0.77,0.08-0.99,0.23s-0.33,0.38-0.33,0.68c0,0.18,0.06,0.31,0.19,0.4
				s0.28,0.15,0.47,0.18c0.19,0.03,0.46,0.05,0.81,0.08c0.03,0,0.05,0.01,0.08,0.01s0.06,0,0.09,0.01c0.01,0,0.03,0,0.04,0
				s0.03,0,0.04,0.01c0.46,0.03,0.85,0.09,1.18,0.18c0.32,0.09,0.6,0.28,0.82,0.55c0.22,0.28,0.33,0.67,0.33,1.19
				c0,0.47-0.1,0.87-0.3,1.18c-0.2,0.31-0.51,0.54-0.92,0.7c-0.41,0.16-0.92,0.24-1.54,0.24C187.62,90.26,187.26,90.22,186.92,90.14
				z"/>
			<path d="M193.56,89.91c-0.43-0.23-0.76-0.56-0.99-1.01c-0.23-0.44-0.34-0.98-0.34-1.6v-0.74c0-0.65,0.11-1.21,0.33-1.67
				c0.22-0.46,0.53-0.81,0.95-1.05c0.41-0.24,0.91-0.36,1.5-0.36c0.55,0,1.02,0.14,1.41,0.41c0.39,0.28,0.69,0.67,0.89,1.19
				s0.31,1.14,0.31,1.87v0.43h-4.44v-1.04h3.21c-0.04-0.54-0.18-0.96-0.42-1.25c-0.24-0.3-0.56-0.45-0.96-0.45
				c-0.49,0-0.87,0.16-1.14,0.48c-0.27,0.32-0.4,0.78-0.4,1.36v0.84c0,0.55,0.14,0.96,0.43,1.26s0.7,0.44,1.22,0.44
				c0.26,0,0.52-0.05,0.78-0.16c0.26-0.11,0.49-0.25,0.69-0.44l0.85,0.85c-0.33,0.31-0.69,0.56-1.1,0.73
				c-0.41,0.17-0.81,0.26-1.23,0.26C194.51,90.26,193.99,90.14,193.56,89.91z"/>
			<path d="M202.36,83.57h1.29v9.27h-1.29V83.57z M204.24,89.96c-0.3-0.2-0.53-0.47-0.67-0.83l0.09-1.38c0,0.28,0.05,0.53,0.15,0.72
				c0.1,0.2,0.25,0.35,0.44,0.46c0.19,0.11,0.43,0.16,0.7,0.16c0.43,0,0.76-0.13,0.99-0.39c0.24-0.26,0.35-0.63,0.35-1.1v-1.43
				c0-0.48-0.12-0.86-0.35-1.12c-0.23-0.27-0.57-0.4-0.99-0.4c-0.28,0-0.51,0.05-0.7,0.15s-0.34,0.25-0.44,0.45
				c-0.1,0.2-0.15,0.43-0.15,0.71l-0.13-1.27c0.2-0.39,0.46-0.68,0.78-0.89c0.32-0.21,0.68-0.31,1.07-0.31c0.46,0,0.86,0.1,1.2,0.31
				c0.33,0.21,0.58,0.52,0.76,0.92c0.17,0.4,0.26,0.89,0.26,1.45v1.43c0,0.56-0.09,1.04-0.27,1.43c-0.18,0.4-0.44,0.7-0.78,0.91
				c-0.34,0.21-0.75,0.31-1.23,0.31C204.9,90.26,204.54,90.16,204.24,89.96z"/>
			<path d="M210.57,89.91c-0.43-0.23-0.76-0.56-0.99-1.01c-0.23-0.44-0.34-0.98-0.34-1.6v-0.74c0-0.65,0.11-1.21,0.33-1.67
				c0.22-0.46,0.53-0.81,0.95-1.05c0.41-0.24,0.91-0.36,1.5-0.36c0.55,0,1.02,0.14,1.41,0.41c0.39,0.28,0.69,0.67,0.89,1.19
				s0.31,1.14,0.31,1.87v0.43h-4.44v-1.04h3.21c-0.04-0.54-0.18-0.96-0.42-1.25c-0.24-0.3-0.56-0.45-0.96-0.45
				c-0.49,0-0.87,0.16-1.14,0.48c-0.27,0.32-0.4,0.78-0.4,1.36v0.84c0,0.55,0.14,0.96,0.43,1.26s0.7,0.44,1.22,0.44
				c0.26,0,0.52-0.05,0.78-0.16c0.26-0.11,0.49-0.25,0.69-0.44l0.85,0.85c-0.33,0.31-0.69,0.56-1.1,0.73
				c-0.41,0.17-0.81,0.26-1.23,0.26C211.52,90.26,211,90.14,210.57,89.91z"/>
			<path d="M216.4,83.57h1.29v6.59h-1.29V83.57z M219.59,84.82c-0.17-0.07-0.38-0.11-0.6-0.11c-0.41,0-0.73,0.11-0.96,0.34
				c-0.23,0.23-0.34,0.54-0.34,0.94l-0.13-1.27c0.2-0.39,0.46-0.7,0.79-0.92c0.32-0.22,0.68-0.33,1.07-0.33
				c0.3,0,0.57,0.04,0.82,0.13s0.46,0.21,0.64,0.38l-0.84,1.14C219.91,84.99,219.77,84.89,219.59,84.82z"/>
			<path d="M223.07,89.92c-0.42-0.22-0.75-0.55-0.97-0.98c-0.22-0.43-0.34-0.94-0.34-1.55v-1.08c0-0.6,0.11-1.11,0.34-1.53
				c0.22-0.42,0.55-0.75,0.97-0.97c0.43-0.22,0.94-0.33,1.54-0.33c0.34,0,0.67,0.04,0.97,0.12c0.3,0.08,0.57,0.2,0.82,0.36
				c0.24,0.16,0.44,0.35,0.6,0.57l-0.93,0.84c-0.19-0.21-0.4-0.38-0.65-0.49c-0.25-0.11-0.51-0.17-0.78-0.17
				c-0.5,0-0.89,0.14-1.16,0.42c-0.28,0.28-0.41,0.67-0.41,1.18v1.08c0,0.52,0.14,0.92,0.41,1.21c0.27,0.28,0.66,0.43,1.17,0.43
				c0.28,0,0.54-0.06,0.79-0.18c0.25-0.12,0.47-0.3,0.65-0.52l0.93,0.9c-0.17,0.22-0.37,0.41-0.61,0.56
				c-0.24,0.16-0.51,0.27-0.82,0.35c-0.3,0.08-0.62,0.12-0.96,0.12C224.01,90.26,223.5,90.14,223.07,89.92z"/>
			<path d="M228.42,80.93h1.29v9.23h-1.29V80.93z M232.42,86.17c0-0.47-0.12-0.83-0.36-1.08c-0.24-0.25-0.58-0.38-1.02-0.38
				c-0.42,0-0.75,0.11-0.98,0.33c-0.23,0.22-0.35,0.53-0.35,0.93l-0.13-1.27c0.2-0.39,0.47-0.69,0.8-0.9s0.69-0.32,1.09-0.32
				c0.71,0,1.27,0.23,1.66,0.7s0.59,1.13,0.59,1.98v4h-1.29V86.17z"/>
			<path d="M236.82,89.91c-0.43-0.23-0.76-0.56-0.99-1.01c-0.23-0.44-0.34-0.98-0.34-1.6v-0.74c0-0.65,0.11-1.21,0.33-1.67
				c0.22-0.46,0.53-0.81,0.95-1.05c0.41-0.24,0.91-0.36,1.5-0.36c0.55,0,1.02,0.14,1.41,0.41c0.39,0.28,0.69,0.67,0.89,1.19
				s0.31,1.14,0.31,1.87v0.43h-4.44v-1.04h3.21c-0.04-0.54-0.18-0.96-0.42-1.25c-0.24-0.3-0.56-0.45-0.96-0.45
				c-0.49,0-0.87,0.16-1.14,0.48c-0.27,0.32-0.4,0.78-0.4,1.36v0.84c0,0.55,0.14,0.96,0.43,1.26s0.7,0.44,1.22,0.44
				c0.26,0,0.52-0.05,0.78-0.16c0.26-0.11,0.49-0.25,0.69-0.44l0.85,0.85c-0.33,0.31-0.69,0.56-1.1,0.73
				c-0.41,0.17-0.81,0.26-1.23,0.26C237.77,90.26,237.25,90.14,236.82,89.91z"/>
			<path d="M242.66,83.57h1.29v6.59h-1.29V83.57z M245.85,84.82c-0.17-0.07-0.38-0.11-0.6-0.11c-0.41,0-0.73,0.11-0.96,0.34
				c-0.23,0.23-0.34,0.54-0.34,0.94l-0.13-1.27c0.2-0.39,0.46-0.7,0.79-0.92c0.32-0.22,0.68-0.33,1.07-0.33
				c0.3,0,0.57,0.04,0.82,0.13s0.46,0.21,0.64,0.38l-0.84,1.14C246.17,84.99,246.02,84.89,245.85,84.82z"/>
			<path d="M247.98,88.8h1.36v2.06l-1.36,1.41V88.8z"/>
			<path d="M7.26,107.21h0.72c0.12,0,0.21-0.04,0.28-0.13s0.1-0.21,0.1-0.37v-7.54h1.29v7.52c0,0.55-0.13,0.98-0.4,1.29
				s-0.65,0.46-1.14,0.46H7.26V107.21z M8.35,96.53h1.32v1.29H8.35V96.53z"/>
			<path d="M12.69,105.52c-0.41-0.22-0.72-0.55-0.93-0.98s-0.32-0.95-0.32-1.55v-1.07c0-0.6,0.11-1.11,0.32-1.53
				c0.21-0.42,0.52-0.75,0.93-0.97c0.41-0.22,0.89-0.33,1.47-0.33s1.06,0.11,1.47,0.33c0.41,0.22,0.72,0.55,0.93,0.97
				c0.21,0.43,0.32,0.94,0.32,1.53v1.09c0,0.6-0.11,1.11-0.32,1.54c-0.21,0.43-0.52,0.75-0.93,0.97c-0.41,0.22-0.89,0.34-1.47,0.34
				S13.1,105.74,12.69,105.52z M15.21,104.2c0.25-0.28,0.37-0.68,0.37-1.19v-1.09c0-0.51-0.12-0.91-0.37-1.19
				c-0.25-0.28-0.6-0.42-1.05-0.42s-0.8,0.14-1.05,0.42c-0.25,0.28-0.37,0.67-0.37,1.19v1.09c0,0.51,0.12,0.91,0.37,1.19
				c0.25,0.28,0.6,0.43,1.05,0.43S14.96,104.48,15.21,104.2z"/>
			<path d="M20.01,103.18c0,0.46,0.12,0.82,0.35,1.07c0.23,0.25,0.57,0.38,0.99,0.38c0.42,0,0.75-0.11,0.98-0.34
				c0.23-0.22,0.35-0.54,0.35-0.96l0.09,1.38c-0.14,0.33-0.36,0.6-0.66,0.82c-0.3,0.22-0.68,0.33-1.12,0.33
				c-0.73,0-1.29-0.23-1.69-0.7c-0.4-0.47-0.59-1.13-0.59-1.98v-4.01h1.29V103.18z M22.69,99.17h1.29v6.59h-1.29V99.17z"/>
			<path d="M27.09,105.51c-0.43-0.23-0.76-0.56-0.99-1.01c-0.23-0.44-0.34-0.98-0.34-1.6v-0.74c0-0.65,0.11-1.21,0.33-1.67
				c0.22-0.46,0.53-0.81,0.95-1.05c0.41-0.24,0.91-0.36,1.5-0.36c0.55,0,1.02,0.14,1.41,0.41c0.39,0.28,0.69,0.67,0.89,1.19
				s0.31,1.14,0.31,1.87v0.43H26.7v-1.04h3.21c-0.04-0.54-0.18-0.96-0.42-1.25c-0.24-0.3-0.56-0.45-0.96-0.45
				c-0.49,0-0.87,0.16-1.14,0.48c-0.27,0.32-0.4,0.78-0.4,1.36v0.84c0,0.55,0.14,0.96,0.43,1.26s0.7,0.44,1.22,0.44
				c0.26,0,0.52-0.05,0.78-0.16c0.26-0.11,0.49-0.25,0.69-0.44l0.85,0.85c-0.33,0.31-0.69,0.56-1.1,0.73
				c-0.41,0.17-0.81,0.26-1.23,0.26C28.04,105.86,27.52,105.74,27.09,105.51z"/>
			<path d="M32.92,99.17h1.29v6.59h-1.29V99.17z M36.11,100.42c-0.17-0.07-0.38-0.11-0.6-0.11c-0.41,0-0.73,0.11-0.96,0.34
				c-0.23,0.23-0.34,0.54-0.34,0.94l-0.13-1.27c0.2-0.39,0.46-0.7,0.79-0.92c0.32-0.22,0.68-0.33,1.07-0.33
				c0.3,0,0.57,0.04,0.82,0.13s0.46,0.21,0.64,0.38l-0.84,1.14C36.43,100.59,36.28,100.49,36.11,100.42z"/>
			<path d="M38.24,104.4h1.36v2.06l-1.36,1.41V104.4z"/>
			<path d="M48.23,99.17h2.97v1.17h-2.97V99.17z M49.28,105.35c-0.25-0.29-0.37-0.73-0.37-1.3v-6.79h1.29v6.8
				c0,0.16,0.03,0.29,0.09,0.37c0.06,0.09,0.16,0.13,0.28,0.13h0.62v1.23h-0.75C49.92,105.79,49.53,105.65,49.28,105.35z"/>
			<path d="M54.04,105.52c-0.41-0.22-0.72-0.55-0.93-0.98s-0.32-0.95-0.32-1.55v-1.07c0-0.6,0.11-1.11,0.32-1.53
				c0.21-0.42,0.52-0.75,0.93-0.97c0.41-0.22,0.89-0.33,1.47-0.33s1.06,0.11,1.47,0.33c0.41,0.22,0.72,0.55,0.93,0.97
				c0.21,0.43,0.32,0.94,0.32,1.53v1.09c0,0.6-0.11,1.11-0.32,1.54c-0.21,0.43-0.52,0.75-0.93,0.97c-0.41,0.22-0.89,0.34-1.47,0.34
				S54.45,105.74,54.04,105.52z M56.56,104.2c0.25-0.28,0.37-0.68,0.37-1.19v-1.09c0-0.51-0.12-0.91-0.37-1.19
				c-0.25-0.28-0.6-0.42-1.05-0.42s-0.8,0.14-1.05,0.42c-0.25,0.28-0.37,0.67-0.37,1.19v1.09c0,0.51,0.12,0.91,0.37,1.19
				c0.25,0.28,0.6,0.43,1.05,0.43S56.31,104.48,56.56,104.2z"/>
			<path d="M61.36,103.18c0,0.46,0.12,0.82,0.35,1.07c0.23,0.25,0.57,0.38,0.99,0.38c0.42,0,0.75-0.11,0.98-0.34
				c0.23-0.22,0.35-0.54,0.35-0.96l0.09,1.38c-0.14,0.33-0.36,0.6-0.66,0.82c-0.3,0.22-0.68,0.33-1.12,0.33
				c-0.73,0-1.29-0.23-1.69-0.7c-0.4-0.47-0.59-1.13-0.59-1.98v-4.01h1.29V103.18z M64.04,99.17h1.29v6.59h-1.29V99.17z"/>
			<path d="M68.53,105.74c-0.34-0.08-0.66-0.19-0.96-0.34s-0.57-0.34-0.82-0.57l0.77-0.95c0.36,0.27,0.71,0.47,1.06,0.61
				c0.35,0.14,0.7,0.2,1.04,0.2c0.51,0,0.9-0.08,1.15-0.24c0.26-0.16,0.38-0.4,0.38-0.71c0-0.21-0.07-0.37-0.21-0.48
				c-0.14-0.11-0.31-0.18-0.52-0.21s-0.5-0.07-0.88-0.1c-0.03,0-0.07,0-0.11,0c-0.04,0-0.07,0-0.11-0.01c-0.02,0-0.03,0-0.05,0
				s-0.03,0-0.05,0c-0.43-0.03-0.79-0.1-1.08-0.19c-0.3-0.09-0.54-0.26-0.74-0.51c-0.2-0.25-0.29-0.61-0.29-1.07
				c0-0.46,0.1-0.85,0.29-1.16c0.19-0.31,0.47-0.54,0.85-0.7c0.38-0.15,0.85-0.23,1.42-0.23c0.34,0,0.67,0.03,0.98,0.09
				c0.31,0.06,0.61,0.16,0.89,0.28c0.28,0.12,0.56,0.28,0.82,0.47l-0.78,0.95c-0.33-0.21-0.66-0.37-0.97-0.48
				c-0.32-0.11-0.63-0.16-0.94-0.16c-0.44,0-0.77,0.08-0.99,0.23s-0.33,0.38-0.33,0.68c0,0.18,0.06,0.31,0.19,0.4
				s0.28,0.15,0.47,0.18c0.19,0.03,0.46,0.05,0.81,0.08c0.03,0,0.05,0.01,0.08,0.01s0.06,0,0.09,0.01c0.01,0,0.03,0,0.04,0
				s0.03,0,0.04,0.01c0.46,0.03,0.85,0.09,1.18,0.18c0.32,0.09,0.6,0.28,0.82,0.55c0.22,0.28,0.33,0.67,0.33,1.19
				c0,0.47-0.1,0.87-0.3,1.18c-0.2,0.31-0.51,0.54-0.92,0.7c-0.41,0.16-0.92,0.24-1.54,0.24C69.23,105.86,68.87,105.82,68.53,105.74
				z"/>
			<path d="M82.48,105.52c-0.42-0.22-0.75-0.55-0.97-0.98c-0.22-0.43-0.34-0.94-0.34-1.55v-1.08c0-0.6,0.11-1.11,0.34-1.53
				c0.22-0.42,0.55-0.75,0.97-0.97c0.43-0.22,0.94-0.33,1.54-0.33c0.34,0,0.67,0.04,0.97,0.12c0.3,0.08,0.57,0.2,0.82,0.36
				c0.24,0.16,0.44,0.35,0.6,0.57l-0.93,0.84c-0.19-0.21-0.4-0.38-0.65-0.49c-0.25-0.11-0.51-0.17-0.78-0.17
				c-0.5,0-0.89,0.14-1.16,0.42c-0.28,0.28-0.41,0.67-0.41,1.18v1.08c0,0.52,0.14,0.92,0.41,1.21c0.27,0.28,0.66,0.43,1.17,0.43
				c0.28,0,0.54-0.06,0.79-0.18c0.25-0.12,0.47-0.3,0.65-0.52l0.93,0.9c-0.17,0.22-0.37,0.41-0.61,0.56
				c-0.24,0.16-0.51,0.27-0.82,0.35c-0.3,0.08-0.62,0.12-0.96,0.12C83.42,105.86,82.91,105.74,82.48,105.52z"/>
			<path d="M88.98,105.51c-0.43-0.23-0.76-0.56-0.99-1.01c-0.23-0.44-0.34-0.98-0.34-1.6v-0.74c0-0.65,0.11-1.21,0.33-1.67
				c0.22-0.46,0.53-0.81,0.95-1.05c0.41-0.24,0.91-0.36,1.5-0.36c0.55,0,1.02,0.14,1.41,0.41c0.39,0.28,0.69,0.67,0.89,1.19
				s0.31,1.14,0.31,1.87v0.43h-4.44v-1.04h3.21c-0.04-0.54-0.18-0.96-0.42-1.25c-0.24-0.3-0.56-0.45-0.96-0.45
				c-0.49,0-0.87,0.16-1.14,0.48c-0.27,0.32-0.4,0.78-0.4,1.36v0.84c0,0.55,0.14,0.96,0.43,1.26s0.7,0.44,1.22,0.44
				c0.26,0,0.52-0.05,0.78-0.16c0.26-0.11,0.49-0.25,0.69-0.44l0.85,0.85c-0.33,0.31-0.69,0.56-1.1,0.73
				c-0.41,0.17-0.81,0.26-1.23,0.26C89.93,105.86,89.41,105.74,88.98,105.51z"/>
			<path d="M96.04,105.74c-0.34-0.08-0.66-0.19-0.96-0.34s-0.57-0.34-0.82-0.57l0.77-0.95c0.36,0.27,0.71,0.47,1.06,0.61
				c0.35,0.14,0.7,0.2,1.04,0.2c0.51,0,0.9-0.08,1.15-0.24c0.26-0.16,0.38-0.4,0.38-0.71c0-0.21-0.07-0.37-0.21-0.48
				c-0.14-0.11-0.31-0.18-0.52-0.21s-0.5-0.07-0.88-0.1c-0.03,0-0.07,0-0.11,0c-0.04,0-0.07,0-0.11-0.01c-0.02,0-0.03,0-0.05,0
				s-0.03,0-0.05,0c-0.43-0.03-0.79-0.1-1.08-0.19c-0.3-0.09-0.54-0.26-0.74-0.51c-0.2-0.25-0.29-0.61-0.29-1.07
				c0-0.46,0.1-0.85,0.29-1.16c0.19-0.31,0.47-0.54,0.85-0.7c0.38-0.15,0.85-0.23,1.42-0.23c0.34,0,0.67,0.03,0.98,0.09
				c0.31,0.06,0.61,0.16,0.89,0.28c0.28,0.12,0.56,0.28,0.82,0.47l-0.78,0.95c-0.33-0.21-0.66-0.37-0.97-0.48
				c-0.32-0.11-0.63-0.16-0.94-0.16c-0.44,0-0.77,0.08-0.99,0.23s-0.33,0.38-0.33,0.68c0,0.18,0.06,0.31,0.19,0.4
				s0.28,0.15,0.47,0.18c0.19,0.03,0.46,0.05,0.81,0.08c0.03,0,0.05,0.01,0.08,0.01s0.06,0,0.09,0.01c0.01,0,0.03,0,0.04,0
				s0.03,0,0.04,0.01c0.46,0.03,0.85,0.09,1.18,0.18c0.32,0.09,0.6,0.28,0.82,0.55c0.22,0.28,0.33,0.67,0.33,1.19
				c0,0.47-0.1,0.87-0.3,1.18c-0.2,0.31-0.51,0.54-0.92,0.7c-0.41,0.16-0.92,0.24-1.54,0.24C96.75,105.86,96.38,105.82,96.04,105.74
				z"/>
			<path d="M110.02,105.51c-0.43-0.23-0.76-0.56-0.99-1.01c-0.23-0.44-0.34-0.98-0.34-1.6v-0.74c0-0.65,0.11-1.21,0.33-1.67
				c0.22-0.46,0.53-0.81,0.95-1.05c0.41-0.24,0.91-0.36,1.5-0.36c0.55,0,1.02,0.14,1.41,0.41c0.39,0.28,0.69,0.67,0.89,1.19
				s0.31,1.14,0.31,1.87v0.43h-4.44v-1.04h3.21c-0.04-0.54-0.18-0.96-0.42-1.25c-0.24-0.3-0.56-0.45-0.96-0.45
				c-0.49,0-0.87,0.16-1.14,0.48c-0.27,0.32-0.4,0.78-0.4,1.36v0.84c0,0.55,0.14,0.96,0.43,1.26s0.7,0.44,1.22,0.44
				c0.26,0,0.52-0.05,0.78-0.16c0.26-0.11,0.49-0.25,0.69-0.44l0.85,0.85c-0.33,0.31-0.69,0.56-1.1,0.73
				c-0.41,0.17-0.81,0.26-1.23,0.26C110.97,105.86,110.45,105.74,110.02,105.51z M110.68,97.25L112.5,95l0.93,0.77l-1.94,2.13
				L110.68,97.25z"/>
			<path d="M117.14,104.06c0,0.16,0.04,0.29,0.1,0.37c0.07,0.09,0.17,0.13,0.3,0.13h0.61v1.23h-0.76c-0.49,0-0.87-0.15-1.14-0.46
				s-0.4-0.73-0.4-1.29v-7.52h1.29V104.06z"/>
			<path d="M120.75,105.51c-0.43-0.23-0.76-0.56-0.99-1.01c-0.23-0.44-0.34-0.98-0.34-1.6v-0.74c0-0.65,0.11-1.21,0.33-1.67
				c0.22-0.46,0.53-0.81,0.95-1.05c0.41-0.24,0.91-0.36,1.5-0.36c0.55,0,1.02,0.14,1.41,0.41c0.39,0.28,0.69,0.67,0.89,1.19
				s0.31,1.14,0.31,1.87v0.43h-4.44v-1.04h3.21c-0.04-0.54-0.18-0.96-0.42-1.25c-0.24-0.3-0.56-0.45-0.96-0.45
				c-0.49,0-0.87,0.16-1.14,0.48c-0.27,0.32-0.4,0.78-0.4,1.36v0.84c0,0.55,0.14,0.96,0.43,1.26s0.7,0.44,1.22,0.44
				c0.26,0,0.52-0.05,0.78-0.16c0.26-0.11,0.49-0.25,0.69-0.44l0.85,0.85c-0.33,0.31-0.69,0.56-1.1,0.73
				c-0.41,0.17-0.81,0.26-1.23,0.26C121.7,105.86,121.18,105.74,120.75,105.51z M121.41,97.25l1.82-2.25l0.93,0.77l-1.94,2.13
				L121.41,97.25z"/>
			<path d="M126.58,99.17h1.29v6.59h-1.29V99.17z M130.52,101.77c0-0.47-0.11-0.83-0.34-1.08s-0.55-0.38-0.97-0.38
				c-0.42,0-0.75,0.11-0.98,0.34c-0.23,0.22-0.35,0.54-0.35,0.95l-0.13-1.27c0.2-0.4,0.47-0.71,0.8-0.92s0.69-0.32,1.09-0.32
				c0.46,0,0.85,0.1,1.18,0.31c0.33,0.21,0.57,0.52,0.75,0.92c0.17,0.4,0.26,0.89,0.26,1.45v4h-1.29V101.77z M134.45,101.77
				c0-0.47-0.12-0.83-0.36-1.08c-0.24-0.25-0.58-0.38-1.02-0.38c-0.4,0-0.71,0.12-0.93,0.37c-0.22,0.25-0.33,0.59-0.33,1.04
				l-0.26-1.27c0.21-0.44,0.48-0.77,0.82-1.01s0.72-0.36,1.13-0.36c0.47,0,0.88,0.1,1.22,0.31c0.34,0.21,0.59,0.52,0.77,0.92
				c0.18,0.4,0.26,0.89,0.26,1.45v4h-1.29V101.77z"/>
			<path d="M138.85,105.51c-0.43-0.23-0.76-0.56-0.99-1.01c-0.23-0.44-0.34-0.98-0.34-1.6v-0.74c0-0.65,0.11-1.21,0.33-1.67
				c0.22-0.46,0.53-0.81,0.95-1.05c0.41-0.24,0.91-0.36,1.5-0.36c0.55,0,1.02,0.14,1.41,0.41c0.39,0.28,0.69,0.67,0.89,1.19
				s0.31,1.14,0.31,1.87v0.43h-4.44v-1.04h3.21c-0.04-0.54-0.18-0.96-0.42-1.25c-0.24-0.3-0.56-0.45-0.96-0.45
				c-0.49,0-0.87,0.16-1.14,0.48c-0.27,0.32-0.4,0.78-0.4,1.36v0.84c0,0.55,0.14,0.96,0.43,1.26s0.7,0.44,1.22,0.44
				c0.26,0,0.52-0.05,0.78-0.16c0.26-0.11,0.49-0.25,0.69-0.44l0.85,0.85c-0.33,0.31-0.69,0.56-1.1,0.73
				c-0.41,0.17-0.81,0.26-1.23,0.26C139.8,105.86,139.28,105.74,138.85,105.51z"/>
			<path d="M144.68,99.17h1.29v6.59h-1.29V99.17z M148.68,101.77c0-0.47-0.12-0.83-0.36-1.08c-0.24-0.25-0.58-0.38-1.02-0.38
				c-0.42,0-0.75,0.11-0.98,0.34c-0.23,0.22-0.35,0.54-0.35,0.95l-0.13-1.27c0.2-0.4,0.47-0.71,0.8-0.92s0.69-0.32,1.09-0.32
				c0.71,0,1.27,0.23,1.66,0.7s0.59,1.13,0.59,1.98v4h-1.29V101.77z"/>
			<path d="M151.44,99.17h2.97v1.17h-2.97V99.17z M152.49,105.35c-0.25-0.29-0.37-0.73-0.37-1.3v-6.79h1.29v6.8
				c0,0.16,0.03,0.29,0.09,0.37c0.06,0.09,0.16,0.13,0.28,0.13h0.62v1.23h-0.75C153.13,105.79,152.74,105.65,152.49,105.35z"/>
			<path d="M157.42,105.74c-0.34-0.08-0.66-0.19-0.96-0.34s-0.57-0.34-0.82-0.57l0.77-0.95c0.36,0.27,0.71,0.47,1.06,0.61
				c0.35,0.14,0.7,0.2,1.04,0.2c0.51,0,0.9-0.08,1.15-0.24c0.26-0.16,0.38-0.4,0.38-0.71c0-0.21-0.07-0.37-0.21-0.48
				c-0.14-0.11-0.31-0.18-0.52-0.21s-0.5-0.07-0.88-0.1c-0.03,0-0.07,0-0.11,0c-0.04,0-0.07,0-0.11-0.01c-0.02,0-0.03,0-0.05,0
				s-0.03,0-0.05,0c-0.43-0.03-0.79-0.1-1.08-0.19c-0.3-0.09-0.54-0.26-0.74-0.51c-0.2-0.25-0.29-0.61-0.29-1.07
				c0-0.46,0.1-0.85,0.29-1.16c0.19-0.31,0.47-0.54,0.85-0.7c0.38-0.15,0.85-0.23,1.42-0.23c0.34,0,0.67,0.03,0.98,0.09
				c0.31,0.06,0.61,0.16,0.89,0.28c0.28,0.12,0.56,0.28,0.82,0.47l-0.78,0.95c-0.33-0.21-0.66-0.37-0.97-0.48
				c-0.32-0.11-0.63-0.16-0.94-0.16c-0.44,0-0.77,0.08-0.99,0.23s-0.33,0.38-0.33,0.68c0,0.18,0.06,0.31,0.19,0.4
				s0.28,0.15,0.47,0.18c0.19,0.03,0.46,0.05,0.81,0.08c0.03,0,0.05,0.01,0.08,0.01s0.06,0,0.09,0.01c0.01,0,0.03,0,0.04,0
				s0.03,0,0.04,0.01c0.46,0.03,0.85,0.09,1.18,0.18c0.32,0.09,0.6,0.28,0.82,0.55c0.22,0.28,0.33,0.67,0.33,1.19
				c0,0.47-0.1,0.87-0.3,1.18c-0.2,0.31-0.51,0.54-0.92,0.7c-0.41,0.16-0.92,0.24-1.54,0.24
				C158.13,105.86,157.76,105.82,157.42,105.74z"/>
			<path d="M171.38,105.52c-0.42-0.22-0.75-0.55-0.97-0.98c-0.22-0.43-0.34-0.94-0.34-1.55v-1.08c0-0.6,0.11-1.11,0.34-1.53
				c0.22-0.42,0.55-0.75,0.97-0.97c0.43-0.22,0.94-0.33,1.54-0.33c0.34,0,0.67,0.04,0.97,0.12c0.3,0.08,0.57,0.2,0.82,0.36
				c0.24,0.16,0.44,0.35,0.6,0.57l-0.93,0.84c-0.19-0.21-0.4-0.38-0.65-0.49c-0.25-0.11-0.51-0.17-0.78-0.17
				c-0.5,0-0.89,0.14-1.16,0.42c-0.28,0.28-0.41,0.67-0.41,1.18v1.08c0,0.52,0.14,0.92,0.41,1.21c0.27,0.28,0.66,0.43,1.17,0.43
				c0.28,0,0.54-0.06,0.79-0.18c0.25-0.12,0.47-0.3,0.65-0.52l0.93,0.9c-0.17,0.22-0.37,0.41-0.61,0.56
				c-0.24,0.16-0.51,0.27-0.82,0.35c-0.3,0.08-0.62,0.12-0.96,0.12C172.32,105.86,171.8,105.74,171.38,105.52z"/>
			<path d="M177.79,105.52c-0.41-0.22-0.72-0.55-0.93-0.98s-0.32-0.95-0.32-1.55v-1.07c0-0.6,0.11-1.11,0.32-1.53
				c0.21-0.42,0.52-0.75,0.93-0.97c0.41-0.22,0.89-0.33,1.47-0.33s1.06,0.11,1.47,0.33c0.41,0.22,0.72,0.55,0.93,0.97
				c0.21,0.43,0.32,0.94,0.32,1.53v1.09c0,0.6-0.11,1.11-0.32,1.54c-0.21,0.43-0.52,0.75-0.93,0.97c-0.41,0.22-0.89,0.34-1.47,0.34
				S178.2,105.74,177.79,105.52z M180.31,104.2c0.25-0.28,0.37-0.68,0.37-1.19v-1.09c0-0.51-0.12-0.91-0.37-1.19
				c-0.25-0.28-0.6-0.42-1.05-0.42s-0.8,0.14-1.05,0.42c-0.25,0.28-0.37,0.67-0.37,1.19v1.09c0,0.51,0.12,0.91,0.37,1.19
				c0.25,0.28,0.6,0.43,1.05,0.43S180.06,104.48,180.31,104.2z"/>
			<path d="M183.82,99.17h1.29v6.59h-1.29V99.17z M187.81,101.77c0-0.47-0.12-0.83-0.36-1.08c-0.24-0.25-0.58-0.38-1.02-0.38
				c-0.42,0-0.75,0.11-0.98,0.34c-0.23,0.22-0.35,0.54-0.35,0.95l-0.13-1.27c0.2-0.4,0.47-0.71,0.8-0.92s0.69-0.32,1.09-0.32
				c0.71,0,1.27,0.23,1.66,0.7s0.59,1.13,0.59,1.98v4h-1.29V101.77z"/>
			<path d="M190.57,99.17h2.97v1.17h-2.97V99.17z M191.62,105.35c-0.25-0.29-0.37-0.73-0.37-1.3v-6.79h1.29v6.8
				c0,0.16,0.03,0.29,0.09,0.37c0.06,0.09,0.16,0.13,0.28,0.13h0.62v1.23h-0.75C192.26,105.79,191.87,105.65,191.62,105.35z"/>
			<path d="M195.32,99.17h1.29v6.59h-1.29V99.17z M198.51,100.42c-0.17-0.07-0.38-0.11-0.6-0.11c-0.41,0-0.73,0.11-0.96,0.34
				c-0.23,0.23-0.34,0.54-0.34,0.94l-0.13-1.27c0.2-0.39,0.46-0.7,0.79-0.92c0.32-0.22,0.68-0.33,1.07-0.33
				c0.3,0,0.57,0.04,0.82,0.13s0.46,0.21,0.64,0.38l-0.84,1.14C198.83,100.59,198.68,100.49,198.51,100.42z"/>
			<path d="M200.87,96.53h1.29v1.29h-1.29V96.53z M200.87,99.17h1.29v6.59h-1.29V99.17z"/>
			<path d="M204.13,96.53h1.29v9.23h-1.29V96.53z M206.01,105.56c-0.3-0.2-0.53-0.47-0.67-0.83l0.09-1.38
				c0,0.28,0.05,0.53,0.15,0.72c0.1,0.2,0.25,0.35,0.44,0.46c0.19,0.11,0.43,0.16,0.7,0.16c0.43,0,0.76-0.13,0.99-0.39
				c0.24-0.26,0.35-0.63,0.35-1.1v-1.43c0-0.48-0.12-0.86-0.35-1.12c-0.23-0.27-0.57-0.4-0.99-0.4c-0.28,0-0.51,0.05-0.7,0.15
				s-0.34,0.25-0.44,0.45c-0.1,0.2-0.15,0.43-0.15,0.71l-0.13-1.27c0.2-0.39,0.46-0.68,0.78-0.89c0.32-0.21,0.68-0.31,1.07-0.31
				c0.46,0,0.86,0.1,1.2,0.31c0.33,0.21,0.58,0.52,0.76,0.92c0.17,0.4,0.26,0.89,0.26,1.45v1.43c0,0.56-0.09,1.04-0.27,1.43
				c-0.18,0.4-0.44,0.7-0.78,0.91c-0.34,0.21-0.75,0.31-1.23,0.31C206.67,105.86,206.31,105.76,206.01,105.56z"/>
			<path d="M212.49,103.18c0,0.46,0.12,0.82,0.35,1.07c0.23,0.25,0.57,0.38,0.99,0.38c0.42,0,0.75-0.11,0.98-0.34
				c0.23-0.22,0.35-0.54,0.35-0.96l0.09,1.38c-0.14,0.33-0.36,0.6-0.66,0.82c-0.3,0.22-0.68,0.33-1.12,0.33
				c-0.73,0-1.29-0.23-1.69-0.7c-0.4-0.47-0.59-1.13-0.59-1.98v-4.01h1.29V103.18z M215.17,99.17h1.29v6.59h-1.29V99.17z"/>
			<path d="M219.57,105.51c-0.43-0.23-0.76-0.56-0.99-1.01c-0.23-0.44-0.34-0.98-0.34-1.6v-0.74c0-0.65,0.11-1.21,0.33-1.67
				c0.22-0.46,0.53-0.81,0.95-1.05c0.41-0.24,0.91-0.36,1.5-0.36c0.55,0,1.02,0.14,1.41,0.41c0.39,0.28,0.69,0.67,0.89,1.19
				s0.31,1.14,0.31,1.87v0.43h-4.44v-1.04h3.21c-0.04-0.54-0.18-0.96-0.42-1.25c-0.24-0.3-0.56-0.45-0.96-0.45
				c-0.49,0-0.87,0.16-1.14,0.48c-0.27,0.32-0.4,0.78-0.4,1.36v0.84c0,0.55,0.14,0.96,0.43,1.26s0.7,0.44,1.22,0.44
				c0.26,0,0.52-0.05,0.78-0.16c0.26-0.11,0.49-0.25,0.69-0.44l0.85,0.85c-0.33,0.31-0.69,0.56-1.1,0.73
				c-0.41,0.17-0.81,0.26-1.23,0.26C220.52,105.86,220,105.74,219.57,105.51z"/>
			<path d="M225.4,99.17h1.29v6.59h-1.29V99.17z M229.4,101.77c0-0.47-0.12-0.83-0.36-1.08c-0.24-0.25-0.58-0.38-1.02-0.38
				c-0.42,0-0.75,0.11-0.98,0.34c-0.23,0.22-0.35,0.54-0.35,0.95l-0.13-1.27c0.2-0.4,0.47-0.71,0.8-0.92s0.69-0.32,1.09-0.32
				c0.71,0,1.27,0.23,1.66,0.7s0.59,1.13,0.59,1.98v4h-1.29V101.77z"/>
			<path d="M232.15,99.17h2.97v1.17h-2.97V99.17z M233.2,105.35c-0.25-0.29-0.37-0.73-0.37-1.3v-6.79h1.29v6.8
				c0,0.16,0.03,0.29,0.09,0.37c0.06,0.09,0.16,0.13,0.28,0.13h0.62v1.23h-0.75C233.84,105.79,233.45,105.65,233.2,105.35z"/>
			<path d="M244.51,105.35c-0.4-0.34-0.6-0.85-0.6-1.53c0-0.65,0.18-1.14,0.55-1.47c0.37-0.33,0.92-0.49,1.67-0.49h1.87l0.09,1.04
				h-1.96c-0.34,0-0.59,0.08-0.76,0.23s-0.25,0.38-0.25,0.69c0,0.33,0.11,0.58,0.33,0.74c0.22,0.16,0.56,0.24,1.01,0.24
				c0.5,0,0.86-0.05,1.11-0.16c0.24-0.11,0.37-0.27,0.37-0.5l0.13,0.93c-0.12,0.18-0.26,0.32-0.42,0.44s-0.36,0.2-0.58,0.26
				c-0.22,0.06-0.47,0.09-0.74,0.09C245.52,105.86,244.92,105.69,244.51,105.35z M247.95,101.58c0-0.43-0.12-0.77-0.35-1.01
				s-0.56-0.36-0.98-0.36c-0.26,0-0.52,0.04-0.77,0.12c-0.25,0.08-0.48,0.19-0.67,0.34l-0.95-0.65c0.25-0.3,0.58-0.53,0.99-0.7
				c0.41-0.17,0.86-0.25,1.36-0.25c0.54,0,1.01,0.1,1.4,0.29c0.39,0.19,0.69,0.47,0.89,0.84c0.2,0.37,0.3,0.81,0.3,1.32v4.23h-1.23
				V101.58z M244.55,95.77l0.93-0.77l1.82,2.25l-0.81,0.65L244.55,95.77z"/>
			<path d="M9.38,121.34c-0.34-0.08-0.66-0.19-0.96-0.34s-0.57-0.34-0.82-0.57l0.77-0.95c0.36,0.27,0.71,0.47,1.06,0.61
				c0.35,0.13,0.7,0.2,1.04,0.2c0.51,0,0.9-0.08,1.15-0.24c0.26-0.16,0.38-0.4,0.38-0.71c0-0.21-0.07-0.37-0.21-0.48
				c-0.14-0.11-0.31-0.18-0.52-0.21c-0.21-0.04-0.5-0.07-0.88-0.1c-0.03,0-0.07,0-0.11,0c-0.04,0-0.07-0.01-0.11-0.01
				c-0.02,0-0.03,0-0.05,0c-0.02,0-0.03,0-0.05,0c-0.43-0.03-0.79-0.1-1.08-0.19c-0.3-0.09-0.54-0.26-0.74-0.51
				c-0.2-0.25-0.29-0.61-0.29-1.07c0-0.47,0.1-0.85,0.29-1.16c0.19-0.31,0.47-0.54,0.85-0.69c0.38-0.16,0.85-0.23,1.42-0.23
				c0.34,0,0.67,0.03,0.98,0.1c0.31,0.06,0.61,0.16,0.89,0.28c0.28,0.12,0.56,0.28,0.82,0.47l-0.78,0.95
				c-0.33-0.21-0.66-0.37-0.97-0.48c-0.32-0.11-0.63-0.16-0.94-0.16c-0.44,0-0.77,0.08-0.99,0.23c-0.22,0.15-0.33,0.38-0.33,0.68
				c0,0.18,0.06,0.31,0.19,0.4s0.28,0.15,0.47,0.18c0.19,0.03,0.46,0.06,0.81,0.08c0.03,0,0.05,0.01,0.08,0.01s0.06,0,0.09,0.01
				c0.01,0,0.03,0,0.04,0s0.03,0,0.04,0.01c0.46,0.03,0.85,0.09,1.18,0.18c0.32,0.09,0.6,0.28,0.82,0.55
				c0.22,0.27,0.33,0.67,0.33,1.19c0,0.47-0.1,0.87-0.3,1.18c-0.2,0.31-0.51,0.54-0.92,0.7c-0.41,0.16-0.92,0.23-1.54,0.23
				C10.09,121.46,9.73,121.42,9.38,121.34z"/>
			<path d="M15.95,121.12c-0.41-0.22-0.72-0.55-0.93-0.98c-0.21-0.43-0.32-0.95-0.32-1.55v-1.07c0-0.6,0.11-1.11,0.32-1.53
				c0.21-0.42,0.52-0.75,0.93-0.97c0.41-0.22,0.89-0.33,1.47-0.33s1.06,0.11,1.47,0.33c0.41,0.22,0.72,0.55,0.93,0.97
				c0.21,0.43,0.32,0.94,0.32,1.53v1.09c0,0.6-0.11,1.11-0.32,1.54c-0.21,0.43-0.52,0.75-0.93,0.97c-0.41,0.22-0.89,0.34-1.47,0.34
				S16.36,121.34,15.95,121.12z M18.47,119.8c0.25-0.28,0.37-0.68,0.37-1.19v-1.09c0-0.51-0.12-0.91-0.37-1.19
				c-0.25-0.28-0.6-0.42-1.05-0.42s-0.8,0.14-1.05,0.42C16.12,116.61,16,117,16,117.51v1.09c0,0.51,0.12,0.91,0.37,1.19
				c0.25,0.28,0.6,0.42,1.05,0.42S18.22,120.08,18.47,119.8z"/>
			<path d="M21.98,114.77h1.29v6.59h-1.29V114.77z M25.97,117.37c0-0.46-0.12-0.83-0.36-1.08c-0.24-0.25-0.58-0.38-1.02-0.38
				c-0.42,0-0.75,0.11-0.98,0.34c-0.23,0.22-0.35,0.54-0.35,0.95l-0.13-1.27c0.2-0.4,0.47-0.7,0.8-0.92s0.69-0.32,1.09-0.32
				c0.71,0,1.27,0.23,1.66,0.7c0.39,0.47,0.59,1.13,0.59,1.98v4h-1.29V117.37z"/>
			<path d="M32.3,112.13h1.29v9.23H32.3V112.13z M34.18,121.16c-0.3-0.2-0.53-0.47-0.67-0.83l0.09-1.38c0,0.28,0.05,0.52,0.15,0.72
				c0.1,0.2,0.25,0.35,0.44,0.46c0.19,0.11,0.43,0.16,0.7,0.16c0.43,0,0.76-0.13,0.99-0.39c0.24-0.26,0.35-0.63,0.35-1.1v-1.43
				c0-0.48-0.12-0.86-0.35-1.12c-0.23-0.27-0.57-0.4-0.99-0.4c-0.28,0-0.51,0.05-0.7,0.15s-0.34,0.25-0.44,0.45
				c-0.1,0.2-0.15,0.43-0.15,0.71l-0.13-1.27c0.2-0.38,0.46-0.68,0.78-0.89c0.32-0.21,0.68-0.31,1.07-0.31
				c0.46,0,0.86,0.11,1.2,0.31c0.33,0.21,0.58,0.52,0.76,0.92c0.17,0.4,0.26,0.89,0.26,1.45v1.43c0,0.56-0.09,1.04-0.27,1.43
				c-0.18,0.4-0.44,0.7-0.78,0.91c-0.34,0.21-0.75,0.31-1.23,0.31C34.85,121.46,34.49,121.36,34.18,121.16z"/>
			<path d="M39.38,112.13h1.29v1.29h-1.29V112.13z M39.38,114.77h1.29v6.59h-1.29V114.77z"/>
			<path d="M43.77,121.11c-0.43-0.23-0.76-0.56-0.99-1.01s-0.34-0.98-0.34-1.6v-0.74c0-0.65,0.11-1.21,0.33-1.67
				c0.22-0.46,0.53-0.81,0.95-1.05c0.41-0.24,0.91-0.36,1.5-0.36c0.55,0,1.02,0.14,1.41,0.41c0.39,0.27,0.69,0.67,0.89,1.19
				s0.31,1.14,0.31,1.87v0.43h-4.44v-1.04h3.21c-0.04-0.54-0.18-0.96-0.42-1.25c-0.24-0.3-0.56-0.45-0.96-0.45
				c-0.49,0-0.87,0.16-1.14,0.48c-0.27,0.32-0.4,0.78-0.4,1.37v0.84c0,0.55,0.14,0.96,0.43,1.26s0.7,0.44,1.22,0.44
				c0.26,0,0.52-0.05,0.78-0.16c0.26-0.11,0.49-0.25,0.69-0.44l0.85,0.85c-0.33,0.31-0.69,0.56-1.1,0.73
				c-0.41,0.17-0.81,0.26-1.23,0.26C44.73,121.46,44.21,121.34,43.77,121.11z"/>
			<path d="M49.61,114.77h1.29v6.59h-1.29V114.77z M53.61,117.37c0-0.46-0.12-0.83-0.36-1.08c-0.24-0.25-0.58-0.38-1.02-0.38
				c-0.42,0-0.75,0.11-0.98,0.34c-0.23,0.22-0.35,0.54-0.35,0.95l-0.13-1.27c0.2-0.4,0.47-0.7,0.8-0.92s0.69-0.32,1.09-0.32
				c0.71,0,1.27,0.23,1.66,0.7c0.39,0.47,0.59,1.13,0.59,1.98v4h-1.29V117.37z"/>
			<path d="M61.14,117.44v1.23h-4.27v-1.23H61.14z"/>
			<path d="M64.24,121.11c-0.43-0.23-0.76-0.56-0.99-1.01s-0.34-0.98-0.34-1.6v-0.74c0-0.65,0.11-1.21,0.33-1.67
				c0.22-0.46,0.53-0.81,0.95-1.05c0.41-0.24,0.91-0.36,1.5-0.36c0.55,0,1.02,0.14,1.41,0.41c0.39,0.27,0.69,0.67,0.89,1.19
				s0.31,1.14,0.31,1.87v0.43h-4.44v-1.04h3.21c-0.04-0.54-0.18-0.96-0.42-1.25c-0.24-0.3-0.56-0.45-0.96-0.45
				c-0.49,0-0.87,0.16-1.14,0.48c-0.27,0.32-0.4,0.78-0.4,1.37v0.84c0,0.55,0.14,0.96,0.43,1.26s0.7,0.44,1.22,0.44
				c0.26,0,0.52-0.05,0.78-0.16c0.26-0.11,0.49-0.25,0.69-0.44l0.85,0.85c-0.33,0.31-0.69,0.56-1.1,0.73
				c-0.41,0.17-0.81,0.26-1.23,0.26C65.19,121.46,64.67,121.34,64.24,121.11z M67.6,112.84l-0.72,0.67l-1.27-1.21l-1.27,1.21
				l-0.72-0.67l1.99-1.93L67.6,112.84z"/>
			<path d="M69.56,114.77h2.97v1.17h-2.97V114.77z M70.62,120.95c-0.25-0.29-0.37-0.73-0.37-1.3v-6.79h1.29v6.8
				c0,0.16,0.03,0.28,0.09,0.37s0.16,0.13,0.28,0.13h0.62v1.23h-0.75C71.25,121.39,70.86,121.25,70.62,120.95z"/>
			<path d="M74.31,114.77h1.29v6.59h-1.29V114.77z M77.51,116.02c-0.17-0.07-0.38-0.11-0.6-0.11c-0.41,0-0.73,0.11-0.96,0.34
				s-0.34,0.54-0.34,0.94l-0.13-1.27c0.2-0.39,0.46-0.7,0.79-0.92c0.32-0.22,0.68-0.33,1.07-0.33c0.3,0,0.57,0.04,0.82,0.13
				c0.24,0.09,0.46,0.21,0.64,0.38l-0.84,1.14C77.82,116.19,77.68,116.09,77.51,116.02z"/>
			<path d="M81,121.11c-0.43-0.23-0.76-0.56-0.99-1.01s-0.34-0.98-0.34-1.6v-0.74c0-0.65,0.11-1.21,0.33-1.67
				c0.22-0.46,0.53-0.81,0.95-1.05c0.41-0.24,0.91-0.36,1.5-0.36c0.55,0,1.02,0.14,1.41,0.41c0.39,0.27,0.69,0.67,0.89,1.19
				s0.31,1.14,0.31,1.87v0.43h-4.44v-1.04h3.21c-0.04-0.54-0.18-0.96-0.42-1.25c-0.24-0.3-0.56-0.45-0.96-0.45
				c-0.49,0-0.87,0.16-1.14,0.48c-0.27,0.32-0.4,0.78-0.4,1.37v0.84c0,0.55,0.14,0.96,0.43,1.26s0.7,0.44,1.22,0.44
				c0.26,0,0.52-0.05,0.78-0.16c0.26-0.11,0.49-0.25,0.69-0.44l0.85,0.85c-0.33,0.31-0.69,0.56-1.1,0.73
				c-0.41,0.17-0.81,0.26-1.23,0.26C81.95,121.46,81.43,121.34,81,121.11z"/>
			<path d="M91.03,121.11c-0.43-0.23-0.76-0.56-0.99-1.01s-0.34-0.98-0.34-1.6v-0.74c0-0.65,0.11-1.21,0.33-1.67
				c0.22-0.46,0.53-0.81,0.95-1.05c0.41-0.24,0.91-0.36,1.5-0.36c0.55,0,1.02,0.14,1.41,0.41c0.39,0.27,0.69,0.67,0.89,1.19
				s0.31,1.14,0.31,1.87v0.43h-4.44v-1.04h3.21c-0.04-0.54-0.18-0.96-0.42-1.25c-0.24-0.3-0.56-0.45-0.96-0.45
				c-0.49,0-0.87,0.16-1.14,0.48c-0.27,0.32-0.4,0.78-0.4,1.37v0.84c0,0.55,0.14,0.96,0.43,1.26s0.7,0.44,1.22,0.44
				c0.26,0,0.52-0.05,0.78-0.16c0.26-0.11,0.49-0.25,0.69-0.44l0.85,0.85c-0.33,0.31-0.69,0.56-1.1,0.73
				c-0.41,0.17-0.81,0.26-1.23,0.26C91.98,121.46,91.47,121.34,91.03,121.11z"/>
			<path d="M96.87,114.77h1.29v6.59h-1.29V114.77z M100.87,117.37c0-0.46-0.12-0.83-0.36-1.08c-0.24-0.25-0.58-0.38-1.02-0.38
				c-0.42,0-0.75,0.11-0.98,0.34c-0.23,0.22-0.35,0.54-0.35,0.95l-0.13-1.27c0.2-0.4,0.47-0.7,0.8-0.92s0.69-0.32,1.09-0.32
				c0.71,0,1.27,0.23,1.66,0.7c0.39,0.47,0.59,1.13,0.59,1.98v4h-1.29V117.37z"/>
			<path d="M108.33,121.11c-0.43-0.23-0.76-0.56-0.99-1.01s-0.34-0.98-0.34-1.6v-0.74c0-0.65,0.11-1.21,0.33-1.67
				c0.22-0.46,0.53-0.81,0.95-1.05c0.41-0.24,0.91-0.36,1.5-0.36c0.55,0,1.02,0.14,1.41,0.41c0.39,0.27,0.69,0.67,0.89,1.19
				s0.31,1.14,0.31,1.87v0.43h-4.44v-1.04h3.21c-0.04-0.54-0.18-0.96-0.42-1.25c-0.24-0.3-0.56-0.45-0.96-0.45
				c-0.49,0-0.87,0.16-1.14,0.48c-0.27,0.32-0.4,0.78-0.4,1.37v0.84c0,0.55,0.14,0.96,0.43,1.26s0.7,0.44,1.22,0.44
				c0.26,0,0.52-0.05,0.78-0.16c0.26-0.11,0.49-0.25,0.69-0.44l0.85,0.85c-0.33,0.31-0.69,0.56-1.1,0.73
				c-0.41,0.17-0.81,0.26-1.23,0.26C109.28,121.46,108.76,121.34,108.33,121.11z"/>
			<path d="M114.17,114.77h1.29v6.59h-1.29V114.77z M118.16,117.37c0-0.46-0.12-0.83-0.36-1.08c-0.24-0.25-0.58-0.38-1.02-0.38
				c-0.42,0-0.75,0.11-0.98,0.34c-0.23,0.22-0.35,0.54-0.35,0.95l-0.13-1.27c0.2-0.4,0.47-0.7,0.8-0.92s0.69-0.32,1.09-0.32
				c0.71,0,1.27,0.23,1.66,0.7c0.39,0.47,0.59,1.13,0.59,1.98v4h-1.29V117.37z"/>
			<path d="M120.92,114.77h2.97v1.17h-2.97V114.77z M121.97,120.95c-0.25-0.29-0.37-0.73-0.37-1.3v-6.79h1.29v6.8
				c0,0.16,0.03,0.28,0.09,0.37s0.16,0.13,0.28,0.13h0.62v1.23h-0.75C122.61,121.39,122.22,121.25,121.97,120.95z"/>
			<path d="M125.67,114.77h1.29v6.59h-1.29V114.77z M128.86,116.02c-0.17-0.07-0.38-0.11-0.6-0.11c-0.41,0-0.73,0.11-0.96,0.34
				s-0.34,0.54-0.34,0.94l-0.13-1.27c0.2-0.39,0.46-0.7,0.79-0.92c0.32-0.22,0.68-0.33,1.07-0.33c0.3,0,0.57,0.04,0.81,0.13
				c0.24,0.09,0.46,0.21,0.64,0.38l-0.84,1.14C129.18,116.19,129.03,116.09,128.86,116.02z"/>
			<path d="M132.35,121.11c-0.43-0.23-0.76-0.56-0.99-1.01s-0.34-0.98-0.34-1.6v-0.74c0-0.65,0.11-1.21,0.33-1.67
				c0.22-0.46,0.53-0.81,0.95-1.05c0.41-0.24,0.91-0.36,1.5-0.36c0.55,0,1.02,0.14,1.41,0.41c0.39,0.27,0.69,0.67,0.89,1.19
				s0.31,1.14,0.31,1.87v0.43h-4.44v-1.04h3.21c-0.04-0.54-0.18-0.96-0.42-1.25c-0.24-0.3-0.56-0.45-0.96-0.45
				c-0.49,0-0.87,0.16-1.14,0.48c-0.27,0.32-0.4,0.78-0.4,1.37v0.84c0,0.55,0.14,0.96,0.43,1.26s0.7,0.44,1.22,0.44
				c0.26,0,0.52-0.05,0.78-0.16c0.26-0.11,0.49-0.25,0.69-0.44l0.85,0.85c-0.33,0.31-0.69,0.56-1.1,0.73
				c-0.41,0.17-0.81,0.26-1.23,0.26C133.3,121.46,132.78,121.34,132.35,121.11z"/>
			<path d="M137.68,114.77h2.97v1.17h-2.97V114.77z M138.73,120.95c-0.25-0.29-0.37-0.73-0.37-1.3v-6.79h1.29v6.8
				c0,0.16,0.03,0.28,0.09,0.37s0.16,0.13,0.28,0.13h0.62v1.23h-0.75C139.37,121.39,138.97,121.25,138.73,120.95z"/>
			<path d="M143.56,121.11c-0.43-0.23-0.76-0.56-0.99-1.01s-0.34-0.98-0.34-1.6v-0.74c0-0.65,0.11-1.21,0.33-1.67
				c0.22-0.46,0.53-0.81,0.95-1.05c0.41-0.24,0.91-0.36,1.5-0.36c0.55,0,1.02,0.14,1.41,0.41c0.39,0.27,0.69,0.67,0.89,1.19
				s0.31,1.14,0.31,1.87v0.43h-4.44v-1.04h3.21c-0.04-0.54-0.18-0.96-0.42-1.25c-0.24-0.3-0.56-0.45-0.96-0.45
				c-0.49,0-0.87,0.16-1.14,0.48c-0.27,0.32-0.4,0.78-0.4,1.37v0.84c0,0.55,0.14,0.96,0.43,1.26s0.7,0.44,1.22,0.44
				c0.26,0,0.52-0.05,0.78-0.16c0.26-0.11,0.49-0.25,0.69-0.44l0.85,0.85c-0.33,0.31-0.69,0.56-1.1,0.73
				c-0.41,0.17-0.81,0.26-1.23,0.26C144.51,121.46,143.99,121.34,143.56,121.11z"/>
			<path d="M149.39,114.77h1.29v6.59h-1.29V114.77z M153.39,117.37c0-0.46-0.12-0.83-0.36-1.08c-0.24-0.25-0.58-0.38-1.02-0.38
				c-0.42,0-0.75,0.11-0.98,0.34c-0.23,0.22-0.35,0.54-0.35,0.95l-0.13-1.27c0.2-0.4,0.47-0.7,0.8-0.92s0.69-0.32,1.09-0.32
				c0.71,0,1.27,0.23,1.66,0.7c0.39,0.47,0.59,1.13,0.59,1.98v4h-1.29V117.37z"/>
			<path d="M156.94,120.95c-0.4-0.34-0.6-0.85-0.6-1.53c0-0.65,0.18-1.14,0.55-1.47c0.37-0.33,0.92-0.49,1.67-0.49h1.87l0.09,1.04
				h-1.96c-0.34,0-0.59,0.08-0.76,0.23c-0.17,0.15-0.25,0.38-0.25,0.69c0,0.33,0.11,0.58,0.33,0.74c0.22,0.16,0.56,0.24,1.01,0.24
				c0.5,0,0.86-0.05,1.11-0.16c0.24-0.11,0.37-0.27,0.37-0.5l0.13,0.93c-0.12,0.18-0.26,0.32-0.42,0.44s-0.36,0.2-0.58,0.26
				c-0.22,0.06-0.47,0.08-0.74,0.08C157.95,121.46,157.34,121.29,156.94,120.95z M160.38,117.18c0-0.43-0.12-0.77-0.35-1.01
				c-0.23-0.24-0.56-0.36-0.98-0.36c-0.26,0-0.52,0.04-0.77,0.12c-0.25,0.08-0.48,0.19-0.67,0.34l-0.95-0.65
				c0.25-0.3,0.58-0.53,0.99-0.7s0.86-0.25,1.36-0.25c0.54,0,1.01,0.1,1.4,0.29s0.69,0.47,0.89,0.84s0.3,0.81,0.3,1.32v4.23h-1.23
				V117.18z"/>
			<path d="M163.58,114.77h1.29v6.59h-1.29V114.77z M167.57,117.37c0-0.46-0.12-0.83-0.36-1.08c-0.24-0.25-0.58-0.38-1.02-0.38
				c-0.42,0-0.75,0.11-0.98,0.34c-0.23,0.22-0.35,0.54-0.35,0.95l-0.13-1.27c0.2-0.4,0.47-0.7,0.8-0.92s0.69-0.32,1.09-0.32
				c0.71,0,1.27,0.23,1.66,0.7c0.39,0.47,0.59,1.13,0.59,1.98v4h-1.29V117.37z"/>
			<path d="M170.33,114.77h2.97v1.17h-2.97V114.77z M171.38,120.95c-0.25-0.29-0.37-0.73-0.37-1.3v-6.79h1.29v6.8
				c0,0.16,0.03,0.28,0.09,0.37s0.16,0.13,0.28,0.13h0.62v1.23h-0.75C172.02,121.39,171.63,121.25,171.38,120.95z"/>
			<path d="M179.38,121.34c-0.34-0.08-0.66-0.19-0.96-0.34s-0.57-0.34-0.82-0.57l0.77-0.95c0.36,0.27,0.71,0.47,1.06,0.61
				c0.35,0.13,0.7,0.2,1.04,0.2c0.51,0,0.9-0.08,1.15-0.24c0.26-0.16,0.38-0.4,0.38-0.71c0-0.21-0.07-0.37-0.21-0.48
				c-0.14-0.11-0.31-0.18-0.52-0.21c-0.21-0.04-0.5-0.07-0.88-0.1c-0.03,0-0.07,0-0.11,0c-0.04,0-0.07-0.01-0.11-0.01
				c-0.02,0-0.03,0-0.05,0c-0.02,0-0.03,0-0.05,0c-0.43-0.03-0.79-0.1-1.08-0.19c-0.3-0.09-0.54-0.26-0.74-0.51
				c-0.2-0.25-0.29-0.61-0.29-1.07c0-0.47,0.1-0.85,0.29-1.16c0.19-0.31,0.47-0.54,0.85-0.69c0.38-0.16,0.85-0.23,1.42-0.23
				c0.34,0,0.67,0.03,0.98,0.1c0.31,0.06,0.61,0.16,0.89,0.28c0.28,0.12,0.56,0.28,0.82,0.47l-0.78,0.95
				c-0.33-0.21-0.66-0.37-0.97-0.48c-0.32-0.11-0.63-0.16-0.94-0.16c-0.44,0-0.77,0.08-0.99,0.23c-0.22,0.15-0.33,0.38-0.33,0.68
				c0,0.18,0.06,0.31,0.19,0.4s0.28,0.15,0.47,0.18c0.19,0.03,0.46,0.06,0.81,0.08c0.03,0,0.05,0.01,0.08,0.01s0.06,0,0.09,0.01
				c0.01,0,0.03,0,0.04,0s0.03,0,0.04,0.01c0.46,0.03,0.85,0.09,1.18,0.18c0.32,0.09,0.6,0.28,0.82,0.55
				c0.22,0.27,0.33,0.67,0.33,1.19c0,0.47-0.1,0.87-0.3,1.18c-0.2,0.31-0.51,0.54-0.92,0.7c-0.41,0.16-0.92,0.23-1.54,0.23
				C180.08,121.46,179.72,121.42,179.38,121.34z"/>
			<path d="M186.02,121.11c-0.43-0.23-0.76-0.56-0.99-1.01s-0.34-0.98-0.34-1.6v-0.74c0-0.65,0.11-1.21,0.33-1.67
				c0.22-0.46,0.53-0.81,0.95-1.05c0.41-0.24,0.91-0.36,1.5-0.36c0.55,0,1.02,0.14,1.41,0.41c0.39,0.27,0.69,0.67,0.89,1.19
				s0.31,1.14,0.31,1.87v0.43h-4.44v-1.04h3.21c-0.04-0.54-0.18-0.96-0.42-1.25c-0.24-0.3-0.56-0.45-0.96-0.45
				c-0.49,0-0.87,0.16-1.14,0.48c-0.27,0.32-0.4,0.78-0.4,1.37v0.84c0,0.55,0.14,0.96,0.43,1.26s0.7,0.44,1.22,0.44
				c0.26,0,0.52-0.05,0.78-0.16c0.26-0.11,0.49-0.25,0.69-0.44l0.85,0.85c-0.33,0.31-0.69,0.56-1.1,0.73
				c-0.41,0.17-0.81,0.26-1.23,0.26C186.97,121.46,186.45,121.34,186.02,121.11z"/>
			<path d="M193.09,121.34c-0.34-0.08-0.66-0.19-0.96-0.34s-0.57-0.34-0.82-0.57l0.77-0.95c0.36,0.27,0.71,0.47,1.06,0.61
				c0.35,0.13,0.7,0.2,1.04,0.2c0.51,0,0.9-0.08,1.15-0.24c0.26-0.16,0.38-0.4,0.38-0.71c0-0.21-0.07-0.37-0.21-0.48
				c-0.14-0.11-0.31-0.18-0.52-0.21c-0.21-0.04-0.5-0.07-0.88-0.1c-0.03,0-0.07,0-0.11,0c-0.04,0-0.07-0.01-0.11-0.01
				c-0.02,0-0.03,0-0.05,0c-0.02,0-0.03,0-0.05,0c-0.43-0.03-0.79-0.1-1.08-0.19c-0.3-0.09-0.54-0.26-0.74-0.51
				c-0.2-0.25-0.29-0.61-0.29-1.07c0-0.47,0.1-0.85,0.29-1.16c0.19-0.31,0.47-0.54,0.85-0.69c0.38-0.16,0.85-0.23,1.42-0.23
				c0.34,0,0.67,0.03,0.98,0.1c0.31,0.06,0.61,0.16,0.89,0.28c0.28,0.12,0.56,0.28,0.82,0.47l-0.78,0.95
				c-0.33-0.21-0.66-0.37-0.97-0.48c-0.32-0.11-0.63-0.16-0.94-0.16c-0.44,0-0.77,0.08-0.99,0.23c-0.22,0.15-0.33,0.38-0.33,0.68
				c0,0.18,0.06,0.31,0.19,0.4s0.28,0.15,0.47,0.18c0.19,0.03,0.46,0.06,0.81,0.08c0.03,0,0.05,0.01,0.08,0.01s0.06,0,0.09,0.01
				c0.01,0,0.03,0,0.04,0s0.03,0,0.04,0.01c0.46,0.03,0.85,0.09,1.18,0.18c0.32,0.09,0.6,0.28,0.82,0.55
				c0.22,0.27,0.33,0.67,0.33,1.19c0,0.47-0.1,0.87-0.3,1.18c-0.2,0.31-0.51,0.54-0.92,0.7c-0.41,0.16-0.92,0.23-1.54,0.23
				C193.79,121.46,193.43,121.42,193.09,121.34z"/>
			<path d="M201.66,112.13h1.29v1.29h-1.29V112.13z M201.66,114.77h1.29v6.59h-1.29V114.77z"/>
			<path d="M204.93,114.77h1.29v6.59h-1.29V114.77z M208.92,117.37c0-0.46-0.12-0.83-0.36-1.08c-0.24-0.25-0.58-0.38-1.02-0.38
				c-0.42,0-0.75,0.11-0.98,0.34c-0.23,0.22-0.35,0.54-0.35,0.95l-0.13-1.27c0.2-0.4,0.47-0.7,0.8-0.92s0.69-0.32,1.09-0.32
				c0.71,0,1.27,0.23,1.66,0.7c0.39,0.47,0.59,1.13,0.59,1.98v4h-1.29V117.37z"/>
			<path d="M213.42,121.34c-0.34-0.08-0.66-0.19-0.96-0.34s-0.57-0.34-0.82-0.57l0.77-0.95c0.36,0.27,0.71,0.47,1.06,0.61
				c0.35,0.13,0.7,0.2,1.04,0.2c0.51,0,0.9-0.08,1.15-0.24c0.26-0.16,0.38-0.4,0.38-0.71c0-0.21-0.07-0.37-0.21-0.48
				c-0.14-0.11-0.31-0.18-0.52-0.21c-0.21-0.04-0.5-0.07-0.88-0.1c-0.03,0-0.07,0-0.11,0c-0.04,0-0.07-0.01-0.11-0.01
				c-0.02,0-0.03,0-0.05,0c-0.02,0-0.03,0-0.05,0c-0.43-0.03-0.79-0.1-1.08-0.19c-0.3-0.09-0.54-0.26-0.74-0.51
				c-0.2-0.25-0.29-0.61-0.29-1.07c0-0.47,0.1-0.85,0.29-1.16c0.19-0.31,0.47-0.54,0.85-0.69c0.38-0.16,0.85-0.23,1.42-0.23
				c0.34,0,0.67,0.03,0.98,0.1c0.31,0.06,0.61,0.16,0.89,0.28c0.28,0.12,0.56,0.28,0.82,0.47l-0.78,0.95
				c-0.33-0.21-0.66-0.37-0.97-0.48c-0.32-0.11-0.63-0.16-0.94-0.16c-0.44,0-0.77,0.08-0.99,0.23c-0.22,0.15-0.33,0.38-0.33,0.68
				c0,0.18,0.06,0.31,0.19,0.4s0.28,0.15,0.47,0.18c0.19,0.03,0.46,0.06,0.81,0.08c0.03,0,0.05,0.01,0.08,0.01s0.06,0,0.09,0.01
				c0.01,0,0.03,0,0.04,0s0.03,0,0.04,0.01c0.46,0.03,0.85,0.09,1.18,0.18c0.32,0.09,0.6,0.28,0.82,0.55
				c0.22,0.27,0.33,0.67,0.33,1.19c0,0.47-0.1,0.87-0.3,1.18c-0.2,0.31-0.51,0.54-0.92,0.7c-0.41,0.16-0.92,0.23-1.54,0.23
				C214.13,121.46,213.76,121.42,213.42,121.34z"/>
			<path d="M218.42,114.77h2.97v1.17h-2.97V114.77z M219.47,120.95c-0.25-0.29-0.37-0.73-0.37-1.3v-6.79h1.29v6.8
				c0,0.16,0.03,0.28,0.09,0.37s0.16,0.13,0.28,0.13h0.62v1.23h-0.75C220.11,121.39,219.72,121.25,219.47,120.95z"/>
			<path d="M223.17,112.13h1.29v1.29h-1.29V112.13z M223.17,114.77h1.29v6.59h-1.29V114.77z"/>
			<path d="M226.43,114.77h1.29v6.59h-1.29V114.77z M230.43,117.37c0-0.46-0.12-0.83-0.36-1.08c-0.24-0.25-0.58-0.38-1.02-0.38
				c-0.42,0-0.75,0.11-0.98,0.34c-0.23,0.22-0.35,0.54-0.35,0.95l-0.13-1.27c0.2-0.4,0.47-0.7,0.8-0.92s0.69-0.32,1.09-0.32
				c0.71,0,1.27,0.23,1.66,0.7c0.39,0.47,0.59,1.13,0.59,1.98v4h-1.29V117.37z"/>
			<path d="M234.81,121.12c-0.42-0.22-0.75-0.55-0.97-0.98c-0.22-0.43-0.34-0.94-0.34-1.55v-1.09c0-0.6,0.11-1.11,0.34-1.53
				c0.22-0.42,0.55-0.75,0.97-0.97c0.43-0.22,0.94-0.33,1.54-0.33c0.34,0,0.67,0.04,0.97,0.12c0.3,0.08,0.57,0.2,0.82,0.36
				c0.24,0.16,0.44,0.35,0.6,0.57l-0.93,0.84c-0.19-0.21-0.4-0.37-0.65-0.49c-0.25-0.11-0.51-0.17-0.78-0.17
				c-0.5,0-0.89,0.14-1.16,0.42c-0.28,0.28-0.41,0.67-0.41,1.18v1.09c0,0.52,0.14,0.92,0.41,1.21c0.27,0.28,0.66,0.42,1.17,0.42
				c0.28,0,0.54-0.06,0.79-0.18c0.25-0.12,0.47-0.3,0.65-0.52l0.93,0.9c-0.17,0.22-0.37,0.41-0.61,0.56
				c-0.24,0.15-0.51,0.27-0.82,0.35c-0.3,0.08-0.62,0.12-0.96,0.12C235.75,121.46,235.24,121.34,234.81,121.12z"/>
			<path d="M239.66,114.77h2.97v1.17h-2.97V114.77z M240.71,120.95c-0.25-0.29-0.37-0.73-0.37-1.3v-6.79h1.29v6.8
				c0,0.16,0.03,0.28,0.09,0.37s0.16,0.13,0.28,0.13h0.62v1.23h-0.75C241.35,121.39,240.96,121.25,240.71,120.95z"/>
			<path d="M245.64,121.34c-0.34-0.08-0.66-0.19-0.96-0.34s-0.57-0.34-0.82-0.57l0.77-0.95c0.36,0.27,0.71,0.47,1.06,0.61
				c0.35,0.13,0.7,0.2,1.04,0.2c0.51,0,0.9-0.08,1.15-0.24c0.26-0.16,0.38-0.4,0.38-0.71c0-0.21-0.07-0.37-0.21-0.48
				c-0.14-0.11-0.31-0.18-0.52-0.21c-0.21-0.04-0.5-0.07-0.88-0.1c-0.03,0-0.07,0-0.11,0c-0.04,0-0.07-0.01-0.11-0.01
				c-0.02,0-0.03,0-0.05,0c-0.02,0-0.03,0-0.05,0c-0.43-0.03-0.79-0.1-1.08-0.19c-0.3-0.09-0.54-0.26-0.74-0.51
				c-0.2-0.25-0.29-0.61-0.29-1.07c0-0.47,0.1-0.85,0.29-1.16c0.19-0.31,0.47-0.54,0.85-0.69c0.38-0.16,0.85-0.23,1.42-0.23
				c0.34,0,0.67,0.03,0.98,0.1c0.31,0.06,0.61,0.16,0.89,0.28c0.28,0.12,0.56,0.28,0.82,0.47l-0.78,0.95
				c-0.33-0.21-0.66-0.37-0.97-0.48c-0.32-0.11-0.63-0.16-0.94-0.16c-0.44,0-0.77,0.08-0.99,0.23c-0.22,0.15-0.33,0.38-0.33,0.68
				c0,0.18,0.06,0.31,0.19,0.4s0.28,0.15,0.47,0.18c0.19,0.03,0.46,0.06,0.81,0.08c0.03,0,0.05,0.01,0.08,0.01s0.06,0,0.09,0.01
				c0.01,0,0.03,0,0.04,0s0.03,0,0.04,0.01c0.46,0.03,0.85,0.09,1.18,0.18c0.32,0.09,0.6,0.28,0.82,0.55
				c0.22,0.27,0.33,0.67,0.33,1.19c0,0.47-0.1,0.87-0.3,1.18c-0.2,0.31-0.51,0.54-0.92,0.7c-0.41,0.16-0.92,0.23-1.54,0.23
				C246.35,121.46,245.98,121.42,245.64,121.34z"/>
			<path d="M103.84,130.37h1.29v6.59h-1.29V130.37z M107.84,132.97c0-0.47-0.12-0.83-0.36-1.08c-0.24-0.25-0.58-0.38-1.02-0.38
				c-0.42,0-0.75,0.11-0.98,0.34c-0.23,0.22-0.35,0.54-0.35,0.95l-0.13-1.27c0.2-0.4,0.47-0.71,0.8-0.92s0.69-0.32,1.09-0.32
				c0.71,0,1.27,0.23,1.66,0.7s0.59,1.13,0.59,1.98v4h-1.29V132.97z"/>
			<path d="M111.39,136.55c-0.4-0.34-0.6-0.85-0.6-1.53c0-0.65,0.18-1.14,0.55-1.47c0.37-0.33,0.92-0.49,1.67-0.49h1.87l0.09,1.04
				h-1.96c-0.34,0-0.59,0.08-0.76,0.23s-0.25,0.38-0.25,0.69c0,0.33,0.11,0.58,0.33,0.74c0.22,0.16,0.56,0.24,1.01,0.24
				c0.5,0,0.86-0.05,1.11-0.16c0.24-0.11,0.37-0.27,0.37-0.5l0.13,0.93c-0.12,0.18-0.26,0.32-0.42,0.44s-0.36,0.2-0.58,0.26
				c-0.22,0.06-0.47,0.09-0.74,0.09C112.4,137.06,111.79,136.89,111.39,136.55z M114.82,132.78c0-0.43-0.12-0.77-0.35-1.01
				s-0.56-0.36-0.98-0.36c-0.26,0-0.52,0.04-0.77,0.12c-0.25,0.08-0.48,0.19-0.67,0.34l-0.95-0.65c0.25-0.3,0.58-0.53,0.99-0.7
				c0.41-0.17,0.86-0.25,1.36-0.25c0.54,0,1.01,0.1,1.4,0.29c0.39,0.19,0.69,0.47,0.89,0.84c0.2,0.37,0.3,0.81,0.3,1.32v4.23h-1.23
				V132.78z"/>
			<path d="M117.51,130.37h2.97v1.17h-2.97V130.37z M118.56,136.55c-0.25-0.29-0.37-0.73-0.37-1.3v-6.79h1.29v6.8
				c0,0.16,0.03,0.29,0.09,0.37c0.06,0.09,0.16,0.13,0.28,0.13h0.62v1.23h-0.75C119.2,136.99,118.81,136.85,118.56,136.55z"/>
			<path d="M123.56,134.38c0,0.46,0.12,0.82,0.35,1.07c0.23,0.25,0.57,0.38,0.99,0.38c0.42,0,0.75-0.11,0.98-0.34
				c0.23-0.22,0.35-0.54,0.35-0.96l0.09,1.38c-0.14,0.33-0.36,0.6-0.66,0.82c-0.3,0.22-0.68,0.33-1.12,0.33
				c-0.73,0-1.29-0.23-1.69-0.7c-0.4-0.47-0.59-1.13-0.59-1.98v-4.01h1.29V134.38z M126.23,130.37h1.29v6.59h-1.29V130.37z"/>
			<path d="M129.49,130.37h1.29v6.59h-1.29V130.37z M132.68,131.62c-0.17-0.07-0.38-0.11-0.6-0.11c-0.41,0-0.73,0.11-0.96,0.34
				c-0.23,0.23-0.34,0.54-0.34,0.94l-0.13-1.27c0.2-0.39,0.46-0.7,0.79-0.92c0.32-0.22,0.68-0.33,1.07-0.33
				c0.3,0,0.57,0.04,0.82,0.13s0.46,0.21,0.64,0.38l-0.84,1.14C133,131.79,132.86,131.69,132.68,131.62z"/>
			<path d="M136.18,136.71c-0.43-0.23-0.76-0.56-0.99-1.01c-0.23-0.44-0.34-0.98-0.34-1.6v-0.74c0-0.65,0.11-1.21,0.33-1.67
				c0.22-0.46,0.53-0.81,0.95-1.05c0.41-0.24,0.91-0.36,1.5-0.36c0.55,0,1.02,0.14,1.41,0.41c0.39,0.28,0.69,0.67,0.89,1.19
				s0.31,1.14,0.31,1.87v0.43h-4.44v-1.04H139c-0.04-0.54-0.18-0.96-0.42-1.25c-0.24-0.3-0.56-0.45-0.96-0.45
				c-0.49,0-0.87,0.16-1.14,0.48c-0.27,0.32-0.4,0.78-0.4,1.36v0.84c0,0.55,0.14,0.96,0.43,1.26s0.7,0.44,1.22,0.44
				c0.26,0,0.52-0.05,0.78-0.16c0.26-0.11,0.49-0.25,0.69-0.44l0.85,0.85c-0.33,0.31-0.69,0.56-1.1,0.73
				c-0.41,0.17-0.81,0.26-1.23,0.26C137.13,137.06,136.61,136.94,136.18,136.71z"/>
			<path d="M143.3,135.26c0,0.16,0.04,0.29,0.1,0.37c0.07,0.09,0.17,0.13,0.3,0.13h0.61v1.23h-0.76c-0.49,0-0.87-0.15-1.14-0.46
				s-0.4-0.73-0.4-1.29v-7.52h1.29V135.26z"/>
			<path d="M147.01,136.94c-0.34-0.08-0.66-0.19-0.96-0.34s-0.57-0.34-0.82-0.57l0.77-0.95c0.36,0.27,0.71,0.47,1.06,0.61
				c0.35,0.14,0.7,0.2,1.04,0.2c0.51,0,0.9-0.08,1.15-0.24c0.26-0.16,0.38-0.4,0.38-0.71c0-0.21-0.07-0.37-0.21-0.48
				c-0.14-0.11-0.31-0.18-0.52-0.21s-0.5-0.07-0.88-0.1c-0.03,0-0.07,0-0.11,0c-0.04,0-0.07,0-0.11-0.01c-0.02,0-0.03,0-0.05,0
				s-0.03,0-0.05,0c-0.43-0.03-0.79-0.1-1.08-0.19c-0.3-0.09-0.54-0.26-0.74-0.51c-0.2-0.25-0.29-0.61-0.29-1.07
				c0-0.46,0.1-0.85,0.29-1.16c0.19-0.31,0.47-0.54,0.85-0.7c0.38-0.15,0.85-0.23,1.42-0.23c0.34,0,0.67,0.03,0.98,0.09
				c0.31,0.06,0.61,0.16,0.89,0.28c0.28,0.12,0.56,0.28,0.82,0.47l-0.78,0.95c-0.33-0.21-0.66-0.37-0.97-0.48
				c-0.32-0.11-0.63-0.16-0.94-0.16c-0.44,0-0.77,0.08-0.99,0.23s-0.33,0.38-0.33,0.68c0,0.18,0.06,0.31,0.19,0.4
				s0.28,0.15,0.47,0.18c0.19,0.03,0.46,0.05,0.81,0.08c0.03,0,0.05,0.01,0.08,0.01s0.06,0,0.09,0.01c0.01,0,0.03,0,0.04,0
				s0.03,0,0.04,0.01c0.46,0.03,0.85,0.09,1.18,0.18c0.32,0.09,0.6,0.28,0.82,0.55c0.22,0.28,0.33,0.67,0.33,1.19
				c0,0.47-0.1,0.87-0.3,1.18c-0.2,0.31-0.51,0.54-0.92,0.7c-0.41,0.16-0.92,0.24-1.54,0.24
				C147.71,137.06,147.35,137.02,147.01,136.94z"/>
			<path d="M152.29,135.6h1.36v1.36h-1.36V135.6z"/>
		</g>
	</g>
</g>
</svg>
