<?xml version="1.0" encoding="utf-8"?>
<!-- Generator: Adobe Illustrator 25.2.3, SVG Export Plug-In . SVG Version: 6.00 Build 0)  -->
<svg version="1.1" id="Calque_1" xmlns="http://www.w3.org/2000/svg" xmlns:xlink="http://www.w3.org/1999/xlink" x="0px" y="0px"
	 viewBox="0 0 168 155" style="enable-background:new 0 0 168 155;" xml:space="preserve">
<style type="text/css">
	.st0{fill:none;stroke:#B0B0AF;stroke-width:2;stroke-miterlimit:10;}
</style>
<line class="st0" x1="92.98" y1="92.43" x2="93.2" y2="99.45"/>
<polygon class="st0" points="35.9,60.83 27.39,66.64 91.74,112.82 141.87,78.96 132.68,73.71 92.98,100.2 "/>
<polygon class="st0" points="27.39,66.64 27.39,75.5 91.14,121.16 141.87,86.83 141.87,78.96 91.74,112.82 "/>
<polygon class="st0" points="34,81.44 25.47,87.25 89.82,133.41 139.96,99.57 130.76,94.3 91.07,120.79 "/>
<polygon class="st0" points="25.47,87.25 25.47,96.11 89.23,141.77 139.96,107.44 139.96,99.57 89.82,133.41 "/>
<path class="st0" d="M105.41,83.55c0,0-18.04-17.87-8.85-22.71c0,0,15.26-7.07,29.32,10.1"/>
<path class="st0" d="M110.13,80.28c0,0-9.02-8.93-4.42-11.35c0,0,7.63-3.53,14.66,5.05"/>
<line class="st0" x1="102.42" y1="93.9" x2="114.44" y2="97.49"/>
<path class="st0" d="M43.92,72.8c0,0,28.46,24,33.03,16.34"/>
<path class="st0" d="M63.15,107.44c0,0,14.57,17.5,23.38,10.24"/>
<line class="st0" x1="109.93" y1="108.45" x2="120.37" y2="112.67"/>
<g>
	<polyline class="st0" points="144.38,58.87 144.38,66.76 93.2,99.45 27.39,57.13 27.39,49.86 92.98,92.43 144.38,58.87 
		76.69,12.83 27.39,46.93 	"/>
</g>
<path class="st0" d="M100.93,85.39c0,0-25.67-25.42-12.58-32.32c0,0,21.72-10.06,41.73,14.38"/>
<path class="st0" d="M59,23.47c0,0,22.98,23.61,47.22,21.41c0,0,15.05-1.24,30.08,18.39"/>
<path class="st0" d="M96.48,90.16c0,0-24.81-22.13-22.05-37.53c0,0,7.23-4.76-23.54-21.95"/>
<path class="st0" d="M38.87,38.99c0,0,19.68,6.87,22.19,13.63c0,0,0.83,9.11,8.36,15.59"/>
<path class="st0" d="M73.69,25.34c0,0,8.93,13.6,33.67,15.6"/>
<path class="st0" d="M73.69,16.75c0,0,13.13,15.95,22.79,16.04"/>
</svg>
