<?xml version="1.0" encoding="utf-8"?>
<!-- Generator: Adobe Illustrator 25.2.3, SVG Export Plug-In . SVG Version: 6.00 Build 0)  -->
<svg version="1.1" id="Calque_1" xmlns="http://www.w3.org/2000/svg" xmlns:xlink="http://www.w3.org/1999/xlink" x="0px" y="0px"
	 viewBox="0 0 168 155" style="enable-background:new 0 0 168 155;" xml:space="preserve">
<style type="text/css">
	.st0{fill:none;stroke:#B0B0AF;stroke-width:2;stroke-miterlimit:10;}
	.st1{fill:none;stroke:#B0B0AF;stroke-miterlimit:10;}
</style>
<g>
	<polygon class="st0" points="14.15,29.87 14.15,117.38 155.7,117.38 155.7,78.36 127.65,41.61 108.45,41.61 108.45,29.87 	"/>
	<ellipse class="st0" cx="122.39" cy="117.38" rx="14.66" ry="13.6"/>
	<g>
		<path class="st1" d="M69.69,86.71c-2.02-5.11-5.77-10.54-11.99-11.53c-3.71-0.59-7.73,0.55-11.22-0.67
			c-2.57-0.89-4.45-3.08-4.67-5.44c4.18,3.44,10.98,1.81,16.7,2.55c7.14,0.93,13.13,6.34,13.8,12.48
			c-0.43-13.53-2.14-27.01-5.12-40.31c1.93-0.34,3.9,0.77,4.91,2.22c1,1.45,1.26,3.18,1.48,4.86c1.83,13.8,2.82,27.69,3,41.58
			c0.05,3.49,0.22,7.04-0.03,10.53c-0.14,1.97-0.26,5.81-2.92,2.85c-1.66-1.84-0.78-6.8-1.16-9.08
			C71.92,93.35,70.98,89.98,69.69,86.71z"/>
		<path class="st1" d="M81.98,97.14c0.3-11.22-0.53-22.45-2.5-33.56c1.71,0,3.39-0.01,5.1-0.01c1.04,10.06,1.77,20.13,2.23,30.21
			c2.23,0.17,3.86-1.71,4.99-3.37c2.07-3.03,4.14-6.05,6.23-9.08c0.29-0.42,0.59-0.85,1.05-1.13c1.47-0.89,3.63,0.34,3.97,1.85
			c0.33,1.51-0.54,3-1.42,4.33c-4.34,6.64-9.44,12.88-14.63,19.04C79.46,114.4,81.87,101.33,81.98,97.14z"/>
		<path class="st1" d="M80.75,44.15c-0.1-0.95-1-1.71-2.02-2.07c-1.02-0.34-2.17-0.36-3.27-0.37c-4.1-0.03-10.52-0.75-14.04,0.93
			C65.11,46,75.81,44.15,80.75,44.15z"/>
		<path class="st1" d="M54.63,69.01c-1.5-1.92-4.67-2.11-7.38-2.09c-4.27,0.03-8.88-0.33-13.05,0.22c1.45,1.48,4.21,1.79,6.49,1.95
			C42.61,69.21,53.67,67.75,54.63,69.01z"/>
		<path class="st1" d="M87.04,64.47c3.2-0.37,6.34-1.52,9.56-1.23c-0.97-1.65-2.98-2.71-5.07-3.18c-2.09-0.47-4.29-0.42-6.44-0.37
			c-2.95,0.07-5.88,0.14-8.83,0.22C76.22,64.56,82.26,65.02,87.04,64.47z"/>
		<path class="st1" d="M95.38,84.37c-1.74,0.76-3.75,1.52-5.58,0.96c-1.5-0.46-2.49-1.74-2.85-3.06c-0.37-1.32-0.21-2.71-0.05-4.06
			c0.13-1.05,0.29-2.19,1.13-2.97c0.77-0.69,1.91-0.95,3.01-1.1c1.71-0.24,3.59-0.27,5.04,0.55c2.55,1.45,2.42,4.62,2.01,7.22
			c-0.06,0.37-0.13,0.77-0.4,1.08c-0.59,0.65-2.04,0.86-1.9,1.66"/>
		<path class="st1" d="M72.25,99.24c-3.41,0.1-6.82,0.06-10.22-0.13c-0.56,4.75-0.13,9.58,1.23,14.22c10.31-0.85,20.75-0.62,31,0.69
			c-2.25-3.44-3.44-7.39-3.43-11.33"/>
		<path class="st1" d="M76.64,99.94c1.47,0,2.92,0,4.38,0"/>
		<path class="st1" d="M93.77,82.28c-1.24-0.04-2.5-0.07-3.75-0.11c-0.81-1.43-1.64-3.08-0.94-4.56c0.75-1.56,3.32-2.21,4.94-1.26
			c1.2,1.82,1.4,4.09,0.54,6.04"/>
		<path class="st1" d="M64.99,44c-2.79,3.97-4.29,8.61-4.29,13.24c0,3.56,0.69,7.6-2.09,10.26c0.4-1.1,0.99-2.17,1.74-3.13
			c0.29-0.36,0.61-0.72,1.07-0.88c0.84-0.27,1.82,0.26,2.18,0.98c0.37,0.7,0.3,1.52,0.22,2.28c-0.62-1.16-1.72-2.15-3.06-2.73
			c0.11,1.32,0.45,2.61,0.96,3.86"/>
	</g>
	<ellipse class="st0" cx="39.96" cy="117.27" rx="14.66" ry="13.6"/>
	<polygon class="st0" points="109.79,53.54 128.29,53.54 146.78,79.54 109.79,79.54 	"/>
</g>
</svg>
