<?xml version="1.0" encoding="utf-8"?>
<!-- Generator: Adobe Illustrator 25.2.3, SVG Export Plug-In . SVG Version: 6.00 Build 0)  -->
<svg version="1.1" id="Calque_1" xmlns="http://www.w3.org/2000/svg" xmlns:xlink="http://www.w3.org/1999/xlink" x="0px" y="0px"
	 viewBox="0 0 80 80" style="enable-background:new 0 0 80 80;" xml:space="preserve">
<style type="text/css">
	.st0{fill:none;stroke:#B0B0AF;stroke-width:2;stroke-miterlimit:10;}
	.st1{fill:none;stroke:#B0B0AF;stroke-width:1.9998;stroke-miterlimit:9.9992;}
</style>
<g>
	<path class="st0" d="M32.06,4.99l39.42,16.88c0,0,4.1,2.45,2.17,6.81L54.11,73.49c0,0-0.91,3.1-4.52,2.85L9.42,58.82
		c0,0-4.39-1.44-2.48-6.47L26.45,7.62C26.45,7.61,28.61,3.52,32.06,4.99z"/>
	<line class="st0" x1="24.01" y1="13.22" x2="71.39" y2="33.88"/>
	<line class="st0" x1="37.7" y1="7.41" x2="33.39" y2="17.31"/>
	<line class="st0" x1="7.5" y1="51.07" x2="54.89" y2="71.74"/>
	
		<rect x="42.29" y="14.55" transform="matrix(0.3997 -0.9166 0.9166 0.3997 11.8302 48.5908)" class="st1" width="1.45" height="1.43"/>
	
		<rect x="47.32" y="16.74" transform="matrix(0.3997 -0.9166 0.9166 0.3997 12.8399 54.5154)" class="st1" width="1.45" height="1.43"/>
	
		<rect x="44.95" y="15.71" transform="matrix(0.3997 -0.9166 0.9166 0.3997 12.3619 51.7225)" class="st1" width="1.45" height="1.43"/>
	
		<ellipse transform="matrix(0.3997 -0.9166 0.9166 0.3997 15.222 68.6977)" class="st1" cx="60.06" cy="22.73" rx="2.37" ry="2.33"/>
	
		<ellipse transform="matrix(0.3997 -0.9166 0.9166 0.3997 16.7357 77.5703)" class="st1" cx="67.59" cy="26.01" rx="2.37" ry="2.33"/>
	
		<ellipse transform="matrix(0.3997 -0.9166 0.9166 0.3997 -14.9433 61.1787)" class="st1" cx="39.24" cy="42" rx="16.34" ry="16.8"/>
	<path class="st0" d="M24.79,33.51c0,0,8.69,1.47,10.84,10.63c0,0,2.43,11.58,17.54,7.28"/>
	<path class="st0" d="M23.67,38.11c0,0,5.43,0.6,7.68,8.74c0,0,1.58,9.45,15.61,9.71"/>
</g>
</svg>
