<?xml version="1.0" encoding="utf-8"?>
<!-- Generator: Adobe Illustrator 25.2.3, SVG Export Plug-In . SVG Version: 6.00 Build 0)  -->
<svg version="1.1" id="Calque_1" xmlns="http://www.w3.org/2000/svg" xmlns:xlink="http://www.w3.org/1999/xlink" x="0px" y="0px"
	 viewBox="0 0 163 120" style="enable-background:new 0 0 163 120;" xml:space="preserve">
<style type="text/css">
	.st0{fill:#B0B0AF;}
	.st1{fill:none;stroke:#B0B0AF;stroke-miterlimit:10;}
</style>
<g>
	<g>
		<path class="st0" d="M123.14,59.05c1.16,3.4,2.16,6.86,3,10.36c-2.32,1.06-5.42-0.86-7.41,0.75c-1.5,1.21-0.96,4.11,0.86,4.67
			c0.7,0.22,1.45,0.13,2.18,0.16c2.6,0.11,5.04,1.93,5.95,4.42c0.34,0.93,0.5,1.98,1.14,2.73c1.07,1.24,2.95,1.14,4.57,1.14
			c3.76-0.01,7.52,1.11,10.69,3.18c0.2,0.13,0.42,0.26,0.64,0.22c0.26-0.05,0.41-0.31,0.54-0.55c1.7-3.26,3.41-6.53,5.11-9.79
			c-4.35-0.72-8.43-3.08-11.27-6.53c-0.81-0.98-1.53-2.05-2.31-3.07c-1.35-1.77-2.88-3.39-4.4-5c-1.77-1.88-3.79-3.87-6.33-4.07
			c-0.77-0.06-1.59,0.08-2.17,0.6c-0.58,0.52-0.8,1.5-0.32,2.12"/>
	</g>
	<g>
		<g>
			<path class="st0" d="M124.68,59.66c-1.64-3.09-3.11-6.25-4.42-9.5c-0.13-0.33-0.41-0.51-0.77-0.44
				c-3.85,0.8-7.55,2.21-10.93,4.22c-1.48,0.87-1.84,1.38-1.38,3.1c0.55,2.06,1.22,4.07,1.98,6.06c3.03,7.99,6.9,15.69,10.44,23.46
				c0.14,0.31,0.58,0.37,0.86,0.22c2.48-1.35,5.11-2.31,7.87-2.89c0.79-0.17,0.45-1.37-0.33-1.21c-2.87,0.61-5.6,1.62-8.17,3.02
				c0.29,0.07,0.57,0.15,0.86,0.22c-3.21-7.04-6.62-14.02-9.54-21.19c-0.68-1.68-1.32-3.37-1.88-5.1c-0.29-0.9-0.57-1.8-0.81-2.72
				c-0.13-0.49-0.4-0.99-0.02-1.45c0.2-0.25,0.88-0.54,1.15-0.69c3.19-1.84,6.65-3.12,10.25-3.87c-0.26-0.15-0.51-0.29-0.77-0.44
				c1.34,3.34,2.85,6.61,4.54,9.8C123.98,61,125.06,60.37,124.68,59.66L124.68,59.66z"/>
		</g>
	</g>
	<g>
		<g>
			<path class="st0" d="M107.6,56.73c-2.27,2.75-4.47,5.58-6.47,8.53c-0.8,1.18-0.68,1.94,0.13,3.08c1.01,1.43,2.18,2.75,3.35,4.06
				c2.31,2.6,4.75,5.08,7.31,7.44c1.31,1.2,2.63,2.54,4.09,3.57c0.62,0.44,1.57,0.71,1.97-0.14c0.34-0.72-0.73-1.36-1.08-0.63
				c0.11-0.23-2.8-2.5-3.09-2.77c-0.95-0.86-1.89-1.73-2.82-2.62c-1.96-1.89-3.84-3.86-5.65-5.9c-0.94-1.06-1.88-2.13-2.72-3.26
				c-0.45-0.6-0.96-1.1-0.64-1.87c0.25-0.59,0.8-1.16,1.17-1.68c1.69-2.37,3.47-4.68,5.33-6.93C108.99,57,108.11,56.11,107.6,56.73
				L107.6,56.73z"/>
		</g>
	</g>
</g>
<g>
	<g>
		<path class="st0" d="M79.02,45.7c0.29-0.54,0.58-1.12,0.54-1.73c-0.05-0.61-0.59-1.23-1.19-1.11c-0.71,0.14-0.9,1.06-0.93,1.79
			c-0.02,0.38-0.03,0.78,0.11,1.14c0.14,0.36,0.49,0.66,0.87,0.62"/>
	</g>
	<g>
		<path class="st0" d="M77.96,42.79c-0.87-1.4-0.95-3.4-2.37-4.24c-0.83-0.49-1.92-0.39-2.77,0.08c-0.85,0.46-1.48,1.24-1.99,2.06
			c-1.69,2.74-2.12,6.22-1.15,9.29c1.35-0.9,2.03-2.48,2.87-3.86c0.4-0.67,0.87-1.31,1.5-1.77s1.45-0.7,2.2-0.49"/>
	</g>
	<g>
		<path class="st0" d="M79.61,45.58c-0.59,0.84-1.08,1.76-1.44,2.72c-0.2,0.52-0.36,1.08-0.31,1.64c0.06,0.68,0.43,1.28,0.8,1.86
			c0.86,1.34,1.8,2.71,3.19,3.49c0.53,0.3,1.13,0.5,1.74,0.52c1.2,0.03,2.31-0.66,3.15-1.53c1.38-1.43,2.19-3.47,1.9-5.44
			c-0.27-1.83-1.52-3.49-3.2-4.26c-1.68-0.77-3.75-0.62-5.31,0.37"/>
	</g>
	<g>
		<path class="st0" d="M84.87,59.63c-0.93-0.98-1.87-1.96-2.8-2.94c-1.41-1.48-3.34-3.05-5.02-2.04c-1.47,0.88-1.73,3.18-1.76,5.11
			c-0.03,2.54,0.02,5.07,0.16,7.6c0.1,1.78,0.24,3.56,0.19,5.34c-0.14,4.57-1.57,8.92-2.99,13.18c-0.08,0.25-0.17,0.51-0.35,0.69
			c-0.22,0.22-0.52,0.27-0.81,0.31c-2.56,0.33-5.12,0.67-7.68,1c-0.72,0.09-1.55,0.26-1.92,1c-0.43,0.86,0.08,2.04,0.85,2.5
			s1.67,0.4,2.52,0.32c3.07-0.26,6.14-0.52,9.21-0.78c0.33-0.03,0.69-0.06,0.96-0.3c0.29-0.25,0.42-0.67,0.55-1.06
			c1.01-3.25,2.18-6.44,3.49-9.54c0.09-0.21,0.19-0.43,0.36-0.53c0.29-0.17,0.64,0.06,0.9,0.29c2.04,1.74,4.03,3.55,5.96,5.44
			c1.12,1.09,2.27,2.28,2.77,3.89c0.27,0.86,0.33,1.78,0.46,2.68c0.29,2.11,0.94,4.15,1.88,5.98c0.19,0.37,0.41,0.75,0.73,0.96
			c0.8,0.53,1.85-0.26,2.13-1.28s0.04-2.12-0.2-3.15c-0.8-3.38-1.6-6.76-2.4-10.14c-0.06-0.27-0.13-0.55-0.26-0.79
			c-0.18-0.34-0.47-0.59-0.76-0.81c-1.79-1.43-3.69-2.73-5.16-4.59s-2.49-4.45-2.03-6.93c0.99-0.95,1.48-2.57,1.21-4.03
			c1.2,1.52,2.52,3.11,4.24,3.56c0.62,0.16,1.26,0.16,1.89,0.17c1.3,0,2.6,0.01,3.91,0.01c0.78,0,1.62-0.02,2.25-0.56
			s0.84-1.81,0.2-2.34c-1.87,0.04-3.75,0.07-5.62,0.11c-0.71,0.01-1.44,0.02-2.09-0.31c-0.9-0.46-1.49-1.47-2.03-2.44
			c-1.04-1.87-2.07-3.74-3.11-5.6"/>
	</g>
</g>
<g>
	<path class="st1" d="M37.96,69.28c-1.42-5.56-4.06-11.47-8.42-12.55c-2.61-0.65-5.43,0.59-7.88-0.74c-1.8-0.98-3.12-3.36-3.28-5.92
		c2.93,3.74,7.71,1.97,11.73,2.78c5.01,1.01,9.22,6.91,9.69,13.59c-0.3-14.72-1.5-29.4-3.59-43.87c1.36-0.37,2.74,0.84,3.45,2.42
		c0.71,1.58,0.89,3.47,1.04,5.29c1.29,15.02,1.99,30.13,2.1,45.25c0.03,3.8,0.16,7.67-0.03,11.46c-0.1,2.14-0.18,6.33-2.04,3.11
		c-1.16-2-0.55-7.4-0.81-9.88C39.53,76.51,38.87,72.84,37.96,69.28z"/>
	<path class="st1" d="M46.6,80.63c0.22-12.21-0.37-24.44-1.76-36.51c1.19-0.01,2.39-0.02,3.58-0.02
		c0.73,10.94,1.25,21.91,1.56,32.89c1.57,0.19,2.71-1.86,3.51-3.67c1.46-3.3,2.92-6.59,4.37-9.89c0.2-0.46,0.41-0.92,0.74-1.23
		c1.02-0.97,2.55,0.37,2.78,2.01s-0.38,3.26-0.99,4.71c-3.05,7.22-6.63,14.01-10.27,20.72C44.82,99.41,46.52,85.19,46.6,80.63z"/>
	<path class="st1" d="M45.73,22.95c-0.06-1.03-0.7-1.86-1.42-2.24s-1.52-0.4-2.3-0.4c-2.88-0.03-7.39-0.81-9.87,1.02
		C34.75,24.97,42.26,22.96,45.73,22.95z"/>
	<path class="st1" d="M27.39,50.02c-1.05-2.1-3.28-2.3-5.18-2.29c-3,0.02-6.23-0.36-9.17,0.23c1.01,1.61,2.95,1.95,4.55,2.13
		C18.95,50.23,26.71,48.65,27.39,50.02z"/>
	<path class="st1" d="M50.15,45.08c2.25-0.4,4.46-1.65,6.72-1.34c-0.68-1.8-2.09-2.95-3.56-3.46s-3.01-0.46-4.53-0.4
		c-2.07,0.08-4.13,0.15-6.2,0.23C42.56,45.18,46.8,45.68,50.15,45.08z"/>
	<path class="st1" d="M56.01,66.73c-1.22,0.82-2.63,1.66-3.92,1.05c-1.05-0.5-1.75-1.89-2.01-3.33c-0.26-1.44-0.15-2.95-0.04-4.42
		c0.09-1.15,0.2-2.38,0.79-3.22c0.53-0.76,1.34-1.04,2.11-1.2c1.2-0.26,2.52-0.3,3.54,0.59c1.79,1.58,1.7,5.03,1.41,7.85
		c-0.04,0.41-0.09,0.85-0.28,1.17c-0.41,0.7-1.43,0.94-1.33,1.81"/>
	<path class="st1" d="M39.77,82.91c-2.39,0.12-4.79,0.07-7.17-0.15c-0.39,5.17-0.09,10.43,0.87,15.47
		c7.25-0.93,14.58-0.68,21.78,0.75c-1.58-3.75-2.42-8.04-2.41-12.34"/>
	<path class="st1" d="M42.85,83.68c1.03,0,2.05,0,3.08,0"/>
	<path class="st1" d="M54.88,64.45c-0.88-0.04-1.76-0.08-2.64-0.12c-0.57-1.56-1.16-3.35-0.66-4.96c0.52-1.69,2.33-2.41,3.47-1.38
		c0.84,1.98,0.98,4.45,0.38,6.58"/>
	<path class="st1" d="M34.66,22.81c-1.96,4.33-3.02,9.37-3.02,14.41c0,3.88,0.49,8.27-1.47,11.16c0.28-1.2,0.69-2.35,1.22-3.4
		c0.2-0.39,0.43-0.78,0.75-0.95c0.59-0.3,1.27,0.29,1.53,1.05c0.26,0.77,0.21,1.65,0.16,2.49c-0.44-1.27-1.21-2.34-2.15-2.97
		c0.08,1.43,0.31,2.84,0.68,4.19"/>
</g>
</svg>
