<?xml version="1.0" encoding="utf-8"?>
<!-- Generator: Adobe Illustrator 25.2.3, SVG Export Plug-In . SVG Version: 6.00 Build 0)  -->
<svg version="1.1" id="Calque_1" xmlns="http://www.w3.org/2000/svg" xmlns:xlink="http://www.w3.org/1999/xlink" x="0px" y="0px"
	 viewBox="0 0 168 155" style="enable-background:new 0 0 168 155;" xml:space="preserve">
<style type="text/css">
	.st0{fill:#AFB0AF;}
</style>
<g>
	<g>
		<g>
			<g>
				<path class="st0" d="M85.79,143.65c-0.49-19.7-0.36-39.41,0.3-59.11c0.07-2.08,0.14-4.23-0.46-6.25
					c-0.61-2.07-1.98-3.8-3.22-5.53c-2.63-3.68-5.38-7.28-8.25-10.77c-1.48-1.8-2.99-3.57-4.53-5.32c-1.44-1.65-2.81-3.35-3.63-5.4
					c-1.55-3.85-1.42-8.13-1.25-12.2c0.18-4.47,0.39-8.94-0.75-13.32c-1.13-4.35-3.32-8.35-6.31-11.7c-0.54-0.6-1.42,0.29-0.88,0.88
					c2.75,3.08,4.78,6.76,5.88,10.75c1.11,4.05,1.02,8.18,0.85,12.34c-0.16,3.83-0.36,7.76,0.59,11.51c1,3.95,3.53,6.73,6.12,9.74
					c3.09,3.58,6.05,7.28,8.86,11.07c1.34,1.8,2.69,3.61,3.92,5.49c1.33,2.02,1.83,4.1,1.84,6.51c0.03,4.7-0.29,9.42-0.39,14.12
					c-0.11,4.8-0.19,9.6-0.23,14.41c-0.09,10.93,0,21.86,0.27,32.79C84.56,144.45,85.81,144.45,85.79,143.65L85.79,143.65z"/>
			</g>
		</g>
		<g>
			<g>
				<path class="st0" d="M64.27,43.53c-0.27-6-4.98-11.21-10.01-14c-2.43-1.35-5.11-2.23-7.87-2.58c-1.72-0.21-3.49,0-5.19-0.32
					c-1.78-0.34-3.18-1.48-4.35-2.81c-0.53-0.6-1.41,0.28-0.88,0.88c1.98,2.25,4.25,3.27,7.22,3.33c3.04,0.06,5.93,0.49,8.74,1.73
					c5.36,2.36,10.83,7.58,11.1,13.77C63.05,44.33,64.3,44.33,64.27,43.53L64.27,43.53z"/>
			</g>
		</g>
		<g>
			<g>
				<path class="st0" d="M86.01,118.38c0.06-7.5,0.12-15.07,1.65-22.44c1.45-6.98,4.58-13.36,7.1-19.98
					c2.56-6.73,4.01-13.77,3.94-20.98c-0.04-3.52-0.47-6.99-1.1-10.45c-0.66-3.65-1.46-7.31-1.57-11.04
					c-0.11-3.69,0.45-7.53,2.41-10.72c2.04-3.32,5.46-5.37,8.73-7.33c0.69-0.41,0.06-1.49-0.63-1.08c-2.77,1.66-5.63,3.37-7.76,5.84
					c-2.04,2.37-3.22,5.31-3.7,8.38c-1.16,7.35,1.41,14.49,2.11,21.75c0.73,7.51-0.16,15.11-2.56,22.26
					c-2.34,6.98-5.85,13.54-7.66,20.71c-2.07,8.18-2.15,16.68-2.22,25.07C84.76,119.18,86.01,119.18,86.01,118.38L86.01,118.38z"/>
			</g>
		</g>
		<g>
			<g>
				<path class="st0" d="M99.33,52.07c6.69-14.9,23.59-20.51,34.65-31.36c0.58-0.56-0.31-1.45-0.88-0.88
					c-11.15,10.93-28.1,16.57-34.85,31.61C97.92,52.16,99,52.8,99.33,52.07L99.33,52.07z"/>
			</g>
		</g>
		<g>
			<g>
				<path class="st0" d="M97.86,64.7c-4.57-6.8-6.4-15.22-8.5-23.03c-2.18-8.12-4.05-16.58-3.43-25.03
					c0.33-4.52,1.47-8.95,3.79-12.87c0.41-0.69-0.67-1.32-1.08-0.63c-4.12,6.95-4.58,15.3-3.69,23.15
					c1.02,8.92,3.58,17.68,6.19,26.25c1.36,4.48,3.01,8.89,5.64,12.79C97.22,65.99,98.31,65.37,97.86,64.7L97.86,64.7z"/>
			</g>
		</g>
		<g>
			<g>
				<path class="st0" d="M84.89,25.53c-6.98-2.82-12.62-8.63-15.25-15.68c-0.28-0.75-1.49-0.42-1.21,0.33
					c2.8,7.5,8.71,13.55,16.12,16.55C85.3,27.04,85.62,25.83,84.89,25.53L84.89,25.53z"/>
			</g>
		</g>
		<g>
			<g>
				<path class="st0" d="M86.3,113.31c1.17-12.84,6.5-25.12,14.65-35.08c4.1-5.01,8.9-9.46,14.24-13.12
					c2.96-2.03,6.16-3.65,9.12-5.66c2.97-2.02,5.52-4.55,7.92-7.21c5.2-5.76,10.79-11.81,13.21-19.34c0.25-0.77-0.96-1.1-1.21-0.33
					c-2.27,7.07-7.47,12.69-12.3,18.13c-2.5,2.81-5.13,5.54-8.25,7.67c-3.02,2.05-6.28,3.7-9.28,5.77
					c-10.41,7.18-18.84,17.25-23.99,28.8c-2.88,6.46-4.71,13.33-5.36,20.38C84.98,114.11,86.23,114.1,86.3,113.31L86.3,113.31z"/>
			</g>
		</g>
		<g>
			<g>
				<path class="st0" d="M109.68,68.99c0.4-1.73,0.22-3.47,0.3-5.23c0.09-1.96,0.84-3.58,1.95-5.17c2.25-3.2,4.76-6.23,7.14-9.33
					c0.49-0.64-0.6-1.26-1.08-0.63c-2.44,3.18-5.07,6.29-7.33,9.61c-0.92,1.35-1.63,2.81-1.84,4.44c-0.26,1.99,0.11,4.01-0.35,5.98
					C108.29,69.44,109.5,69.77,109.68,68.99L109.68,68.99z"/>
			</g>
		</g>
		<g>
			<g>
				<path class="st0" d="M111.37,68.03c8.05,6.29,19.21,7.96,28.71,4.16c0.74-0.3,0.42-1.5-0.33-1.21
					c-9.06,3.63-19.79,2.19-27.5-3.83C111.63,66.66,110.74,67.53,111.37,68.03L111.37,68.03z"/>
			</g>
		</g>
		<g>
			<g>
				<path class="st0" d="M86.4,106.06c0.44-12.79-8.75-22.79-16.9-31.53c-1.99-2.13-4.05-4.22-6.44-5.9
					c-2.45-1.72-5.24-2.71-7.99-3.83c-5.18-2.09-9.17-5.51-12.15-10.24c-3.19-5.06-5.08-10.81-6.7-16.52
					c-0.22-0.77-1.43-0.44-1.21,0.33c2.64,9.32,6.29,19.69,14.83,25.21c2.41,1.56,5.12,2.48,7.76,3.56c3.02,1.24,5.63,2.96,8,5.2
					c2.23,2.1,4.27,4.41,6.33,6.67c2.18,2.4,4.31,4.84,6.21,7.46c4.15,5.71,7.26,12.39,7.01,19.59
					C85.12,106.87,86.37,106.87,86.4,106.06L86.4,106.06z"/>
			</g>
		</g>
		<g>
			<g>
				<path class="st0" d="M40.64,52.26c-4.2-0.89-8.33-2.11-12.31-3.7c-1.95-0.78-3.79-1.72-5.32-3.18c-1.5-1.42-2.69-3.13-3.87-4.82
					c-0.46-0.66-1.54-0.03-1.08,0.63c1.17,1.67,2.34,3.37,3.79,4.81c1.49,1.49,3.26,2.54,5.19,3.37c4.25,1.82,8.74,3.13,13.26,4.09
					C41.1,53.63,41.43,52.43,40.64,52.26L40.64,52.26z"/>
			</g>
		</g>
		<g>
			<g>
				<path class="st0" d="M85.2,118.6c0.98-4.72-0.8-9.43-3.9-13.01c-3.38-3.9-8.22-6.17-12.99-7.87c-2.79-0.99-5.65-1.95-8.55-2.58
					c-2.8-0.61-5.66-0.75-8.52-0.7c-5.73,0.1-11.62,0.99-17.27-0.37c-5.81-1.4-10.67-5.38-13.26-10.75
					c-0.35-0.72-1.43-0.09-1.08,0.63c2.01,4.16,5.37,7.62,9.51,9.69c4.76,2.38,10.1,2.55,15.31,2.34c5.79-0.24,11.44-0.66,17.09,0.9
					c5.31,1.47,10.88,3.24,15.41,6.48c4.66,3.33,8.27,9.01,7.04,14.91C83.83,119.05,85.04,119.39,85.2,118.6L85.2,118.6z"/>
			</g>
		</g>
		<g>
			<g>
				<path class="st0" d="M64.75,96.42c-2.7-6.98,0.4-16.03-5.49-21.77c-0.58-0.56-1.46,0.32-0.88,0.88
					c5.61,5.46,2.58,14.52,5.17,21.22C63.83,97.49,65.04,97.17,64.75,96.42L64.75,96.42z"/>
			</g>
		</g>
		<g>
			<g>
				<path class="st0" d="M57.52,94.7c0.47-4.09-2.05-7.61-4.76-10.41c-3.09-3.19-6.61-6.14-10.58-8.17
					c-7.63-3.9-17.73-5.01-22.69-12.82c-0.43-0.68-1.51-0.05-1.08,0.63c4.53,7.13,13.12,8.96,20.4,12.01
					c4.37,1.83,8.11,4.51,11.55,7.75c3.05,2.88,6.43,6.48,5.91,11.01C56.18,95.5,57.43,95.49,57.52,94.7L57.52,94.7z"/>
			</g>
		</g>
		<g>
			<g>
				<path class="st0" d="M40.18,74.11c-0.78-1.01-1.47-2.09-2.02-3.24c-0.55-1.14-0.87-2.36-1.39-3.51
					c-0.88-1.94-2.6-3.21-4.53-4.01c-2.35-0.98-4.91-1.21-7.29-2.05c-2.16-0.77-4.44-2.35-4.75-4.8c-0.1-0.79-1.35-0.8-1.25,0
					c0.66,5.23,6.39,6.2,10.56,7.28c2.35,0.61,4.88,1.62,6.04,3.91c0.56,1.12,0.86,2.36,1.38,3.5c0.59,1.27,1.32,2.45,2.17,3.56
					C39.59,75.37,40.68,74.75,40.18,74.11L40.18,74.11z"/>
			</g>
		</g>
		<g>
			<g>
				<path class="st0" d="M85.22,114.94c0.8,0,0.81-1.25,0-1.25C84.41,113.69,84.41,114.94,85.22,114.94L85.22,114.94z"/>
			</g>
		</g>
		<g>
			<g>
				<path class="st0" d="M86.48,122.45c0.91-5.42,4.81-9.7,9.51-12.31c5.55-3.08,12.07-3.8,18.29-4.32
					c5.99-0.5,12.11-0.81,17.86-2.74c4.94-1.65,9.35-4.6,12.75-8.54c3.7-4.29,6.16-9.56,6.92-15.18c0.11-0.79-1.1-1.13-1.21-0.33
					c-1.49,10.98-9.47,20.15-20.08,23.25c-11.57,3.38-24.72,0.75-35.49,6.96c-4.81,2.77-8.81,7.27-9.76,12.87
					C85.15,122.9,86.35,123.24,86.48,122.45L86.48,122.45z"/>
			</g>
		</g>
		<g>
			<g>
				<path class="st0" d="M108.91,105.79c1.61-1.28,3.87-1.51,5.63-2.58c1.63-0.99,3.03-2.33,4.19-3.83
					c2.73-3.52,4.06-7.84,5.33-12.04c0.23-0.77-0.97-1.1-1.21-0.33c-1.25,4.12-2.53,8.43-5.29,11.84c-1.19,1.47-2.61,2.75-4.28,3.63
					c-1.73,0.92-3.71,1.19-5.27,2.43C107.4,105.41,108.29,106.29,108.91,105.79L108.91,105.79z"/>
			</g>
		</g>
		<g>
			<g>
				<path class="st0" d="M150.76,84.93c3.14-1.85,7.13-4.45,7.01-8.61c-0.04-1.47-0.9-3.2-2.51-3.4c-1.69-0.21-2.78,1.32-3.33,2.7
					c-0.88,2.21-1.19,4.73-1.18,7.09c0,0.8,1.25,0.81,1.25,0c-0.01-1.79,0.21-3.57,0.67-5.3c0.29-1.07,0.74-2.89,2-3.23
					c1.26-0.34,1.86,1.3,1.86,2.28c-0.01,1.52-0.81,2.96-1.82,4.06c-1.29,1.4-2.95,2.37-4.57,3.33
					C149.44,84.26,150.07,85.34,150.76,84.93L150.76,84.93z"/>
			</g>
		</g>
		<g>
			<g>
				<path class="st0" d="M135.97,101.75c1.85,1.53,3.91,2.76,6.15,3.64c2.18,0.86,4.69,1.52,7.05,1.47
					c1.62-0.03,3.79-1.05,3.01-3.04c-0.35-0.89-1.23-1.48-2.06-1.87c-1.19-0.56-2.44-1.03-3.7-1.4c-2.8-0.84-5.79-1.15-8.62-0.28
					c-0.77,0.23-0.44,1.44,0.33,1.21c2.72-0.83,5.55-0.47,8.22,0.37c1.18,0.37,2.42,0.78,3.51,1.39c0.83,0.46,1.89,1.6,0.53,2.17
					c-1,0.42-2.27,0.2-3.3,0.04c-1.17-0.17-2.33-0.45-3.45-0.82c-2.47-0.81-4.78-2.09-6.79-3.75
					C136.24,100.35,135.35,101.23,135.97,101.75L135.97,101.75z"/>
			</g>
		</g>
		<g>
			<g>
				<path class="st0" d="M120.89,97.47c2.65,0.26,5.31,0.61,7.98,0.72c2.16,0.09,4.51-0.1,6.36-1.35c0.82-0.55,1.63-1.33,0.98-2.35
					c-0.56-0.88-1.64-1.59-2.53-2.1c-1.98-1.13-4.3-1.58-6.56-1.25c-2.53,0.37-4.87,1.72-6.47,3.7c-0.5,0.62,0.38,1.51,0.88,0.88
					c3.22-3.95,9.18-4.62,13.04-1.16c0.25,0.23,0.64,0.46,0.45,0.89c-0.09,0.2-0.6,0.44-0.8,0.55c-0.5,0.29-1.04,0.49-1.6,0.64
					c-1.14,0.3-2.33,0.34-3.51,0.31c-2.74-0.08-5.49-0.47-8.21-0.73C120.09,96.14,120.1,97.39,120.89,97.47L120.89,97.47z"/>
			</g>
		</g>
		<g>
			<g>
				<path class="st0" d="M122.28,85.49c-4.4,0.63-8.5-2.73-8.81-7.14c-0.15,0.2-0.31,0.4-0.46,0.6c2.02-0.47,4.09,0.5,5.51,1.9
					c1.61,1.59,2.58,3.69,3.53,5.71c0.34,0.73,1.42,0.09,1.08-0.63c-1.05-2.25-2.17-4.6-4.06-6.28c-1.74-1.54-4.08-2.45-6.4-1.91
					c-0.25,0.06-0.48,0.34-0.46,0.6c0.17,2.45,1.31,4.82,3.22,6.38c2.01,1.65,4.61,2.33,7.17,1.96c0.34-0.05,0.51-0.47,0.44-0.77
					C122.95,85.57,122.61,85.44,122.28,85.49L122.28,85.49z"/>
			</g>
		</g>
		<g>
			<g>
				<path class="st0" d="M124.52,86.77c2.02,0.4,4.06-0.25,5.7-1.46c1.67-1.24,2.89-2.93,4.05-4.63c0.28-0.4,0.57-0.81,0.52-1.32
					c-0.05-0.53-0.48-0.86-0.89-1.13c-0.74-0.48-1.64-0.71-2.52-0.73c-1.78-0.03-3.53,0.79-4.71,2.11
					c-1.47,1.66-2.11,3.83-2.36,5.99c-0.09,0.8,1.16,0.79,1.25,0c0.33-2.89,1.69-6.13,4.84-6.77c0.66-0.13,1.35-0.12,1.99,0.07
					c0.31,0.09,0.6,0.23,0.87,0.4c0.08,0.05,0.25,0.14,0.26,0.22c0.01,0.12-0.32,0.5-0.39,0.59c-0.96,1.39-1.95,2.77-3.25,3.86
					c-1.37,1.15-3.23,1.94-5.04,1.58C124.07,85.41,123.73,86.61,124.52,86.77L124.52,86.77z"/>
			</g>
		</g>
		<g>
			<g>
				<path class="st0" d="M103.63,106.44c-0.29,2.39-0.4,4.93,1.4,6.79c0.91,0.94,2.07,1.67,3.12,2.45c1.16,0.86,2.32,1.72,3.48,2.59
					c0.45,0.33,0.91,0.71,1.5,0.63c0.51-0.07,0.83-0.48,0.96-0.95c0.16-0.59,0.15-1.27,0.19-1.87c0.05-0.71,0.07-1.42,0.02-2.14
					c-0.14-2.22-1.03-4.63-3.11-5.72c-1.12-0.59-2.37-0.61-3.6-0.55c-1.27,0.07-2.62,0.24-3.72-0.53c-0.66-0.47-1.28,0.62-0.63,1.08
					c1.61,1.14,3.6,0.64,5.43,0.67c1.99,0.03,3.42,1.28,4.03,3.14c0.37,1.12,0.41,2.31,0.36,3.48c-0.02,0.56-0.06,1.13-0.12,1.69
					c-0.01,0.13-0.14,0.52,0.02,0.47c-0.13,0.04-0.58-0.39-0.7-0.48c-1.92-1.42-3.94-2.77-5.77-4.3c-0.94-0.79-1.56-1.72-1.74-2.95
					c-0.17-1.15-0.02-2.34,0.12-3.49C104.97,105.64,103.72,105.65,103.63,106.44L103.63,106.44z"/>
			</g>
		</g>
		<g>
			<g>
				<path class="st0" d="M98.72,107.6c2.58-2.41,4.04-5.93,3.95-9.45c-0.02-0.79-0.03-1.83-0.39-2.55c-0.44-0.88-1.35-0.74-2.01-0.2
					c-1.31,1.08-2.28,2.58-2.86,4.17c-0.67,1.83-0.79,3.83-0.35,5.72c0.18,0.78,1.39,0.45,1.21-0.33c-0.4-1.74-0.24-3.56,0.42-5.22
					c0.31-0.8,0.75-1.57,1.29-2.24c0.28-0.36,0.6-0.69,0.94-1c0.08-0.08,0.17-0.15,0.26-0.23c0.19-0.11,0.2-0.13,0.03-0.05
					c0.08,0.17,0.09,0.4,0.11,0.59c0.57,3.61-0.81,7.41-3.47,9.89C97.25,107.27,98.13,108.15,98.72,107.6L98.72,107.6z"/>
			</g>
		</g>
		<g>
			<g>
				<path class="st0" d="M139.69,43.82c3.63,2.15,7.94,3.03,12.12,2.44c0.78-0.11,1.81-0.25,1.94-1.21
					c0.12-0.92-0.85-1.56-1.52-2.01c-1.53-1.03-3.36-1.49-5.18-1.67c-2.2-0.21-4.42,0.02-6.6,0.3c-0.79,0.1-0.8,1.35,0,1.25
					c3.76-0.47,8.35-1.02,11.55,1.5c0.08,0.06,0.5,0.34,0.47,0.44c-0.02,0.09-0.71,0.15-0.79,0.16c-0.54,0.08-1.08,0.13-1.62,0.16
					c-1.14,0.05-2.29,0.01-3.41-0.16c-2.25-0.34-4.4-1.11-6.35-2.27C139.62,42.33,138.99,43.41,139.69,43.82L139.69,43.82z"/>
			</g>
		</g>
		<g>
			<g>
				<path class="st0" d="M132.25,52.04c-2.54-3.72-3.54-8.37-2.67-12.81c-0.26,0.15-0.51,0.29-0.77,0.44
					c2.19,0.35,3.35,2.38,3.71,4.4c0.21,1.19,0.2,2.42,0.17,3.62c-0.04,1.25-0.19,2.47-0.63,3.65c-0.28,0.76,0.93,1.08,1.21,0.33
					c0.5-1.35,0.65-2.79,0.68-4.22c0.03-1.39,0-2.81-0.31-4.17c-0.52-2.24-2.08-4.43-4.49-4.81c-0.31-0.05-0.7,0.08-0.77,0.44
					c-0.93,4.75,0.06,9.76,2.8,13.77C131.62,53.33,132.7,52.71,132.25,52.04L132.25,52.04z"/>
			</g>
		</g>
		<g>
			<g>
				<path class="st0" d="M119.9,63.04c0.95-0.57,2.17,0.2,3.08,0.56c1,0.4,2.05,0.65,3.12,0.78c2.15,0.26,4.42-0.03,6.41-0.92
					c0.86-0.38,1.35-1.15,1.02-2.08c-0.32-0.9-1.18-1.47-2-1.87c-1.7-0.85-3.63-1.21-5.52-1.06c-2.17,0.17-4.2,0.97-5.89,2.34
					c-0.62,0.51,0.26,1.39,0.88,0.88c1.65-1.34,3.77-2.02,5.88-2.01c0.99,0,1.96,0.16,2.9,0.47c0.51,0.17,0.99,0.38,1.46,0.64
					c0.37,0.2,1.11,0.62,1.13,1.11c0.03,0.51-1.02,0.71-1.41,0.83c-0.58,0.18-1.17,0.32-1.76,0.4c-1.15,0.17-2.35,0.15-3.5-0.04
					c-1.2-0.2-2.27-0.66-3.39-1.1c-1-0.39-2.07-0.6-3.04-0.01C118.58,62.37,119.21,63.45,119.9,63.04L119.9,63.04z"/>
			</g>
		</g>
		<g>
			<g>
				<path class="st0" d="M115.46,50.91c-2.53-0.9-4.59-3.02-5.46-5.56c-0.15-0.45-0.94-3.25,0.33-2.64c1.18,0.56,2.1,1.79,2.64,2.93
					c0.64,1.35,0.84,2.91,0.52,4.36c-0.17,0.78,1.03,1.12,1.21,0.33c0.37-1.66,0.19-3.38-0.47-4.94c-0.64-1.51-1.78-3-3.26-3.77
					c-0.78-0.4-1.73-0.37-2.25,0.42c-0.43,0.66-0.4,1.49-0.28,2.23c0.28,1.68,1.05,3.25,2.1,4.57c1.19,1.5,2.78,2.63,4.59,3.27
					C115.89,52.39,116.22,51.18,115.46,50.91L115.46,50.91z"/>
			</g>
		</g>
		<g>
			<g>
				<path class="st0" d="M134.49,72.14c-0.76-4.46,1.38-9.22,5.19-11.65c-0.31-0.12-0.61-0.25-0.92-0.37
					c0.77,1.89,0.79,3.98,0.09,5.9c-0.8,2.18-2.54,3.53-4.4,4.8c-0.66,0.45-0.04,1.53,0.63,1.08c2.1-1.43,3.96-2.94,4.91-5.37
					c0.83-2.14,0.84-4.61-0.03-6.74c-0.14-0.35-0.54-0.61-0.92-0.37c-4.32,2.75-6.62,8.02-5.76,13.06
					C133.42,73.26,134.63,72.93,134.49,72.14L134.49,72.14z"/>
			</g>
		</g>
		<g>
			<g>
				<path class="st0" d="M129.09,25.25c0.8,0,0.81-1.25,0-1.25C128.29,24,128.29,25.25,129.09,25.25L129.09,25.25z"/>
			</g>
		</g>
		<g>
			<g>
				<path class="st0" d="M122.6,29.66c2.44,0.4,4.9,0.63,7.38,0.66c1.27,0.01,2.55-0.02,3.82-0.11c0.9-0.06,1.93-0.06,2.68-0.64
					c0.71-0.55,0.9-1.49,0.63-2.32c-0.3-0.89-1.07-1.5-1.9-1.89c-1.68-0.79-3.58-1.03-5.41-0.78c-2.1,0.29-4.07,1.24-5.58,2.73
					c-0.57,0.57,0.31,1.45,0.88,0.88c1.39-1.37,3.23-2.23,5.17-2.43c0.92-0.09,1.87-0.05,2.77,0.15c0.9,0.2,2.04,0.54,2.64,1.29
					c0.3,0.38,0.46,0.98,0.05,1.35c-0.35,0.31-0.98,0.31-1.41,0.34c-1.23,0.1-2.46,0.15-3.69,0.16c-2.58,0.01-5.16-0.2-7.7-0.62
					C122.15,28.32,121.81,29.53,122.6,29.66L122.6,29.66z"/>
			</g>
		</g>
		<g>
			<g>
				<path class="st0" d="M115.42,32.72c-1.7-0.5-2.96-1.95-3.5-3.61c-0.33-1.02-0.41-2.09-0.33-3.15c0.07-0.94,0.21-2.07,0.66-2.91
					c0.13-0.25,0.42-0.74,0.76-0.7c0.37,0.04,0.54,0.64,0.65,0.91c0.39,0.98,0.7,2,0.95,3.03c0.52,2.15,0.7,4.35,0.6,6.56
					c-0.04,0.8,1.21,0.8,1.25,0c0.1-2.14-0.07-4.28-0.53-6.38c-0.22-1.04-0.52-2.05-0.88-3.05c-0.29-0.8-0.58-1.79-1.42-2.18
					c-1.79-0.83-2.75,1.58-3.03,2.88c-0.43,1.99-0.44,4.13,0.38,6.02c0.77,1.78,2.23,3.23,4.1,3.78
					C115.86,34.15,116.19,32.94,115.42,32.72L115.42,32.72z"/>
			</g>
		</g>
		<g>
			<g>
				<path class="st0" d="M50.36,95.26c-2,3.95-4.91,7.42-8.5,10.02c-0.87,0.63-1.78,1.22-2.72,1.75c-0.21,0.12-0.43,0.24-0.64,0.35
					c-0.08,0.04-0.27,0.17-0.37,0.19c0.11-0.02,0.03,0.24,0.03-0.08c-0.01-0.6-0.09-1.14,0.02-1.74c0.42-2.35,2.11-4.18,4-5.52
					c1.08-0.76,2.22-1.42,3.37-2.06c1.25-0.71,2.54-1.38,4.01-1.28c0.8,0.05,0.8-1.2,0-1.25c-1.44-0.09-2.78,0.45-4.03,1.12
					c-1.23,0.66-2.45,1.37-3.61,2.15c-2.17,1.47-4.14,3.4-4.83,6.01c-0.16,0.59-0.24,1.21-0.24,1.81c0,0.54,0.02,1.32,0.35,1.78
					c0.76,1.05,2.44-0.31,3.21-0.77c2.19-1.31,4.22-2.93,6-4.77c2.02-2.09,3.73-4.49,5.04-7.09C51.8,95.18,50.72,94.54,50.36,95.26
					L50.36,95.26z"/>
			</g>
		</g>
		<g>
			<g>
				<path class="st0" d="M32.76,94.22c0.96-5.49,1.88-11.73-1.7-16.53c-0.19-0.25-0.56-0.44-0.86-0.22
					c-2.68,1.93-3.67,5.15-3.74,8.34c-0.03,1.63,0.06,3.47,0.62,5.01c0.55,1.51,1.99,2.81,3.69,2.27c0.76-0.24,0.44-1.45-0.33-1.21
					c-2.88,0.92-2.8-5.16-2.7-6.75c0.16-2.48,0.99-5.07,3.09-6.57c-0.29-0.07-0.57-0.15-0.86-0.22c3.38,4.52,2.47,10.38,1.57,15.56
					C31.42,94.67,32.62,95.01,32.76,94.22L32.76,94.22z"/>
			</g>
		</g>
		<g>
			<g>
				<path class="st0" d="M20.95,87.62c-2.03,1.45-4.3,2.51-6.71,3.13c-1.22,0.31-2.46,0.51-3.71,0.58
					c-0.61,0.04-1.23,0.04-1.84,0.02c-0.28-0.01-0.58,0-0.86-0.05c-0.47-0.08-0.67-0.15-0.58-0.65c0.36-1.96,3.13-2.46,4.74-2.64
					c2.83-0.32,5.68-0.37,8.52-0.19c0.8,0.05,0.8-1.2,0-1.25c-2.74-0.17-5.5-0.13-8.23,0.16c-1.79,0.19-3.74,0.52-5.13,1.77
					c-1.21,1.09-1.93,3.72,0.32,4.01c2.26,0.29,4.66,0.02,6.87-0.51c2.6-0.63,5.07-1.76,7.25-3.31
					C22.23,88.24,21.61,87.15,20.95,87.62L20.95,87.62z"/>
			</g>
		</g>
		<g>
			<g>
				<path class="st0" d="M64.7,89.35c3.23-2.99,6.6-6.69,5.89-11.45c-0.05-0.35-0.47-0.49-0.77-0.44c-2.34,0.44-4.27,2.04-5.23,4.21
					c-0.95,2.12-1.11,4.47-1.23,6.76c-0.04,0.8,1.21,0.8,1.25,0c0.1-2.01,0.22-4.1,1-5.98c0.81-1.97,2.44-3.39,4.55-3.78
					c-0.26-0.15-0.51-0.29-0.77-0.44c0.63,4.23-2.74,7.62-5.57,10.24C63.22,89.02,64.11,89.9,64.7,89.35L64.7,89.35z"/>
			</g>
		</g>
		<g>
			<g>
				<path class="st0" d="M61.66,81.07c-2.51,0.64-5.18-0.27-7.07-1.97c-1.95-1.76-3.11-4.19-3.79-6.69
					c-0.15,0.26-0.29,0.51-0.44,0.77c2.24-0.77,4.5,0.25,6.38,1.45c1.5,0.95,4.09,2.65,3.5,4.77c-0.22,0.78,0.99,1.11,1.21,0.33
					c0.74-2.65-1.8-4.68-3.74-5.96c-2.23-1.48-5-2.72-7.68-1.79c-0.32,0.11-0.53,0.43-0.44,0.77c0.77,2.81,2.12,5.59,4.39,7.49
					c2.21,1.84,5.18,2.77,8.01,2.05C62.77,82.07,62.44,80.87,61.66,81.07L61.66,81.07z"/>
			</g>
		</g>
		<g>
			<g>
				<path class="st0" d="M40.72,74.82c3.15-2.51,4.87-6.67,4.4-10.67c-0.04-0.34-0.25-0.62-0.62-0.62c-1.85-0.04-3.19,1.43-3.8,3.04
					c-0.34,0.91-0.48,1.88-0.64,2.84c-0.19,1.13-0.38,2.26-0.57,3.39c-0.13,0.79,1.07,1.13,1.21,0.33c0.3-1.8,0.51-3.65,0.96-5.41
					c0.35-1.37,1.22-2.98,2.85-2.95c-0.21-0.21-0.42-0.42-0.62-0.62c0.44,3.72-1.1,7.46-4.03,9.79
					C39.21,74.44,40.1,75.32,40.72,74.82L40.72,74.82z"/>
			</g>
		</g>
		<g>
			<g>
				<path class="st0" d="M24.77,71.18c-1.67,2.01-3.52,3.85-5.55,5.48c-1.05,0.84-2.2,1.8-3.58,1.97c-0.62,0.07-1.25,0-1.86-0.12
					c-0.34-0.07-0.68-0.16-1.01-0.26c-0.28-0.08-0.75-0.14-0.99-0.31c-0.17,0-0.22-0.05-0.14-0.16c0.05-0.14,0.1-0.28,0.15-0.41
					c0.11-0.3,0.23-0.6,0.35-0.9c0.23-0.54,0.48-1.07,0.79-1.57c0.67-1.08,1.64-1.88,2.8-2.38c2.54-1.09,5.4-0.71,8.05-0.34
					c0.79,0.11,1.13-1.1,0.33-1.21c-2.51-0.35-5.11-0.7-7.6-0.04c-2.24,0.6-4.02,1.98-5.07,4.07c-0.24,0.48-0.45,0.98-0.64,1.47
					c-0.2,0.49-0.5,1.06-0.43,1.61c0.15,1.06,1.61,1.26,2.44,1.47c1.18,0.31,2.42,0.48,3.62,0.19c1.17-0.29,2.15-1.01,3.08-1.74
					c2.26-1.75,4.32-3.75,6.15-5.95C26.16,71.45,25.28,70.56,24.77,71.18L24.77,71.18z"/>
			</g>
		</g>
		<g>
			<g>
				<path class="st0" d="M27.31,62.2c0.77-1.43,1.42-2.93,1.95-4.47c0.49-1.43,1.14-3.17,0.62-4.67c-0.41-1.17-1.73-2.12-2.98-1.66
					c-1.22,0.45-1.51,1.84-1.57,2.99c-0.09,1.97-0.08,3.95-0.12,5.92c-0.02,0.8,1.23,0.8,1.25,0c0.04-1.82,0.07-3.65,0.11-5.47
					c0.02-0.79,0.16-2.94,1.49-2.16c1.41,0.82,0.54,3.03,0.16,4.2c-0.52,1.62-1.19,3.18-1.99,4.68
					C25.85,62.28,26.93,62.91,27.31,62.2L27.31,62.2z"/>
			</g>
		</g>
		<g>
			<g>
				<path class="st0" d="M19.56,57.12c-4.3,0.25-9.19,0.19-12.47-3.04c-0.65-0.64-1.2-1.39-1.59-2.22c-0.11-0.24-0.22-0.5-0.29-0.75
					c-0.07-0.28-0.17-0.18,0.08-0.27c0.4-0.13,1.06-0.02,1.48,0.01c1.98,0.12,3.93,0.7,5.67,1.63c1.99,1.07,3.71,2.59,4.97,4.47
					c0.45,0.66,1.53,0.04,1.08-0.63c-2.64-3.94-7.09-6.48-11.83-6.73c-0.82-0.04-2.31-0.23-2.7,0.74c-0.36,0.89,0.46,2.27,0.93,3.01
					c1.21,1.9,3.1,3.26,5.17,4.08c3,1.18,6.34,1.14,9.51,0.96C20.36,58.32,20.37,57.07,19.56,57.12L19.56,57.12z"/>
			</g>
		</g>
		<g>
			<g>
				<path class="st0" d="M38.81,47.22c5.21-0.28,10.98-2.34,12.76-7.75c0.14-0.42-0.22-0.75-0.6-0.79
					c-1.45-0.14-2.92-0.24-4.38-0.22c-1.24,0.01-2.54,0.18-3.59,0.9c-1.86,1.28-2.49,3.59-2.96,5.67c-0.18,0.78,1.03,1.12,1.21,0.33
					c0.39-1.76,0.87-3.98,2.52-5.01c0.96-0.6,2.12-0.64,3.22-0.63c1.33,0.01,2.65,0.1,3.98,0.22c-0.2-0.26-0.4-0.53-0.6-0.79
					c-1.59,4.84-6.94,6.59-11.55,6.84C38.01,46.01,38.01,47.26,38.81,47.22L38.81,47.22z"/>
			</g>
		</g>
		<g>
			<g>
				<path class="st0" d="M27.91,47.86c-0.28-1.19-1.05-2.09-1.91-2.92c-1.03-1-1.99-1.94-2.54-3.3c-1.2-2.97-0.91-6.52-0.01-9.52
					c-0.2,0.15-0.4,0.31-0.6,0.46c1.31-0.1,2.06,1.3,2.62,2.28c0.7,1.23,1.33,2.51,1.8,3.85c0.91,2.61,1.27,5.5,0.14,8.11
					c-0.32,0.73,0.76,1.37,1.08,0.63c1.35-3.11,0.98-6.48-0.2-9.59c-0.58-1.52-1.3-3.02-2.19-4.39c-0.73-1.13-1.78-2.25-3.24-2.14
					c-0.28,0.02-0.52,0.18-0.6,0.46c-0.92,3.07-1.19,6.61-0.17,9.69c0.44,1.32,1.15,2.47,2.13,3.46c0.97,0.98,2.16,1.85,2.5,3.26
					C26.89,48.98,28.1,48.65,27.91,47.86L27.91,47.86z"/>
			</g>
		</g>
		<g>
			<g>
				<path class="st0" d="M18.59,41.56c-2.75,0.27-5.87,0.58-8.44-0.66c-0.6-0.29-1.2-0.65-1.66-1.13c-0.27-0.28-0.84-1.08-0.41-1.43
					c0.24-0.2,0.71-0.16,1-0.17c0.44-0.03,0.88-0.05,1.33-0.06c0.89-0.02,1.79-0.01,2.67,0.16c1.58,0.3,3.11,1.07,3.89,2.53
					c0.38,0.71,1.46,0.08,1.08-0.63c-0.84-1.55-2.41-2.54-4.09-2.98c-1.02-0.27-2.1-0.34-3.15-0.33c-0.93,0.01-2.05-0.07-2.94,0.22
					c-1.83,0.58-1.21,2.75-0.12,3.74c1.3,1.18,3.01,1.8,4.73,2.05c2.03,0.29,4.08,0.15,6.11-0.05
					C19.39,42.74,19.4,41.49,18.59,41.56L18.59,41.56z"/>
			</g>
		</g>
		<g>
			<g>
				<path class="st0" d="M46.24,28.54c-0.41,2.52-1.96,4.75-4.24,5.92c-2.45,1.26-5.47,1.02-7.78-0.42
					c0.04,0.33,0.08,0.65,0.13,0.98c2.19-2.8,5.82-4.31,9.35-3.73c0.79,0.13,1.13-1.07,0.33-1.21c-3.95-0.65-8.09,0.88-10.57,4.05
					c-0.25,0.32-0.25,0.75,0.13,0.98c2.65,1.65,6.05,1.86,8.87,0.5c2.62-1.26,4.52-3.89,4.99-6.75
					C47.57,28.08,46.36,27.75,46.24,28.54L46.24,28.54z"/>
			</g>
		</g>
		<g>
			<g>
				<path class="st0" d="M46.56,26.28c-1.01-1.42-2.05-2.84-3.04-4.27c-0.88-1.28-1.77-2.68-1.98-4.26
					c-0.02-0.15-0.1-0.49-0.04-0.62C41.56,17,41.62,17.01,41.8,17c0.36-0.02,0.71,0.02,1.05,0.11c0.7,0.19,1.35,0.59,1.88,1.08
					c1.12,1.02,1.84,2.43,2.19,3.89c0.39,1.65,0.27,3.37-0.32,4.95c-0.28,0.75,0.93,1.08,1.21,0.33c1.25-3.36,0.51-7.6-2.19-10.07
					c-0.66-0.6-1.42-1.09-2.28-1.36c-0.74-0.23-1.82-0.39-2.52,0.04c-0.81,0.49-0.57,1.68-0.41,2.45c0.19,0.93,0.59,1.82,1.06,2.64
					c1.15,2.05,2.66,3.91,4.02,5.82C45.94,27.56,47.03,26.93,46.56,26.28L46.56,26.28z"/>
			</g>
		</g>
		<g>
			<g>
				<path class="st0" d="M50.91,63.15c-0.07-2.85-0.15-5.71-0.22-8.56c-0.04-1.43-0.07-2.85-0.11-4.28
					c-0.02-0.69-0.04-1.37-0.05-2.06c-0.01-0.35-0.13-0.6,0.27-0.47c0.22,0.07,0.45,0.34,0.58,0.52c0.57,0.75,0.69,1.8,0.74,2.71
					c0.07,1.31,0.01,2.63,0.01,3.94c0,1.26,0.04,2.53-0.02,3.79c-0.04,0.88-0.17,2.19-1.15,2.51c-0.76,0.25-0.44,1.46,0.33,1.21
					c1.93-0.63,2.07-2.86,2.08-4.58c0-1.38,0.01-2.77,0.01-4.15c0-1.19,0.06-2.4-0.09-3.58c-0.11-0.9-0.34-1.81-0.89-2.55
					c-0.48-0.65-1.35-1.35-2.22-1.13c-1.1,0.28-0.91,1.57-0.88,2.43c0.04,1.48,0.08,2.96,0.12,4.44c0.09,3.28,0.17,6.56,0.26,9.83
					C49.68,63.96,50.93,63.96,50.91,63.15L50.91,63.15z"/>
			</g>
		</g>
		<g>
			<g>
				<path class="st0" d="M67.4,52.97c-3.48,0.52-6.66,2.66-8.49,5.67c-0.23,0.37-0.48,0.79-0.46,1.24c0.02,0.54,0.4,0.87,0.86,1.07
					c0.79,0.36,1.66,0.52,2.54,0.48c1.76-0.1,3.45-0.93,4.57-2.29c1.32-1.6,1.9-3.69,1.81-5.75c-0.04-0.8-1.29-0.81-1.25,0
					c0.13,2.94-1.36,6.04-4.44,6.7c-0.65,0.14-1.34,0.14-1.99-0.02c-0.2-0.05-0.76-0.15-0.89-0.34c0.09,0.13,0.14-0.14,0.2-0.25
					c0.11-0.18,0.22-0.36,0.33-0.54c0.78-1.18,1.81-2.21,2.98-3c1.37-0.92,2.92-1.52,4.55-1.77c0.34-0.05,0.52-0.47,0.44-0.77
					C68.08,53.04,67.73,52.92,67.4,52.97L67.4,52.97z"/>
			</g>
		</g>
		<g>
			<g>
				<path class="st0" d="M80.31,68.71c-1.49-5.23-3.33-12.91,2.32-16.45c-0.29-0.07-0.57-0.15-0.86-0.22
					c2.44,5.09,1.79,11.31-1.53,15.85c-0.48,0.65,0.61,1.27,1.08,0.63c3.6-4.91,4.16-11.63,1.53-17.11
					c-0.14-0.3-0.59-0.39-0.86-0.22c-2.51,1.57-3.94,4.32-4.36,7.2c-0.53,3.62,0.48,7.22,1.46,10.66
					C79.32,69.81,80.53,69.48,80.31,68.71L80.31,68.71z"/>
			</g>
		</g>
		<g>
			<g>
				<path class="st0" d="M63.29,40.98c4.29,0.64,8.79-0.86,11.78-4.03c0.66-0.7,1.6-1.66,1.51-2.7c-0.11-1.23-1.79-1.56-2.74-1.88
					c-2.18-0.73-4.45-0.76-6.38,0.61c-1.87,1.33-3.1,3.53-2.93,5.85c0.06,0.8,1.31,0.8,1.25,0c-0.12-1.65,0.57-3.21,1.77-4.33
					c1.31-1.22,3.01-1.65,4.74-1.28c0.53,0.11,1.04,0.28,1.55,0.46c0.36,0.13,1.27,0.3,1.44,0.64c0.28,0.55-1.11,1.78-1.48,2.14
					c-1.25,1.21-2.77,2.14-4.41,2.72c-1.84,0.65-3.83,0.88-5.76,0.6C62.83,39.66,62.49,40.86,63.29,40.98L63.29,40.98z"/>
			</g>
		</g>
		<g>
			<g>
				<path class="st0" d="M60.87,36.56c-0.99,2.58-2.81,4.85-5.12,6.37c-0.28,0.18-0.56,0.36-0.85,0.52
					c-0.15,0.08-0.29,0.16-0.44,0.24c-0.07,0.04-0.14,0.08-0.21,0.11c-0.09,0.04-0.21,0.01-0.12,0.08c-0.31-0.23-0.1-1.1-0.04-1.41
					c0.25-1.23,0.91-2.33,1.83-3.18c1.01-0.94,2.33-1.53,3.72-1.56c0.8-0.02,0.81-1.27,0-1.25c-3.14,0.07-6.04,2.48-6.73,5.55
					c-0.16,0.73-0.28,1.58,0.03,2.29c0.16,0.35,0.42,0.62,0.79,0.74c0.46,0.15,0.9-0.05,1.3-0.25c1.49-0.75,2.85-1.79,3.99-3.01
					c1.33-1.42,2.36-3.08,3.05-4.9c0.12-0.32-0.13-0.69-0.44-0.77C61.29,36.03,60.99,36.25,60.87,36.56L60.87,36.56z"/>
			</g>
		</g>
		<g>
			<g>
				<path class="st0" d="M64.29,27.68c-1.66-0.59-3.33-1.18-4.99-1.78c-1.11-0.4-2.31-0.83-3.14-1.7c-0.35-0.36-0.63-0.84-0.62-1.35
					c0-0.31,0.16-0.3,0.46-0.36c0.38-0.08,0.77-0.14,1.16-0.18c1.4-0.16,2.96-0.13,4.17,0.68c1.04,0.69,1.88,2.16,1.34,3.4
					c-0.32,0.73,0.76,1.37,1.08,0.63c0.67-1.53,0.2-3.2-0.92-4.39c-1.24-1.33-3.13-1.71-4.88-1.64c-0.88,0.04-1.94,0.09-2.76,0.43
					c-0.86,0.35-0.99,1.23-0.81,2.06c0.33,1.49,1.76,2.43,3.06,3.02c0.95,0.43,1.94,0.74,2.92,1.09c1.2,0.43,2.41,0.86,3.61,1.29
					C64.72,29.16,65.04,27.95,64.29,27.68L64.29,27.68z"/>
			</g>
		</g>
		<g>
			<g>
				<path class="st0" d="M61.87,18.63c-0.06-2.33-0.05-4.65,0.04-6.98c0.02-0.52-0.04-1.89,0.58-2.17c0.59-0.26,1.45,1.22,1.67,1.62
					c1.82,3.28,0.19,7.46-3.37,8.63c-0.76,0.25-0.43,1.46,0.33,1.21c3.41-1.12,5.55-4.56,4.95-8.11c-0.15-0.88-0.47-1.74-0.92-2.51
					c-0.42-0.72-1.02-1.54-1.77-1.93c-1.67-0.87-2.57,1.13-2.69,2.45c-0.22,2.57-0.15,5.21-0.08,7.79
					C60.64,19.43,61.89,19.43,61.87,18.63L61.87,18.63z"/>
			</g>
		</g>
		<g>
			<g>
				<path class="st0" d="M87.91,42.13c-1.56,0.79-3.28,1.16-5.02,1.11c-1.68-0.04-3.56-0.46-4.95-1.44
					c-0.54-0.38-1.11-1.03-0.83-1.74c0.23-0.57,0.9-0.9,1.44-1.09c0.72-0.26,1.48-0.37,2.23-0.48c0.93-0.13,1.88-0.22,2.82-0.14
					c1.76,0.16,3.78,1.33,3.68,3.34c-0.04,0.8,1.21,0.8,1.25,0c0.11-2.02-1.5-3.68-3.33-4.28c-1.16-0.38-2.42-0.39-3.62-0.26
					c-1.02,0.1-2.08,0.22-3.07,0.53c-1.6,0.5-3.33,1.83-2.53,3.71c0.8,1.88,3.46,2.67,5.29,2.95c2.49,0.39,5.02,0.01,7.27-1.13
					C89.26,42.85,88.63,41.77,87.91,42.13L87.91,42.13z"/>
			</g>
		</g>
		<g>
			<g>
				<path class="st0" d="M86.02,11.53c2.69,0.37,5.39,0.35,8.08-0.08c1.35-0.22,2.68-0.54,3.97-0.97c1.07-0.35,2.41-0.71,3.23-1.53
					c1.96-1.96-1.41-3.56-2.93-4.02c-2.28-0.7-4.79-0.53-6.95,0.48c-2.3,1.08-4.05,3.08-4.96,5.44c-0.29,0.75,0.92,1.08,1.21,0.33
					c1.81-4.75,7.58-6.87,12.02-4.34c0.47,0.27,1.23,0.65,0.73,1.23C100,8.55,99.2,8.75,98.64,8.96c-1.28,0.47-2.6,0.85-3.93,1.11
					c-2.74,0.55-5.58,0.63-8.35,0.25C85.57,10.21,85.22,11.42,86.02,11.53L86.02,11.53z"/>
			</g>
		</g>
		<g>
			<g>
				<path class="st0" d="M75.48,18.4c-1.02-2.29-1.49-4.8-1.41-7.3c0.04-1.25,0.23-2.49,0.55-3.7c0.17-0.63,0.37-1.25,0.62-1.86
					c0.33-0.79,1.11,0.18,1.45,0.53c3.31,3.48,2.87,9.03-0.77,12.09c-0.62,0.52,0.27,1.4,0.88,0.88c3.42-2.88,4.38-7.84,2.27-11.78
					c-0.61-1.15-2.99-4.66-4.53-3.01c-0.35,0.38-0.51,0.94-0.69,1.41c-0.21,0.57-0.39,1.16-0.53,1.76c-0.29,1.2-0.46,2.44-0.5,3.68
					c-0.09,2.74,0.47,5.44,1.58,7.93C74.72,19.76,75.8,19.13,75.48,18.4L75.48,18.4z"/>
			</g>
		</g>
		<g>
			<g>
				<path class="st0" d="M94.88,28.12c-1.47-2.75-5.06-3.3-6.51-6.07c-0.39-0.74-0.62-1.58-0.66-2.41
					c-0.01-0.26-0.09-0.89,0.06-1.12c0.08-0.12,0.05-0.12,0.25-0.11c0.22,0.01,0.46,0.08,0.67,0.14c1.53,0.44,2.76,1.62,3.58,2.95
					c1.12,1.84,1.55,4,1.98,6.09c0.16,0.79,1.37,0.45,1.21-0.33c-0.79-3.84-2.03-8.44-6.21-9.84c-0.74-0.25-1.82-0.51-2.4,0.18
					c-0.58,0.68-0.43,1.97-0.31,2.79c0.28,1.91,1.33,3.53,2.84,4.69c1.51,1.15,3.49,1.92,4.42,3.67
					C94.18,29.47,95.26,28.83,94.88,28.12L94.88,28.12z"/>
			</g>
		</g>
		<g>
			<g>
				<path class="st0" d="M98.15,23.95c1.2-0.07,2.29,0.41,3.39,0.82c1.09,0.41,2.19,0.7,3.35,0.83c1.15,0.13,2.31,0.1,3.46-0.08
					c0.84-0.13,2.14-0.26,2.64-1.06c0.98-1.58-1.67-3.37-2.82-3.98c-1.53-0.81-3.3-1.2-5.03-1.11c-1.97,0.1-3.83,0.79-5.35,2.06
					c-0.62,0.51,0.27,1.39,0.88,0.88c2.19-1.82,5.35-2.14,7.98-1.15c0.63,0.24,1.23,0.56,1.78,0.95c0.33,0.23,1.66,1.22,1.45,1.67
					c-0.14,0.3-0.91,0.35-1.22,0.42c-0.48,0.1-0.97,0.17-1.47,0.2c-0.97,0.07-1.95,0.03-2.9-0.14c-2.07-0.37-4-1.69-6.15-1.56
					C97.35,22.74,97.34,23.99,98.15,23.95L98.15,23.95z"/>
			</g>
		</g>
		<g>
			<g>
				<path class="st0" d="M103.84,43.25c0.8,0,0.81-1.25,0-1.25C103.04,42,103.04,43.25,103.84,43.25L103.84,43.25z"/>
			</g>
		</g>
		<g>
			<g>
				<path class="st0" d="M104.45,42.3c-0.9-1.7-1.86-3.37-2.68-5.11c-0.72-1.52-1.52-3.63-0.63-5.25c0.76-1.39,2.6,1.61,2.89,2.24
					c0.59,1.27,0.81,2.7,0.71,4.09c-0.11,1.61-0.71,3.19-1.76,4.43c-0.52,0.61,0.36,1.5,0.88,0.88c2.35-2.76,2.77-6.77,1.25-10.03
					c-0.63-1.35-2.11-3.56-3.89-3.16c-0.95,0.22-1.39,1.19-1.57,2.07c-0.23,1.08-0.11,2.19,0.2,3.24c0.35,1.21,0.93,2.35,1.52,3.46
					c0.67,1.26,1.34,2.52,2,3.78C103.75,43.64,104.83,43.01,104.45,42.3L104.45,42.3z"/>
			</g>
		</g>
		<g>
			<g>
				<path class="st0" d="M98.97,66.65c1.6-0.35,3.24,0.18,4.85-0.08c1.24-0.2,2.5-0.87,2.99-2.08c0.52-1.29-0.12-2.68-1.18-3.46
					c-1.2-0.89-2.82-0.76-4.11-0.15c-1.63,0.77-2.7,2.3-3.68,3.75c-0.46,0.67,0.63,1.29,1.08,0.63c0.71-1.04,1.45-2.16,2.51-2.88
					c0.89-0.61,2.18-1.05,3.21-0.5c0.77,0.41,1.39,1.36,0.99,2.23c-0.38,0.84-1.44,1.19-2.29,1.28c-1.57,0.16-3.13-0.29-4.7,0.06
					C97.85,65.62,98.19,66.83,98.97,66.65L98.97,66.65z"/>
			</g>
		</g>
		<g>
			<g>
				<path class="st0" d="M94.38,87.06c3.97,2.23,8.75,4.26,13.24,2.26c0.76-0.34,2.03-0.92,2.15-1.86c0.13-1-1.12-1.56-1.83-1.96
					c-1.88-1.05-3.99-1.66-6.13-1.83c-2.46-0.2-4.92,0.24-7.17,1.24c-0.73,0.32-0.1,1.4,0.63,1.08c2.12-0.93,4.47-1.27,6.77-1.04
					c1.07,0.1,2.13,0.34,3.15,0.69c0.59,0.2,1.17,0.45,1.72,0.73c0.43,0.22,1.03,0.46,1.36,0.81c0.18,0.04,0.23,0.11,0.14,0.22
					c-0.13,0.1-0.27,0.2-0.41,0.29c-0.19,0.13-0.4,0.24-0.6,0.35c-0.57,0.29-1.18,0.5-1.81,0.64c-1.09,0.24-2.23,0.27-3.33,0.13
					c-2.61-0.33-5-1.56-7.26-2.82C94.31,85.59,93.67,86.67,94.38,87.06L94.38,87.06z"/>
			</g>
		</g>
		<g>
			<g>
				<path class="st0" d="M72.74,100.76c-5.59,0.77-11.41,3.83-12.84,9.72c-0.07,0.3,0.09,0.72,0.44,0.77c3,0.43,6.08-0.3,8.49-2.16
					c2.28-1.76,3.82-4.41,4.22-7.26c0.11-0.79-1.09-1.13-1.21-0.33c-0.36,2.53-1.62,4.87-3.62,6.49c-2.09,1.69-4.91,2.43-7.56,2.05
					c0.15,0.26,0.29,0.51,0.44,0.77c1.33-5.48,6.81-8.13,11.96-8.84C73.87,101.86,73.53,100.65,72.74,100.76L72.74,100.76z"/>
			</g>
		</g>
		<g>
			<g>
				<path class="st0" d="M73.61,100.31c-1.69-1.55-2.55-3.94-2.2-6.21c0.08-0.53,0.21-1.11,0.45-1.59c0.06-0.11,0.29-0.55,0.46-0.54
					c0.19,0,0.45,0.55,0.54,0.69c0.62,1.04,0.97,2.23,1.01,3.44c0.05,1.39-0.27,2.74-0.98,3.94c-0.41,0.69,0.67,1.32,1.08,0.63
					c1.57-2.67,1.54-6.21-0.14-8.82c-0.44-0.68-1.03-1.35-1.92-1.05c-0.75,0.26-1.15,1.03-1.39,1.73c-0.49,1.39-0.53,2.93-0.23,4.37
					c0.35,1.64,1.2,3.16,2.44,4.29C73.32,101.74,74.21,100.86,73.61,100.31L73.61,100.31z"/>
			</g>
		</g>
		<g>
			<g>
				<path class="st0" d="M97.84,109.26c0.8,0,0.81-1.25,0-1.25C97.04,108.01,97.04,109.26,97.84,109.26L97.84,109.26z"/>
			</g>
		</g>
		<g>
			<g>
				<path class="st0" d="M97.21,108.64c0.01,2.07,0.02,4.14,0.02,6.21c0,0.71,0,1.47,0.35,2.11c0.35,0.64,1.06,1.02,1.79,0.88
					c1.62-0.31,2.25-2.38,2.48-3.77c0.28-1.7,0.05-3.48-0.85-4.97c-0.91-1.51-2.37-2.62-4.06-3.11c-0.77-0.22-1.1,0.98-0.33,1.21
					c1.46,0.42,2.69,1.41,3.43,2.74c0.87,1.58,0.83,3.49,0.26,5.16c-0.15,0.45-0.66,1.7-1.34,1.52c-0.6-0.16-0.49-1.32-0.49-1.76
					c-0.01-2.07-0.02-4.14-0.02-6.21C98.46,107.83,97.21,107.83,97.21,108.64L97.21,108.64z"/>
			</g>
		</g>
		<g>
			<g>
				<path class="st0" d="M127.94,23.48c-0.87-4.43,0.58-9.13,3.75-12.33c-0.35-0.09-0.7-0.18-1.04-0.28
					c0.88,2.55,1.89,5.47,1.1,8.18c-0.77,2.64-3.29,4.03-5.54,5.25c-0.71,0.38-0.08,1.46,0.63,1.08c2.5-1.36,5.1-2.92,6.05-5.78
					c0.99-2.98-0.05-6.23-1.03-9.06c-0.15-0.43-0.7-0.63-1.04-0.28c-3.5,3.53-5.03,8.67-4.08,13.54
					C126.89,24.61,128.1,24.27,127.94,23.48L127.94,23.48z"/>
			</g>
		</g>
		<g>
			<g>
				<path class="st0" d="M145.19,32.52c-0.04-1.76-0.04-3.53-0.01-5.3c0.02-0.87,0.04-1.74,0.09-2.61c0.03-0.51,0.07-1.23,0.48-1.6
					c0.55-0.48,1.21,0.18,1.52,0.62c0.38,0.55,0.59,1.22,0.73,1.87c0.26,1.23,0.17,2.52-0.21,3.72c-0.43,1.39-1.26,2.59-2.4,3.5
					c-0.63,0.5,0.26,1.38,0.88,0.88c2.49-1.98,3.61-5.42,2.91-8.51c-0.32-1.44-1.23-3.46-2.97-3.51c-1.87-0.05-2.16,2.11-2.21,3.51
					c-0.1,2.47-0.12,4.94-0.06,7.41C143.96,33.32,145.21,33.33,145.19,32.52L145.19,32.52z"/>
			</g>
		</g>
		<g>
			<g>
				<path class="st0" d="M143.96,93.75c-1.1-1.76-2.25-3.5-3.29-5.29c-0.9-1.54-1.75-3.35-1.04-5.13c-0.15,0.15-0.29,0.29-0.44,0.44
					c0.57-0.16,1.2,0.36,1.66,0.66c0.5,0.33,0.99,0.69,1.44,1.08c0.87,0.76,1.61,1.65,2.12,2.7c0.92,1.89,0.79,4.38-0.8,5.87
					c-0.59,0.55,0.3,1.44,0.88,0.88c1.27-1.2,1.84-2.98,1.72-4.71c-0.13-1.86-1.01-3.53-2.28-4.89c-0.64-0.69-1.38-1.29-2.16-1.82
					c-0.74-0.51-1.64-1.17-2.58-1.05c-1.01,0.12-1.12,1.44-1.1,2.28c0.02,1.03,0.34,2.01,0.76,2.94c0.51,1.11,1.18,2.14,1.83,3.17
					c0.73,1.17,1.46,2.34,2.19,3.5C143.3,95.06,144.38,94.43,143.96,93.75L143.96,93.75z"/>
			</g>
		</g>
		<g>
			<g>
				<path class="st0" d="M122.76,106.02c1.06,2.33,2.26,4.67,4.12,6.48c1.64,1.59,3.96,2.89,6.31,2.77c1.02-0.05,1.96-0.58,2.03-1.7
					c0.07-1.09-0.42-2.3-0.86-3.28c-0.94-2.1-2.56-3.91-4.56-5.06c-2.45-1.41-5.36-1.81-8.11-1.2c-0.79,0.17-0.45,1.38,0.33,1.21
					c4.03-0.89,8.28,0.82,10.51,4.3c0.52,0.81,0.92,1.68,1.19,2.61c0.12,0.4,0.3,0.91,0.25,1.33c-0.06,0.52-0.61,0.54-1.04,0.54
					c-2.03-0.03-3.92-1.16-5.32-2.56c-1.7-1.71-2.79-3.91-3.78-6.08C123.51,104.66,122.43,105.3,122.76,106.02L122.76,106.02z"/>
			</g>
		</g>
		<g>
			<g>
				<path class="st0" d="M146.3,95.23c2.47,0.34,4.95,0.29,7.4-0.18c1.28-0.25,2.55-0.61,3.77-1.1c0.88-0.35,1.77-0.91,1.58-2
					c-0.32-1.79-2.46-3.04-4.07-3.44c-1.93-0.48-3.92-0.18-5.68,0.7c-2.18,1.09-3.87,2.94-5.28,4.88c-0.48,0.65,0.61,1.27,1.08,0.63
					c2.35-3.21,6.41-6.66,10.63-4.63c0.69,0.33,2.02,1.16,2.05,2.03c0.01,0.35-0.16,0.42-0.48,0.56c-0.32,0.14-0.65,0.25-0.98,0.37
					c-0.6,0.21-1.21,0.39-1.82,0.54c-2.56,0.64-5.23,0.78-7.85,0.43C145.85,93.92,145.5,95.13,146.3,95.23L146.3,95.23z"/>
			</g>
		</g>
	</g>
</g>
</svg>
